<?xml version="1.0" encoding="UTF-8"?>
<svg width="250px" height="141px" viewBox="0 0 250 141" version="1.1" xmlns="http://www.w3.org/2000/svg" xmlns:xlink="http://www.w3.org/1999/xlink">
    <title>5</title>
    <defs>
        <rect id="path-1" x="0" y="0.489051095" width="250" height="140"></rect>
        <linearGradient x1="86.5989814%" y1="65.7301088%" x2="86.5989814%" y2="100%" id="linearGradient-3">
            <stop stop-color="#D30048" stop-opacity="0.183429851" offset="0%"></stop>
            <stop stop-color="#A90639" stop-opacity="0.0496612762" offset="100%"></stop>
        </linearGradient>
        <linearGradient x1="86.6559845%" y1="46.2446566%" x2="79.6537057%" y2="54.5283188%" id="linearGradient-4">
            <stop stop-color="#DD075D" stop-opacity="0.676382212" offset="0%"></stop>
            <stop stop-color="#EC5614" stop-opacity="0.105441434" offset="100%"></stop>
        </linearGradient>
        <linearGradient x1="86.8023185%" y1="33.3904867%" x2="86.8023185%" y2="102.211424%" id="linearGradient-5">
            <stop stop-color="#FB1188" stop-opacity="0.386199738" offset="0%"></stop>
            <stop stop-color="#C0049D" stop-opacity="0.202578671" offset="100%"></stop>
        </linearGradient>
    </defs>
    <g id="司南首页" stroke="none" stroke-width="1" fill="none" fill-rule="evenodd">
        <g id="5">
            <mask id="mask-2" fill="white">
                <use xlink:href="#path-1"></use>
            </mask>
            <g id="蒙版"></g>
            <path d="M-23.0388536,123.109168 C-27.0926624,132.411208 -18.3232175,126.725562 3.26948104,106.052231 C35.6585288,75.0422341 53.190757,80.9671203 89.5877493,92.099171 C118.901751,101.064883 170.890666,49.6897191 205.212362,77.6784075 C213.505335,84.4411693 253.142049,124.691814 259.270622,133.445834 C280.265672,163.43505 278.816183,97.6562687 254.922156,-63.8905109 L-13.0228374,-59.1920266 L-23.0388536,123.109168 Z" id="路径-6" fill="url(#linearGradient-3)" mask="url(#mask-2)"></path>
            <path d="M-80,122.094891 C-30.6676292,58.9216181 5.50400377,37.0194041 28.5148989,56.3882485 C63.0312417,85.4415151 64.5319523,99.566899 127.561796,99.566899 C190.591639,99.566899 251.767252,34.9204152 283.240788,79.8549064 C304.223146,109.811234 297.125858,62.2116432 261.948923,-62.9438653 L-74.0336556,-85.350365 L-80,122.094891 Z" id="路径-6备份" fill="url(#linearGradient-4)" mask="url(#mask-2)"></path>
            <path d="M-52,133.335766 C-2.66762921,70.162494 33.5040038,48.26028 56.5148989,67.6291244 C91.0312417,96.682391 92.5319523,110.807775 155.561796,110.807775 C218.591639,110.807775 279.767252,46.1612911 311.240788,91.0957823 C332.223146,121.05211 325.125858,73.4525192 289.948923,-51.7029894 L-46.0336556,-74.1094891 L-52,133.335766 Z" id="路径-6备份-2" fill="url(#linearGradient-5)" mask="url(#mask-2)"></path>
        </g>
    </g>
</svg>