<?xml version="1.0" encoding="UTF-8"?>
<svg width="251px" height="140px" viewBox="0 0 251 140" version="1.1" xmlns="http://www.w3.org/2000/svg" xmlns:xlink="http://www.w3.org/1999/xlink">
    <title>6</title>
    <defs>
        <path d="M4,0 L246,0 C248.209139,-4.05812251e-16 250,1.790861 250,4 L250,140 L250,140 L0,140 L0,4 C-2.705415e-16,1.790861 1.790861,4.05812251e-16 4,0 Z" id="path-1"></path>
    </defs>
    <g id="司南首页" stroke="none" stroke-width="1" fill="none" fill-rule="evenodd">
        <g id="6" transform="translate(0.500000, 0.000000)">
            <mask id="mask-2" fill="white">
                <use xlink:href="#path-1"></use>
            </mask>
            <use id="蒙版" fill="#C9C7F6" xlink:href="#path-1"></use>
            <g id="编组" mask="url(#mask-2)">
                <g transform="translate(124.000000, 11.000000)">
                    <g transform="translate(33.630964, 4.432472)">
                        <path d="M37.4735175,115.501754 C35.2530846,120.466869 30.3239214,123.66261 24.8866651,123.66261 C21.0726674,123.788266 16.7901682,123.788266 13.477665,123.788266 C10.2410458,123.788266 7.51251976,121.366838 7.12980026,118.154117 C4.64872215,98.2359227 -3.1904289,31.478558 1.53417729,15.2264661 C5.37786878,1.99827204 20.4260034,-7.60151648 41.2875153,8.80068347 C63.4588516,26.2315656 45.457838,92.0685841 37.4735175,115.501754 Z" id="路径" fill="#BBB9F6"></path>
                    </g>
                    <g transform="translate(33.601116, 8.936923)" opacity="0.17578125">
                        <path d="M8.04697157,0.274031691 C17.0204323,-4.62809079 15.9808506,98.93414 12.3879865,119.282081 L9.09960244,119.282081 C8.40799786,119.282081 7.82078642,118.768815 7.73379213,118.081561 C6.34623325,107.394325 -3.62766178,28.5775907 1.56154746,10.7220336 C2.64027662,7.01608124 5.31535095,2.60547592 8.04697157,0.274031691 Z" id="路径" fill="#3300FF"></path>
                    </g>
                    <g transform="translate(76.521942, 44.166977)">
                        <path d="M0.155067382,22.7505513 C0.155067382,22.7505513 23.7088129,27.5152958 24.5996255,14.8172347 C25.586118,0.78789788 44.7550859,-9.5838268 48.2556495,14.8172347 C48.2556495,44.7098086 0.155067382,32.8098337 0.155067382,32.8098337 L0.155067382,22.7505513 Z" id="路径" fill="#BBB9F6"></path>
                    </g>
                    <g transform="translate(20.568161, 82.490793) scale(-1, 1) translate(-20.568161, -82.490793) translate(0.068161, 66.990793)">
                        <path d="M0.194659054,17.3779028 C0.194659054,17.3779028 11.6135571,20.7060921 16.6449988,11.3498048 C23.9925532,-2.30595974 42.2278175,-4.87681619 40.3010228,11.3498048 C36.7707654,41.1167225 0.194659054,28.0111281 0.194659054,28.0111281 L0.194659054,17.3779028 Z" id="路径" fill="#BBB9F6"></path>
                    </g>
                    <g transform="translate(0.543287, 74.182564)" opacity="0.17578125">
                        <path d="M32.253132,22.8620725 C21.2657535,24.8237915 2.69247319,24.9412336 0.226185147,4.15832217 C0.0869942872,2.9665018 0.10004343,1.47890119 0.117442288,0.878641296 C0.147890288,-0.278381401 1.28316574,-0.809045946 8.26445728,14.354041 C14.1191728,27.0638918 32.253132,22.8620725 32.253132,22.8620725 Z" id="路径" fill="#3300FF"></path>
                    </g>
                    <g transform="translate(46.278656, 5.318484) rotate(-8.263768) translate(-46.278656, -5.318484) translate(45.278656, 0.818484)">
                        <path d="M0.832260201,0.328027929 C0.821778334,0.210467287 0.723248789,0.119636768 0.605851884,0.120920618 C0.488454979,0.12197241 0.392021807,0.214879055 0.387829061,0.332699213 C0.285106769,2.90787417 0.157227998,6.0835686 0.102722292,7.45043815 C0.0964331719,7.62716839 0.161420744,7.79974637 0.285106769,7.92794716 C0.408792794,8.05588843 0.578599031,8.12855285 0.754694389,8.12829402 C0.756790762,8.12829402 0.756790762,8.12829402 0.756790762,8.12829402 C0.930789746,8.12829402 1.09849961,8.05562892 1.21799289,7.92742813 C1.33538979,7.79922734 1.39618462,7.62716839 1.38151001,7.45225476 C1.27669134,6.08590425 1.03141566,2.90553852 0.832260201,0.328027929 Z" id="路径" fill="#9B92F9"></path>
                    </g>
                    <g transform="translate(68.470554, 70.260062) rotate(-8.263768) translate(-68.470554, -70.260062) translate(67.470554, 67.260062)">
                        <path d="M1.04818665,0.5382357 C1.03141566,0.333737276 0.859513054,0.175432658 0.65406847,0.177488597 C0.45072026,0.179844426 0.283010396,0.341263233 0.274624902,0.546021173 C0.205444584,2.3060571 0.138360638,3.96462237 0.102722292,4.85528048 C0.0964331719,5.03201072 0.161420744,5.2045887 0.285106769,5.33278949 C0.408792794,5.46073076 0.578599031,5.53339518 0.754694389,5.53313636 C0.756790762,5.53313636 0.756790762,5.53313636 0.756790762,5.53313636 C0.930789746,5.53313636 1.09849961,5.46047125 1.21799289,5.33227046 C1.33538979,5.20406967 1.39618462,5.03201072 1.38151001,4.85709709 C1.31232969,3.96566043 1.18445092,2.30242388 1.04818665,0.5382357 Z" id="路径" fill="#9B92F9"></path>
                    </g>
                    <g transform="translate(38.391952, 95.967864) rotate(-37.545385) translate(-38.391952, -95.967864) translate(37.391952, 92.467864)">
                        <path d="M0.574787356,0.182272588 C0.570063076,0.114042207 0.511796961,0.0614073424 0.444082286,0.061987348 C0.374792851,0.06277195 0.319676256,0.116576479 0.316526736,0.184806859 C0.236213982,2.1985778 0.12440603,5.03306275 0.078737994,6.17972303 C0.0724389544,6.31286974 0.122831271,6.44289736 0.215742103,6.53958955 C0.307078176,6.6360868 0.436208487,6.69067111 0.568488316,6.69067111 C0.570063076,6.69067111 0.571637836,6.69067111 0.571637836,6.69067111 C0.702342906,6.69067111 0.826748937,6.63647669 0.91493549,6.54095416 C1.0046968,6.44543163 1.04879008,6.31735346 1.03776676,6.18693596 C0.949580207,5.04456444 0.730688584,2.20052724 0.574787356,0.182272588 Z" id="路径" fill="#9B92F9"></path>
                    </g>
                    <g transform="translate(56.190957, 31.356125) rotate(0.581097) translate(-56.190957, -31.356125) translate(55.190957, 28.356125)">
                        <path d="M1.04751074,0.540122457 C1.03284559,0.335758816 0.858958804,0.179175238 0.653646699,0.183070352 C0.448334595,0.186965466 0.282827899,0.350300574 0.274447813,0.555183564 C0.205312104,2.31992982 0.138271417,3.9815854 0.102656052,4.86889234 C0.0963709877,5.04339344 0.161316653,5.21348008 0.282827899,5.33942209 C0.402244123,5.46536411 0.56984584,5.53651486 0.745827644,5.53651486 C0.745827644,5.53651486 0.745827644,5.53651486 0.745827644,5.53651486 C0.921809448,5.53651486 1.09150619,5.46250769 1.21301743,5.33241089 C1.33243366,5.20205441 1.39318928,5.02755331 1.38061915,4.85071514 C1.31148344,3.95665667 1.18368713,2.29863653 1.04751074,0.540122457 Z" id="路径" fill="#9B92F9"></path>
                    </g>
                    <g transform="translate(106.606604, 47.947004) rotate(0.581097) translate(-106.606604, -47.947004) translate(106.106604, 44.947004)">
                        <path d="M0.519457281,0.118041268 C0.513871719,0.0534820409 0.459412488,0.00415394492 0.395178523,0.00534366768 C0.330944558,0.00657707946 0.277881718,0.0579821479 0.275088937,0.122714456 C0.20526941,1.90510299 0.107522072,4.3330838 0.0684231365,5.32137652 C0.0642339649,5.43803314 0.107522072,5.55140122 0.188512723,5.63569169 C0.268106984,5.71980907 0.381214618,5.76723328 0.497115033,5.76723328 C0.498511423,5.76723328 0.499907814,5.76723328 0.499907814,5.76723328 C0.617204619,5.76723328 0.730312253,5.71825135 0.809906514,5.63223007 C0.889500775,5.54603571 0.92859971,5.43059066 0.920221367,5.31358788 C0.843419887,4.31941039 0.656303554,1.89627586 0.519457281,0.118041268 Z" id="路径" fill="#9B92F9"></path>
                    </g>
                    <g transform="translate(20.366597, 72.565073) rotate(0.581097) translate(-20.366597, -72.565073) translate(19.866597, 69.565073)">
                        <path d="M0.513871719,0.220159081 C0.509682548,0.158022988 0.456619707,0.110252621 0.393782133,0.111441647 C0.332340949,0.112675756 0.280674499,0.162350014 0.279278108,0.224659188 C0.208062191,2.01310556 0.108918462,4.49301067 0.0684231365,5.49445756 C0.0642339649,5.61111418 0.107522072,5.72448226 0.188512723,5.80877273 C0.268106984,5.89289011 0.381214618,5.94031432 0.497115033,5.94031432 C0.498511423,5.94031432 0.499907814,5.94031432 0.499907814,5.94031432 C0.617204619,5.94031432 0.730312253,5.89133238 0.809906514,5.80531111 C0.889500775,5.71911675 0.92859971,5.6036717 0.920221367,5.48666892 C0.842023496,4.47933727 0.652114383,2.00427842 0.513871719,0.220159081 Z" id="路径" fill="#9B92F9"></path>
                    </g>
                    <g transform="translate(57.606400, 109.263802) rotate(0.581097) translate(-57.606400, -109.263802) translate(57.106400, 106.263802)">
                        <path d="M0.511078938,0.184504387 C0.506889766,0.12340678 0.455223316,0.076501819 0.393782133,0.0776904378 C0.332340949,0.0789249535 0.282070889,0.127733806 0.280674499,0.189004494 C0.208062191,1.98004708 0.108918462,4.48626051 0.0684231365,5.49445756 C0.0642339649,5.61111418 0.107522072,5.72448226 0.188512723,5.80877273 C0.268106984,5.89289011 0.381214618,5.94031432 0.497115033,5.94031432 C0.498511423,5.94031432 0.499907814,5.94031432 0.499907814,5.94031432 C0.617204619,5.94031432 0.730312253,5.89133238 0.809906514,5.80531111 C0.889500775,5.71911675 0.92859971,5.6036717 0.920221367,5.48666892 C0.842023496,4.47258711 0.649321602,1.97121995 0.511078938,0.184504387 Z" id="路径" fill="#9B92F9"></path>
                    </g>
                    <g transform="translate(42.419876, 124.554361) rotate(0.581097) translate(-42.419876, -124.554361) translate(41.919876, 123.554361)">
                        <path d="M0.868554917,0.484973069 C0.85179823,0.280391282 0.680042194,0.123926023 0.474772784,0.127906887 C0.269503374,0.13171467 0.1033329,0.294930089 0.0949545568,0.499858039 C0.085179823,0.761383488 0.0754050892,0.988119648 0.0684231365,1.1674316 C0.0642339649,1.28408822 0.107522072,1.3974563 0.188512723,1.48174677 C0.268106984,1.56586415 0.381214618,1.61328836 0.497115033,1.61328836 C0.498511423,1.61328836 0.499907814,1.61328836 0.499907814,1.61328836 C0.617204619,1.61328836 0.730312253,1.56430642 0.809906514,1.47828515 C0.889500775,1.39209079 0.92859971,1.27664574 0.920221367,1.15964296 C0.906257461,0.978080948 0.888104384,0.749094734 0.868554917,0.484973069 Z" id="路径" fill="#9B92F9"></path>
                    </g>
                    <g transform="translate(59.628009, 12.281036) rotate(9.137851) translate(-59.628009, -12.281036) translate(58.628009, 9.281036)">
                        <path d="M1.04833482,0.532713906 C1.03156146,0.328243103 0.859634551,0.173333117 0.654160927,0.179041693 C0.448687302,0.184750269 0.283050401,0.349261041 0.274663723,0.554250806 C0.205473624,2.31846018 0.138380196,3.97965571 0.102736812,4.86604183 C0.0964468033,5.04093183 0.161443562,5.21037274 0.280953731,5.33596141 C0.400463901,5.46155007 0.568197472,5.53238831 0.744317721,5.53238831 C0.744317721,5.53238831 0.744317721,5.53238831 0.744317721,5.53238831 C0.92253464,5.53238831 1.09236488,5.45817682 1.21187505,5.32739854 C1.33348189,5.19687974 1.39428531,5.02198974 1.38170529,4.84528338 C1.31251519,3.95033439 1.18461835,2.29121471 1.04833482,0.532713906 Z" id="路径" fill="#9B92F9"></path>
                    </g>
                    <g transform="translate(83.923129, 49.474463) rotate(9.137851) translate(-83.923129, -49.474463) translate(82.923129, 44.474463)">
                        <path d="M0.735931043,0.381696131 C0.729641034,0.302813993 0.662547605,0.242873948 0.582874159,0.244897477 C0.503200713,0.247285121 0.440300624,0.310857896 0.436107285,0.389999513 C0.329177133,3.0891179 0.165636901,7.16919265 0.102736812,8.75825255 C0.0964468033,8.93314255 0.161443562,9.10258345 0.280953731,9.22817212 C0.400463901,9.35376079 0.568197472,9.42459902 0.744317721,9.42459902 C0.744317721,9.42459902 0.744317721,9.42459902 0.744317721,9.42459902 C0.92253464,9.42459902 1.09236488,9.35038754 1.21187505,9.21960926 C1.33348189,9.08909046 1.39428531,8.91420046 1.38170529,8.73749409 C1.25800178,7.13234639 0.943501337,3.06887841 0.735931043,0.381696131 Z" id="路径" fill="#9B92F9"></path>
                    </g>
                    <g transform="translate(52.116811, 49.995076) rotate(9.137851) translate(-52.116811, -49.995076) translate(51.116811, 46.995076)">
                        <path d="M1.04833482,0.532713906 C1.03156146,0.328243103 0.859634551,0.173333117 0.654160927,0.179041693 C0.448687302,0.184750269 0.283050401,0.349261041 0.274663723,0.554250806 C0.205473624,2.31846018 0.138380196,3.97965571 0.102736812,4.86604183 C0.0964468033,5.04093183 0.161443562,5.21037274 0.280953731,5.33596141 C0.400463901,5.46155007 0.568197472,5.53238831 0.744317721,5.53238831 C0.744317721,5.53238831 0.744317721,5.53238831 0.744317721,5.53238831 C0.92253464,5.53238831 1.09236488,5.45817682 1.21187505,5.32739854 C1.33348189,5.19687974 1.39428531,5.02198974 1.38170529,4.84528338 C1.31251519,3.95033439 1.18461835,2.29121471 1.04833482,0.532713906 Z" id="路径" fill="#9B92F9"></path>
                    </g>
                    <g transform="translate(72.450553, 36.435729) rotate(18.083025) translate(-72.450553, -36.435729) translate(71.450553, 32.435729)">
                        <path d="M0.641818517,0.314170018 C0.63647003,0.240570748 0.574071007,0.184986822 0.49919218,0.187623213 C0.426096182,0.190259605 0.365479989,0.250237517 0.36369716,0.324276186 C0.270990041,2.59970197 0.140843508,5.87388083 0.0873586315,7.18526603 C0.0820101439,7.33641916 0.13727785,7.4827389 0.240681944,7.59083096 C0.344086038,7.69914272 0.488495205,7.75999943 0.640035688,7.75999943 C0.641818517,7.75999943 0.641818517,7.75999943 0.643601347,7.75999943 C0.791576171,7.75999943 0.932419679,7.69782453 1.03404094,7.58863397 C1.13566221,7.47944341 1.18558143,7.33356307 1.17488445,7.18680393 C1.07326319,5.87453993 0.81831861,2.590914 0.641818517,0.314170018 Z" id="路径" fill="#9B92F9"></path>
                    </g>
                    <g transform="translate(52.391820, 80.921511) rotate(18.083074) translate(-52.391820, -80.921511) translate(51.891820, 77.921511)">
                        <path d="M0.511203514,0.164307401 C0.507001842,0.103555085 0.455181211,0.0579908475 0.394957236,0.0600619492 C0.333332703,0.0623056427 0.284313187,0.1116669 0.281512072,0.172591808 C0.210083636,1.95080521 0.110644048,4.44613757 0.0700278787,5.46408405 C0.0644256484,5.58507091 0.109243491,5.70191556 0.191876388,5.78838406 C0.274509284,5.87485255 0.389355005,5.92352344 0.511203514,5.92352344 C0.511203514,5.92352344 0.512604072,5.92352344 0.512604072,5.92352344 C0.627449793,5.92352344 0.736693284,5.87554292 0.815124508,5.79114553 C0.893555732,5.70674813 0.932771344,5.59387309 0.924367999,5.48030768 C0.845936775,4.47133597 0.649858714,1.95253112 0.511203514,0.164307401 Z" id="路径" fill="#9B92F9"></path>
                    </g>
                    <g transform="translate(78.406166, 18.349279) rotate(33.368747) translate(-78.406166, -18.349279) translate(77.406166, 13.849279)">
                        <path d="M0.799125965,0.334392422 C0.790669606,0.232195508 0.703991922,0.155740889 0.600401519,0.160631926 C0.498925206,0.165265539 0.414361612,0.249185423 0.410133432,0.352154606 C0.304428939,2.96654217 0.164899009,6.42527703 0.105704493,7.88306324 C0.0972481333,8.06634838 0.164899009,8.24319796 0.28963031,8.3737114 C0.414361612,8.50422483 0.58771698,8.57759038 0.771642797,8.57759038 C0.771642797,8.57759038 0.771642797,8.57759038 0.771642797,8.57759038 C0.944998165,8.57759038 1.10989717,8.50473968 1.22828621,8.37705789 C1.34667524,8.24911868 1.40586975,8.07870469 1.39318521,7.90751842 C1.28113845,6.46131624 1.00630677,2.9657699 0.799125965,0.334392422 Z" id="路径" fill="#9B92F9"></path>
                    </g>
                    <g transform="translate(84.645580, 67.652073) rotate(33.368760) translate(-84.645580, -67.652073) translate(83.645580, 64.652073)">
                        <path d="M0.640122531,0.187802189 C0.633768957,0.0945780336 0.554349289,0.0251434445 0.460634079,0.0295919001 C0.36691887,0.0338469445 0.290675988,0.110244334 0.287499201,0.203855312 C0.211256319,2.08903342 0.119129503,4.35213683 0.0794196688,5.34955794 C0.0730660953,5.48552595 0.12230629,5.61646527 0.216021499,5.71317083 C0.308148315,5.81006979 0.436808179,5.86441832 0.573410009,5.86441832 C0.573410009,5.86441832 0.574998402,5.86441832 0.576586796,5.86441832 C0.706835053,5.86441832 0.83231813,5.80929615 0.921268159,5.71239718 C1.01180658,5.61569163 1.0562816,5.486493 1.04675124,5.35690756 C0.96891996,4.36045351 0.789431508,2.08071674 0.640122531,0.187802189 Z" id="路径" fill="#9B92F9"></path>
                    </g>
                    <g transform="translate(120.754436, 47.380433) rotate(42.688456) translate(-120.754436, -47.380433) translate(119.754436, 43.880433)">
                        <path d="M0.658572239,0.227533138 C0.651747657,0.139608568 0.576677246,0.0743343553 0.48795767,0.0786585145 C0.399238093,0.0827767613 0.327579974,0.155051993 0.324167683,0.243388388 C0.238860398,2.3191907 0.131373219,4.98204911 0.0853072849,6.11086056 C0.0784827021,6.25458738 0.131373219,6.39316638 0.228623523,6.49550482 C0.325873828,6.59784325 0.462365484,6.65529279 0.607387868,6.65529279 C0.607387868,6.65529279 0.607387868,6.65529279 0.609094014,6.65529279 C0.750704107,6.65529279 0.888901908,6.59475457 0.986152213,6.48870971 C1.08510866,6.38266485 1.13458689,6.24120308 1.12264387,6.09953538 C1.03221815,4.96145787 0.822362226,2.29880538 0.658572239,0.227533138 Z" id="路径" fill="#9B92F9"></path>
                    </g>
                    <g transform="translate(64.372316, 93.125118) rotate(42.688405) translate(-64.372316, -93.125118) translate(63.872316, 89.625118)">
                        <path d="M0.502472323,0.15083832 C0.498226078,0.0954910772 0.450101968,0.0543222943 0.394900784,0.0568846667 C0.339699599,0.0596178639 0.294406319,0.105057267 0.291575489,0.160916985 C0.219389324,1.92707485 0.1132332,4.53300756 0.0707707497,5.57691806 C0.0651090898,5.69752039 0.108986955,5.81385209 0.191081024,5.89960615 C0.273175094,5.98553104 0.387823709,6.03370408 0.508133983,6.03370408 C0.509549398,6.03370408 0.509549398,6.03370408 0.510964813,6.03370408 C0.627028843,6.03387447 0.740262042,5.98416444 0.820940697,5.89738543 C0.900203937,5.8104356 0.941250972,5.69461636 0.932758482,5.57845548 C0.849248997,4.53369085 0.642598408,1.91819196 0.502472323,0.15083832 Z" id="路径" fill="#9B92F9"></path>
                    </g>
                    <g transform="translate(97.439533, 75.830627) rotate(42.688405) translate(-97.439533, -75.830627) translate(96.939533, 72.830627)">
                        <path d="M0.543519358,0.157158839 C0.537857698,0.0852415877 0.476994853,0.0319442423 0.404808689,0.0353607388 C0.332622524,0.0389480601 0.273175094,0.0980534495 0.270344264,0.17031235 C0.199573514,1.89376401 0.108986955,4.11926983 0.0707707497,5.06444359 C0.0651090898,5.18504591 0.108986955,5.30137762 0.191081024,5.38713168 C0.273175094,5.47305657 0.387823709,5.52122961 0.508133983,5.52122961 C0.509549398,5.52122961 0.509549398,5.52122961 0.510964813,5.52122961 C0.627028843,5.52139999 0.740262042,5.47168997 0.820940697,5.38491096 C0.900203937,5.29796112 0.941250972,5.18214189 0.932758482,5.06598101 C0.857741487,4.11944065 0.679399198,1.88351452 0.543519358,0.157158839 Z" id="路径" fill="#9B92F9"></path>
                    </g>
                    <g transform="translate(14.310456, 84.171631) rotate(42.688405) translate(-14.310456, -84.171631) translate(13.810456, 81.171631)">
                        <path d="M0.553427263,0.27827364 C0.546350188,0.202598242 0.482656513,0.14622605 0.406224104,0.149984196 C0.331207109,0.153571518 0.268928849,0.215751754 0.266098019,0.291939626 C0.195327269,1.99711303 0.10757154,4.14130623 0.0707707497,5.06444359 C0.0651090898,5.18504591 0.108986955,5.30137762 0.191081024,5.38713168 C0.273175094,5.47305657 0.387823709,5.52122961 0.508133983,5.52122961 C0.509549398,5.52122961 0.509549398,5.52122961 0.510964813,5.52122961 C0.627028843,5.52139999 0.740262042,5.47168997 0.820940697,5.38491096 C0.900203937,5.29796112 0.941250972,5.18214189 0.932758482,5.06598101 C0.859156902,4.14130623 0.687891688,1.98669271 0.553427263,0.27827364 Z" id="路径" fill="#9B92F9"></path>
                    </g>
                    <g transform="translate(116.612157, 73.981836) rotate(103.722988) translate(-116.612157, -73.981836) translate(116.112157, 70.981836)">
                        <path d="M0.57255496,0.25097948 C0.565380085,0.16945326 0.496501293,0.106287283 0.414707728,0.1067896 C0.332914162,0.107297939 0.26690532,0.171306129 0.26403537,0.253000792 C0.193721603,1.90828626 0.109058088,3.93212415 0.0717487418,4.82082734 C0.0660088425,4.93907404 0.110493062,5.05496256 0.193721603,5.14103673 C0.275515169,5.2271109 0.390313155,5.27579081 0.507981092,5.27579081 C0.509416067,5.27579081 0.509416067,5.27579081 0.509416067,5.27579081 C0.631388928,5.27579081 0.74762189,5.22508959 0.829415455,5.13581501 C0.912643996,5.04654043 0.952823291,4.92677773 0.942778467,4.80482529 C0.869594751,3.90769998 0.706007619,1.89700061 0.57255496,0.25097948 Z" id="路径" fill="#9B92F9"></path>
                    </g>
                    <g transform="translate(35.297128, 35.150428) rotate(-29.924481) translate(-35.297128, -35.150428) translate(34.297128, 30.150428)">
                        <path d="M0.757782111,0.333610478 C0.75144967,0.247243005 0.677571191,0.179695907 0.591027831,0.179177314 C0.50448447,0.178664653 0.434827618,0.245438312 0.432716804,0.331547971 C0.322954493,3.00017398 0.166754281,6.87356179 0.105540684,8.42559817 C0.0970974293,8.60194251 0.164643467,8.77519308 0.287070661,8.90409976 C0.411608668,9.03326425 0.582584576,9.1062261 0.759892925,9.1062261 C0.759892925,9.1062261 0.759892925,9.1062261 0.759892925,9.1062261 C0.937201274,9.10648324 1.10606637,9.03326425 1.22638275,8.90384194 C1.34458831,8.77467745 1.4036911,8.60091125 1.39102622,8.42302004 C1.26859902,6.86943678 0.966752666,3.0004318 0.757782111,0.333610478 Z" id="路径" fill="#9B92F9"></path>
                    </g>
                    <g transform="translate(79.970800, 83.436262) rotate(107.153604) translate(-79.970800, -83.436262) translate(78.970800, 80.436262)">
                        <path d="M1.06258416,0.362482646 C1.04537632,0.158349014 0.873297912,-0.000252953696 0.668954805,0.000251746783 C0.464611697,0.000758861088 0.298986231,0.160625597 0.290382311,0.36475923 C0.215098008,2.11949902 0.146266645,3.79329362 0.107549004,4.698109 C0.101096064,4.87871793 0.167776446,5.05553257 0.294684271,5.18706849 C0.419441116,5.31885737 0.593670502,5.39322639 0.774352829,5.39322639 C0.776503809,5.39322639 0.776503809,5.39322639 0.776503809,5.39322639 C0.957186136,5.39347871 1.12711356,5.31885737 1.24971943,5.1875744 C1.37017431,5.05629143 1.43040175,4.8799827 1.41534489,4.70063853 C1.34221157,3.79582316 1.20454884,2.11949902 1.06258416,0.362482646 Z" id="路径" fill="#9B92F9"></path>
                    </g>
                    <g transform="translate(118.034116, 60.588187) rotate(70.415715) translate(-118.034116, -60.588187) translate(117.034116, 57.588187)">
                        <path d="M0.658924856,0.245985107 C0.650829956,0.149076114 0.568261976,0.0736812976 0.471123177,0.0738713287 C0.373984378,0.0742524704 0.294654358,0.150028068 0.291416398,0.247127453 C0.213705359,2.08344816 0.123042479,4.26894588 0.0809489995,5.25041122 C0.0760920595,5.38615997 0.126280439,5.51905285 0.220181279,5.61805615 C0.315701098,5.71686905 0.446838477,5.77303438 0.582832796,5.77284447 C0.582832796,5.77284447 0.584451776,5.77284447 0.586070756,5.77284447 C0.720446095,5.77303438 0.848345515,5.71686905 0.940627374,5.61824654 C1.03129025,5.51943363 1.07662169,5.38673114 1.06528883,5.25174396 C0.985958814,4.27065939 0.807871015,2.08344816 0.658924856,0.245985107 Z" id="路径" fill="#9B92F9"></path>
                    </g>
                    <g transform="translate(100.852365, 61.913945) scale(-1, 1) rotate(67.650361) translate(-100.852365, -61.913945) translate(99.852365, 57.913945)">
                        <path d="M0.630083422,0.205925106 C0.62477373,0.135960694 0.564597223,0.0837484456 0.493801333,0.0864634825 C0.424775341,0.0893873684 0.366368731,0.146403143 0.364598834,0.216576404 C0.274334074,2.36813872 0.14159178,5.52363813 0.0884948626,6.80471785 C0.0831851708,6.95529797 0.136282088,7.10086572 0.240706026,7.2086318 C0.343360067,7.31618903 0.486721744,7.37675523 0.637163011,7.37675523 C0.637163011,7.37675523 0.638932908,7.37675523 0.640702805,7.37675523 C0.78583438,7.37675523 0.925656263,7.31514478 1.02654041,7.20675215 C1.12565465,7.09856838 1.17698167,6.95383603 1.16459239,6.80868598 C1.06016845,5.52823281 0.803533352,2.35999361 0.630083422,0.205925106 Z" id="路径" fill="#9B92F9"></path>
                    </g>
                    <g transform="translate(66.868118, 124.053788) rotate(-29.924498) translate(-66.868118, -124.053788) translate(65.868118, 122.053788)">
                        <path d="M0.955706737,0.509499659 C0.940096282,0.304640544 0.766646783,0.144058116 0.561976375,0.142779431 C0.357305967,0.141515913 0.190794448,0.300191691 0.182121973,0.504627105 C0.142228589,1.48930669 0.107538689,2.35365539 0.0867247493,2.88878892 C0.0797867693,3.03602478 0.135290609,3.1809303 0.239360308,3.28876204 C0.343430007,3.39659377 0.485658596,3.45760662 0.63309067,3.45760662 C0.634825165,3.45760662 0.634825165,3.45760662 0.63655966,3.45760662 C0.778788248,3.45760662 0.915813352,3.39892413 1.01121058,3.29490569 C1.1066078,3.19088726 1.15517366,3.05106615 1.1430322,2.90806728 C1.10140432,2.37547596 1.03375901,1.50392436 0.955706737,0.509499659 Z" id="路径" fill="#9B92F9"></path>
                    </g>
                    <g transform="translate(6.441544, 68.477173) rotate(-29.924473) translate(-6.441544, -68.477173) translate(5.941544, 65.977173)">
                        <path d="M0.579551385,0.145183432 C0.572535025,0.0660205809 0.498161602,0.00386537359 0.409755459,0.00339689636 C0.322752587,0.00278306899 0.251185709,0.0641652016 0.248379165,0.143173438 C0.182425376,1.61727231 0.105245409,3.3378274 0.070163606,4.11492211 C0.0645505175,4.22330719 0.110858497,4.32983688 0.195054825,4.40915435 C0.279251152,4.48847181 0.395722738,4.53346476 0.51640414,4.53346476 C0.517807412,4.53346476 0.517807412,4.53346476 0.519210684,4.53346476 C0.634278998,4.53346476 0.742330951,4.49110027 0.819510918,4.41595741 C0.896690884,4.34096916 0.934579232,4.2400056 0.926159599,4.13672282 C0.858802537,3.37076039 0.70865242,1.63273381 0.579551385,0.145183432 Z" id="路径" fill="#9B92F9"></path>
                    </g>
                    <g transform="translate(34.818761, 61.518180) rotate(-77.681131) translate(-34.818761, -61.518180) translate(33.818761, 56.518180)">
                        <path d="M0.671919375,0.0917052421 C0.6676122,0.0447157792 0.626694033,0.00808420867 0.579315102,0.00858430751 C0.531936172,0.00884210324 0.49532518,0.0459789368 0.493171593,0.0929683997 C0.389799381,2.5510731 0.183054958,7.45717724 0.107679387,9.25414525 C0.0990650361,9.43098731 0.165826256,9.60378727 0.288580757,9.73237672 C0.411335258,9.86096616 0.58146869,9.93372404 0.760216472,9.93372404 C0.760216472,9.93372404 0.760216472,9.93372404 0.760216472,9.93372404 C0.945425018,9.93372404 1.11986563,9.85742932 1.24477371,9.72252409 C1.36752822,9.58787149 1.42998226,9.40698732 1.41490715,9.22307157 C1.26630959,7.40084041 0.870049447,2.53515731 0.671919375,0.0917052421 Z" id="路径" fill="#9B92F9"></path>
                    </g>
                    <g transform="translate(23.969888, 92.411255) rotate(-53.990232) translate(-23.969888, -92.411255) translate(22.969888, 88.411255)">
                        <path d="M0.613468779,0.127739019 C0.608240352,0.0611649376 0.552470463,0.00894589223 0.48624372,0.00831925127 C0.418274167,0.0079056722 0.364247087,0.0592925415 0.362504278,0.125658579 C0.273621018,2.27662555 0.139424722,5.50442829 0.0871404515,6.79055633 C0.0801692154,6.93493887 0.135939104,7.07682488 0.237022028,7.18251124 C0.338104952,7.28840564 0.477529674,7.34832231 0.622182824,7.34832231 C0.622182824,7.34832231 0.623925633,7.34832231 0.623925633,7.34832231 C0.772064401,7.34832231 0.911489123,7.28757346 1.01082924,7.18001471 C1.10842654,7.072664 1.15896801,6.92786538 1.14676834,6.77994609 C1.04394261,5.48716064 0.786006873,2.27267271 0.613468779,0.127739019 Z" id="路径" fill="#9B92F9"></path>
                    </g>
                    <g transform="translate(6.457197, 91.078278) rotate(-77.681131) translate(-6.457197, -91.078278) translate(5.957197, 88.078278)">
                        <path d="M0.548334382,0.292150013 C0.542592661,0.220249116 0.482304588,0.164681679 0.409097641,0.16518342 C0.337326125,0.165691996 0.278473482,0.22226975 0.275602621,0.294170647 C0.203831105,1.99369231 0.111963565,4.20780211 0.071771516,5.15211178 C0.067465225,5.27132919 0.110528135,5.3881892 0.193783093,5.47490808 C0.277038052,5.56179534 0.391872477,5.61079572 0.512448624,5.61079572 C0.512448624,5.61079572 0.512448624,5.61079572 0.513884055,5.61079572 C0.634460201,5.61079572 0.749294627,5.56061664 0.831114155,5.47204551 C0.912933684,5.383306 0.953125732,5.26442536 0.944513151,5.14352408 C0.866999913,4.19416283 0.686135693,1.98695686 0.548334382,0.292150013 Z" id="路径" fill="#9B92F9"></path>
                    </g>
                    <g transform="translate(34.389735, 80.561563) rotate(-77.681131) translate(-34.389735, -80.561563) translate(33.889735, 77.561563)">
                        <path d="M0.554076104,0.201389865 C0.548334382,0.126963176 0.485175448,0.0693751039 0.410533072,0.0698769645 C0.335890695,0.0705538071 0.275602621,0.12898381 0.272731761,0.203578885 C0.202395675,1.89215544 0.110528135,4.05372876 0.071771516,4.98372561 C0.067465225,5.10294302 0.110528135,5.21980302 0.193783093,5.3065219 C0.277038052,5.39340917 0.391872477,5.44240954 0.512448624,5.44240954 C0.512448624,5.44240954 0.512448624,5.44240954 0.513884055,5.44240954 C0.634460201,5.44240954 0.749294627,5.39223046 0.831114155,5.30365934 C0.912933684,5.21491982 0.953125732,5.09603918 0.944513151,4.97513791 C0.866999913,4.04025787 0.691877414,1.88525161 0.554076104,0.201389865 Z" id="路径" fill="#9B92F9"></path>
                    </g>
                </g>
            </g>
            <g id="编组备份-2" mask="url(#mask-2)">
                <g transform="translate(18.000000, 66.510949)" id="编组">
                    <g transform="translate(20.735453, 2.661487)">
                        <path d="M22.5010559,69.3532818 C21.1677921,72.334596 18.2080652,74.2534857 14.9432527,74.2534857 C12.6531294,74.3289362 10.0816934,74.3289362 8.09269355,74.3289362 C6.14925846,74.3289362 4.51090899,72.8749847 4.28110423,70.945899 C2.79133543,58.9859756 -1.91570004,18.9013693 0.921200123,9.14276504 C3.22915312,1.19986683 12.2648386,-4.56434727 24.7911792,5.28438972 C38.1040068,15.7508012 27.2952587,55.2827836 22.5010559,69.3532818 Z" id="路径" fill="#BBB9F6"></path>
                    </g>
                    <g transform="translate(20.717531, 5.366195)" opacity="0.17578125">
                        <path d="M4.83182175,0.164542931 C10.219956,-2.77894728 9.59573682,59.4052217 7.4383937,71.6231873 L5.46387627,71.6231873 C5.04860078,71.6231873 4.69600838,71.3149957 4.64377247,70.9023325 C3.81060969,64.4851582 -2.17823748,17.1594771 0.937634599,6.43806865 C1.58535989,4.21282139 3.19161415,1.56446374 4.83182175,0.164542931 Z" id="路径" fill="#3300FF"></path>
                    </g>
                    <g transform="translate(46.489435, 26.520158)">
                        <path d="M0.0931105501,13.6606185 C0.0931105501,13.6606185 14.2360088,16.5216198 14.7708992,8.89704112 C15.3632408,0.473095012 26.8732896,-5.75462985 28.9752108,8.89704112 C28.9752108,26.8461028 0.0931105501,19.7007367 0.0931105501,19.7007367 L0.0931105501,13.6606185 Z" id="路径" fill="#BBB9F6"></path>
                    </g>
                    <g transform="translate(12.701134, 49.724769) scale(-1, 1) translate(-12.701134, -49.724769) translate(0.201134, 40.224769)">
                        <path d="M0.116883456,10.4345999 C0.116883456,10.4345999 6.97338588,12.4330185 9.99452607,6.81501522 C14.4063813,-1.38461859 25.3557858,-2.92829499 24.1988376,6.81501522 C22.0790868,24.6886264 0.116883456,16.8193434 0.116883456,16.8193434 L0.116883456,10.4345999 Z" id="路径" fill="#BBB9F6"></path>
                    </g>
                    <g transform="translate(0.867885, 44.543083)" opacity="0.17578125">
                        <path d="M19.3664639,13.7275817 C12.7690684,14.9055001 1.61670144,14.9760185 0.135813368,2.49687368 C0.0522359108,1.78124252 0.0600712974,0.888009469 0.0705184796,0.527582096 C0.0888010484,-0.167154724 0.770479685,-0.485793415 4.96241153,8.61891543 C8.47788833,16.2505733 19.3664639,13.7275817 19.3664639,13.7275817 Z" id="路径" fill="#3300FF"></path>
                    </g>
                    <g transform="translate(28.201340, 3.007997) rotate(-8.263768) translate(-28.201340, -3.007997) translate(27.701340, 0.507997)">
                        <path d="M0.499732465,0.196965091 C0.493438606,0.126375545 0.434276324,0.0718361604 0.363785095,0.0726070504 C0.293293865,0.0732386017 0.235390355,0.1290246 0.232872811,0.199769973 C0.171192986,1.74603943 0.0944078965,3.65289213 0.0616798257,4.47363195 C0.0579035099,4.57975001 0.0969254404,4.68337484 0.171192986,4.76035328 C0.245460531,4.8371759 0.347421059,4.88080741 0.453157903,4.880652 C0.454416675,4.880652 0.454416675,4.880652 0.454416675,4.880652 C0.558894747,4.880652 0.659596504,4.83702008 0.731346505,4.76004163 C0.801837734,4.68306319 0.838342121,4.57975001 0.829530717,4.47472274 C0.76659212,3.65429457 0.619315801,1.74463699 0.499732465,0.196965091 Z" id="路径" fill="#9B92F9"></path>
                    </g>
                    <g transform="translate(41.584103, 42.398827) rotate(-8.263768) translate(-41.584103, -42.398827) translate(41.084103, 40.398827)">
                        <path d="M0.629385977,0.323184808 C0.619315801,0.20039328 0.516096501,0.105338925 0.392736849,0.106573418 C0.27063597,0.107987981 0.169934214,0.204912258 0.164899126,0.327859613 C0.123359651,1.38467705 0.0830789489,2.38056621 0.0616798257,2.91536383 C0.0579035099,3.02148189 0.0969254404,3.12510672 0.171192986,3.20208516 C0.245460531,3.27890778 0.347421059,3.32253929 0.453157903,3.32238388 C0.454416675,3.32238388 0.454416675,3.32238388 0.454416675,3.32238388 C0.558894747,3.32238388 0.659596504,3.27875195 0.731346505,3.20177351 C0.801837734,3.12479506 0.838342121,3.02148189 0.829530717,2.91645462 C0.787991243,2.38118952 0.711206154,1.38249548 0.629385977,0.323184808 Z" id="路径" fill="#9B92F9"></path>
                    </g>
                    <g transform="translate(23.783236, 58.077396) rotate(-37.545385) translate(-23.783236, -58.077396) translate(23.283236, 55.577396)">
                        <path d="M0.46017644,0.109445976 C0.456394168,0.0684768939 0.409746146,0.0368721736 0.355533579,0.0372204392 C0.300060254,0.0376915553 0.255933746,0.0699986026 0.253412232,0.110967684 C0.189113606,1.32014087 0.0995998323,3.02211358 0.0630378686,3.71062827 C0.0579948391,3.7905765 0.0983390749,3.86865187 0.17272376,3.92671091 C0.245847687,3.9846529 0.349229792,4.01742816 0.455133411,4.01742816 C0.456394168,4.01742816 0.457654926,4.01742816 0.457654926,4.01742816 C0.562297788,4.01742816 0.66189762,3.98488701 0.732500033,3.92753029 C0.804363203,3.87017358 0.839664409,3.79326876 0.830839108,3.71495928 C0.760236695,3.0290198 0.58499142,1.32131142 0.46017644,0.109445976 Z" id="路径" fill="#9B92F9"></path>
                    </g>
                    <g transform="translate(34.179189, 19.025468) rotate(0.581097) translate(-34.179189, -19.025468) translate(33.679189, 17.025468)">
                        <path d="M0.628980122,0.324317715 C0.620174401,0.201607118 0.5157637,0.107586165 0.392483596,0.109924995 C0.269203492,0.112263825 0.169824633,0.210338749 0.164792792,0.33336119 C0.123280104,1.39300696 0.0830253761,2.3907517 0.061640052,2.9235371 C0.0578661712,3.02831667 0.0968629388,3.13044556 0.169824633,3.20606772 C0.241528367,3.28168988 0.342165187,3.32441251 0.447833847,3.32441251 C0.447833847,3.32441251 0.447833847,3.32441251 0.447833847,3.32441251 C0.553502508,3.32441251 0.655397287,3.27997474 0.728358982,3.20185783 C0.800062716,3.123585 0.836543563,3.01880543 0.828995801,2.91262256 C0.787483113,2.37578319 0.710747538,1.38022135 0.628980122,0.324317715 Z" id="路径" fill="#9B92F9"></path>
                    </g>
                    <g transform="translate(64.751592, 28.989275) rotate(0.581097) translate(-64.751592, -28.989275) translate(64.251592, 26.989275)">
                        <path d="M0.415879021,0.0708781387 C0.411407203,0.0321134089 0.367806983,0.00249424535 0.316381083,0.003208617 C0.264955183,0.00394922181 0.222472917,0.034815508 0.220237008,0.0736841648 C0.16433929,1.14392327 0.0860824855,2.60180968 0.0547797635,3.19523222 C0.0514259004,3.26527895 0.0860824855,3.33335106 0.150923838,3.38396345 C0.214647236,3.43447192 0.305201539,3.46294789 0.397991751,3.46294789 C0.399109705,3.46294789 0.40022766,3.46294789 0.40022766,3.46294789 C0.494135826,3.46294789 0.584690129,3.43353658 0.648413527,3.38188492 C0.712136925,3.33012932 0.743439647,3.26081009 0.736731921,3.19055551 C0.675244431,2.59359946 0.525438548,1.138623 0.415879021,0.0708781387 Z" id="路径" fill="#9B92F9"></path>
                    </g>
                    <g transform="translate(12.968590, 43.771249) rotate(0.581097) translate(-12.968590, -43.771249) translate(12.468590, 41.771249)">
                        <path d="M0.411407203,0.132195004 C0.40805334,0.0948852502 0.365571075,0.0662014287 0.315263129,0.0669153815 C0.266073137,0.0676564052 0.224708826,0.0974834225 0.223590871,0.134897103 C0.166575199,1.20877365 0.0872004398,2.69783813 0.0547797635,3.29915911 C0.0514259004,3.36920584 0.0860824855,3.43727795 0.150923838,3.48789034 C0.214647236,3.53839881 0.305201539,3.56687478 0.397991751,3.56687478 C0.399109705,3.56687478 0.40022766,3.56687478 0.40022766,3.56687478 C0.494135826,3.56687478 0.584690129,3.53746347 0.648413527,3.48581181 C0.712136925,3.43405621 0.743439647,3.36473698 0.736731921,3.2944824 C0.674126477,2.6896279 0.522084685,1.20347338 0.411407203,0.132195004 Z" id="路径" fill="#9B92F9"></path>
                    </g>
                    <g transform="translate(35.329312, 65.807082) rotate(0.581097) translate(-35.329312, -65.807082) translate(34.829312, 63.807082)">
                        <path d="M0.409171295,0.110786064 C0.405817431,0.0740998723 0.36445312,0.0459356852 0.315263129,0.046649394 C0.266073137,0.0473906617 0.22582678,0.0766980446 0.224708826,0.113488163 C0.166575199,1.18892362 0.0872004398,2.69378498 0.0547797635,3.29915911 C0.0514259004,3.36920584 0.0860824855,3.43727795 0.150923838,3.48789034 C0.214647236,3.53839881 0.305201539,3.56687478 0.397991751,3.56687478 C0.399109705,3.56687478 0.40022766,3.56687478 0.40022766,3.56687478 C0.494135826,3.56687478 0.584690129,3.53746347 0.648413527,3.48581181 C0.712136925,3.43405621 0.743439647,3.36473698 0.736731921,3.2944824 C0.674126477,2.68557476 0.519848776,1.18362335 0.409171295,0.110786064 Z" id="路径" fill="#9B92F9"></path>
                    </g>
                    <g transform="translate(36.214712, 7.554345) rotate(9.137851) translate(-36.214712, -7.554345) translate(35.714712, 5.554345)">
                        <path d="M0.629474944,0.319869235 C0.619403345,0.197094292 0.516169454,0.104078251 0.392792365,0.107505978 C0.269415276,0.110933705 0.169958235,0.209714559 0.164922435,0.332801114 C0.123377089,1.39212451 0.0830906927,2.38959301 0.0616885446,2.92182551 C0.0579116949,3.02683859 0.0969391414,3.12857976 0.168699285,3.20398975 C0.240459429,3.27939974 0.34117542,3.32193471 0.446927211,3.32193471 C0.446927211,3.32193471 0.446927211,3.32193471 0.446927211,3.32193471 C0.553937951,3.32193471 0.655912892,3.27737426 0.727673036,3.19884816 C0.800692129,3.12047786 0.837201676,3.01546477 0.829647977,2.90936105 C0.78810263,2.37198696 0.711306687,1.3757649 0.629474944,0.319869235 Z" id="路径" fill="#9B92F9"></path>
                    </g>
                    <g transform="translate(50.834676, 29.688865) rotate(9.137851) translate(-50.834676, -29.688865) translate(50.334676, 26.688865)">
                        <path d="M0.441891411,0.22919028 C0.438114561,0.181825327 0.397828165,0.145834196 0.349988069,0.147049228 C0.302147973,0.148482894 0.264379477,0.186655306 0.261861577,0.234176064 C0.197655133,1.85486763 0.0994570412,4.30475747 0.0616885446,5.25891198 C0.0579116949,5.36392506 0.0969391414,5.46566623 0.168699285,5.54107622 C0.240459429,5.61648621 0.34117542,5.65902118 0.446927211,5.65902118 C0.446927211,5.65902118 0.446927211,5.65902118 0.446927211,5.65902118 C0.553937951,5.65902118 0.655912892,5.61446073 0.727673036,5.53593463 C0.800692129,5.45756433 0.837201676,5.35255124 0.829647977,5.24644752 C0.755369933,4.28263306 0.56652745,1.84271478 0.441891411,0.22919028 Z" id="路径" fill="#9B92F9"></path>
                    </g>
                    <g transform="translate(31.704596, 30.199823) rotate(9.137851) translate(-31.704596, -30.199823) translate(31.204596, 28.199823)">
                        <path d="M0.629474944,0.319869235 C0.619403345,0.197094292 0.516169454,0.104078251 0.392792365,0.107505978 C0.269415276,0.110933705 0.169958235,0.209714559 0.164922435,0.332801114 C0.123377089,1.39212451 0.0830906927,2.38959301 0.0616885446,2.92182551 C0.0579116949,3.02683859 0.0969391414,3.12857976 0.168699285,3.20398975 C0.240459429,3.27939974 0.34117542,3.32193471 0.446927211,3.32193471 C0.446927211,3.32193471 0.446927211,3.32193471 0.446927211,3.32193471 C0.553937951,3.32193471 0.655912892,3.27737426 0.727673036,3.19884816 C0.800692129,3.12047786 0.837201676,3.01546477 0.829647977,2.90936105 C0.78810263,2.37198696 0.711306687,1.3757649 0.629474944,0.319869235 Z" id="路径" fill="#9B92F9"></path>
                    </g>
                    <g transform="translate(43.924965, 21.901276) rotate(18.083025) translate(-43.924965, -21.901276) translate(43.424965, 19.401276)">
                        <path d="M0.513841785,0.188644077 C0.50955977,0.144451234 0.45960293,0.111075743 0.399654721,0.112658771 C0.341133851,0.114241798 0.29260435,0.150255667 0.291177011,0.194712348 C0.21695542,1.56099676 0.112759725,3.52698465 0.0699395762,4.31440877 C0.0656575614,4.405169 0.109905048,4.49302701 0.192690669,4.55793112 C0.27547629,4.62296716 0.391090692,4.6595087 0.512414446,4.6595087 C0.513841785,4.6595087 0.513841785,4.6595087 0.515269123,4.6595087 C0.633738201,4.6595087 0.746497926,4.62217565 0.827856209,4.55661193 C0.909214491,4.49104822 0.949179963,4.40345405 0.940615933,4.3153322 C0.859257651,3.5273804 0.655148275,1.55572 0.513841785,0.188644077 Z" id="路径" fill="#9B92F9"></path>
                    </g>
                    <g transform="translate(32.134872, 48.801540) rotate(18.083074) translate(-32.134872, -48.801540) translate(31.634872, 46.801540)">
                        <path d="M0.409271031,0.0986587399 C0.405907159,0.0621798781 0.364419411,0.0348207317 0.31620392,0.0360643293 C0.266867138,0.03741156 0.22762197,0.0670506352 0.22537939,0.10363313 C0.168193574,1.17136527 0.0885819491,2.66969307 0.0560645248,3.28092127 C0.0515793628,3.35356809 0.0874606586,3.42372772 0.153616798,3.47564792 C0.219772937,3.52756812 0.311718758,3.55679266 0.409271031,3.55679266 C0.409271031,3.55679266 0.410392321,3.55679266 0.410392321,3.55679266 C0.502338142,3.55679266 0.5897988,3.52798265 0.652591068,3.47730605 C0.715383336,3.42662945 0.74677947,3.35885338 0.740051727,3.29066278 C0.677259459,2.6848235 0.52027879,1.1724016 0.409271031,0.0986587399 Z" id="路径" fill="#9B92F9"></path>
                    </g>
                    <g transform="translate(47.373041, 11.211459) rotate(33.368747) translate(-47.373041, -11.211459) translate(46.873041, 8.211459)">
                        <path d="M0.479836941,0.200786664 C0.474759301,0.139422303 0.422713496,0.0935149592 0.360512411,0.0964517926 C0.299580736,0.0992340558 0.24880434,0.149623935 0.24626552,0.211452007 C0.182795025,1.78126676 0.099013972,3.8580717 0.0634704948,4.73340264 C0.0583928553,4.8434566 0.099013972,4.94964632 0.173909156,5.0280134 C0.24880434,5.10638048 0.352895951,5.15043298 0.463334612,5.15043298 C0.463334612,5.15043298 0.463334612,5.15043298 0.463334612,5.15043298 C0.567426224,5.15043298 0.666440196,5.10668962 0.73752715,5.03002281 C0.808614104,4.95320143 0.844157581,4.85087597 0.836541122,4.7480868 C0.769262397,3.87971153 0.604239111,1.78080305 0.479836941,0.200786664 Z" id="路径" fill="#9B92F9"></path>
                    </g>
                    <g transform="translate(51.194746, 40.663728) rotate(33.368760) translate(-51.194746, -40.663728) translate(50.694746, 38.663728)">
                        <path d="M0.512483973,0.112766237 C0.507397283,0.056789588 0.443813664,0.0150974365 0.368784993,0.0177685214 C0.293756322,0.0203234722 0.232716047,0.0661964523 0.230172702,0.12240537 C0.169132428,1.2543647 0.0953754292,2.61325012 0.0635836195,3.21215381 C0.0584969299,3.2937961 0.097918774,3.37241891 0.172947445,3.43048597 C0.246704444,3.48866917 0.349709907,3.52130286 0.459073732,3.52130286 C0.459073732,3.52130286 0.460345405,3.52130286 0.461617077,3.52130286 C0.565894213,3.52130286 0.666356332,3.48820463 0.737569986,3.43002144 C0.810055312,3.37195437 0.845662139,3.29437677 0.838032104,3.21656691 C0.775720157,2.61824389 0.632021177,1.24937094 0.512483973,0.112766237 Z" id="路径" fill="#9B92F9"></path>
                    </g>
                    <g transform="translate(73.077088, 28.222157) rotate(42.688456) translate(-73.077088, -28.222157) translate(72.577088, 26.222157)">
                        <path d="M0.527254863,0.136622772 C0.521791082,0.0838282711 0.461689492,0.0446342269 0.390660339,0.0472306778 C0.319631187,0.0497034882 0.262261486,0.0931013099 0.259529596,0.146143092 C0.191232334,1.39256315 0.105177784,2.99148233 0.0682972621,3.66927965 C0.0628334811,3.75558073 0.105177784,3.8387908 0.183036662,3.90024013 C0.260895541,3.96168947 0.370171161,3.99618518 0.486276506,3.99618518 C0.486276506,3.99618518 0.486276506,3.99618518 0.487642451,3.99618518 C0.601015906,3.99618518 0.711657471,3.95983486 0.78951635,3.89616 C0.868741174,3.83248513 0.908353586,3.74754409 0.898791969,3.66247942 C0.826396871,2.97911828 0.658385607,1.38032274 0.527254863,0.136622772 Z" id="路径" fill="#9B92F9"></path>
                    </g>
                    <g transform="translate(39.443002, 55.893211) rotate(42.688405) translate(-39.443002, -55.893211) translate(38.943002, 53.893211)">
                        <path d="M0.402280813,0.0905712008 C0.398881257,0.057337827 0.360352954,0.0326179409 0.316158724,0.0341565231 C0.271964494,0.0357976773 0.235702561,0.0630818669 0.23343619,0.0966229571 C0.175643735,1.15711633 0.0906548312,2.72185434 0.0566592695,3.3486727 C0.0521265279,3.42108863 0.087255275,3.49094026 0.152980028,3.54243147 C0.21870478,3.59402526 0.310492797,3.62295087 0.406813555,3.62295087 C0.40794674,3.62295087 0.40794674,3.62295087 0.409079926,3.62295087 C0.502001128,3.62305318 0.592655959,3.59320468 0.657247526,3.54109804 C0.720705908,3.48888882 0.753568284,3.4193449 0.746769172,3.34959585 C0.679911234,2.72226463 0.514466167,1.15178258 0.402280813,0.0905712008 Z" id="路径" fill="#9B92F9"></path>
                    </g>
                    <g transform="translate(59.094728, 45.729377) rotate(42.688405) translate(-59.094728, -45.729377) translate(58.594728, 43.729377)">
                        <path d="M0.43514319,0.09436637 C0.430610448,0.0511834985 0.381883476,0.0191809904 0.324091022,0.0212324333 C0.266298567,0.0233864482 0.21870478,0.0588764091 0.216438409,0.102264425 C0.15977914,1.13711476 0.087255275,2.47342462 0.0566592695,3.04095627 C0.0521265279,3.11337221 0.087255275,3.18322383 0.152980028,3.23471505 C0.21870478,3.28630884 0.310492797,3.31523444 0.406813555,3.31523444 C0.40794674,3.31523444 0.40794674,3.31523444 0.409079926,3.31523444 C0.502001128,3.31533675 0.592655959,3.28548826 0.657247526,3.23338161 C0.720705908,3.18117239 0.753568284,3.11162848 0.746769172,3.04187942 C0.686710346,2.47352719 0.543928987,1.13096043 0.43514319,0.09436637 Z" id="路径" fill="#9B92F9"></path>
                    </g>
                    <g transform="translate(9.179692, 50.737751) rotate(42.688405) translate(-9.179692, -50.737751) translate(8.679692, 48.737751)">
                        <path d="M0.443075487,0.167090018 C0.437409561,0.12165056 0.386416218,0.087801753 0.325224207,0.0900583401 C0.265165381,0.0922123551 0.215305224,0.129548615 0.213038853,0.17529579 C0.156379584,1.1991709 0.0861220896,2.48665642 0.0566592695,3.04095627 C0.0521265279,3.11337221 0.087255275,3.18322383 0.152980028,3.23471505 C0.21870478,3.28630884 0.310492797,3.31523444 0.406813555,3.31523444 C0.40794674,3.31523444 0.40794674,3.31523444 0.409079926,3.31523444 C0.502001128,3.31533675 0.592655959,3.28548826 0.657247526,3.23338161 C0.720705908,3.18117239 0.753568284,3.11162848 0.746769172,3.04187942 C0.687843532,2.48665642 0.5507281,1.192914 0.443075487,0.167090018 Z" id="路径" fill="#9B92F9"></path>
                    </g>
                    <g transform="translate(70.475981, 44.448071) rotate(103.722988) translate(-70.475981, -44.448071) translate(69.975981, 42.448071)">
                        <path d="M0.458389177,0.15070118 C0.452644952,0.101748582 0.397500389,0.0638204327 0.332016221,0.0641220501 C0.266532053,0.0644272831 0.21368518,0.102861141 0.21138749,0.151914881 C0.155094083,1.14583468 0.0873122243,2.36105259 0.0574422528,2.89467636 C0.0528468726,2.96567786 0.0884610693,3.03526337 0.155094083,3.08694679 C0.220578251,3.13863022 0.312485855,3.16786018 0.40669115,3.16786018 C0.407839995,3.16786018 0.407839995,3.16786018 0.407839995,3.16786018 C0.505491825,3.16786018 0.598548274,3.13741652 0.664032442,3.0838114 C0.730665456,3.03020628 0.762833117,2.95829451 0.754791202,2.8850679 C0.696200104,2.34638703 0.565231768,1.13905818 0.458389177,0.15070118 Z" id="路径" fill="#9B92F9"></path>
                    </g>
                    <g transform="translate(21.647716, 21.154304) rotate(-29.924481) translate(-21.647716, -21.154304) translate(21.147716, 18.154304)">
                        <path d="M0.455011933,0.200317144 C0.451209605,0.148457605 0.40684911,0.107898802 0.354883959,0.107587412 C0.302918808,0.107279583 0.261093198,0.147373973 0.259825756,0.199078708 C0.193918735,1.80146106 0.100127974,4.12724527 0.0633721355,5.05916893 C0.0583023647,5.16505527 0.0988605314,5.26908396 0.172372209,5.34648626 C0.247151329,5.42404336 0.349814188,5.46785346 0.456279376,5.46785346 C0.456279376,5.46785346 0.456279376,5.46785346 0.456279376,5.46785346 C0.562744564,5.46800786 0.66413998,5.42404336 0.736384215,5.34633145 C0.807361007,5.26877435 0.842849403,5.16443605 0.835244746,5.05762088 C0.761733069,4.1247684 0.580488761,1.80161586 0.455011933,0.200317144 Z" id="路径" fill="#9B92F9"></path>
                    </g>
                    <g transform="translate(48.400129, 49.944916) rotate(107.153604) translate(-48.400129, -49.944916) translate(47.900129, 47.944916)">
                        <path d="M0.638030992,0.217653501 C0.627698507,0.0950810131 0.52437365,-0.000151886602 0.401675382,0.000151161909 C0.278977114,0.000455659807 0.179526939,0.0964479925 0.174360696,0.219020481 C0.129156071,1.27265784 0.0878261285,2.27769149 0.0645780357,2.82098986 C0.0607033535,2.9294369 0.100741736,3.03560563 0.176943818,3.11458667 C0.251854339,3.19371959 0.356470757,3.23837463 0.464961857,3.23837463 C0.466253418,3.23837463 0.466253418,3.23837463 0.466253418,3.23837463 C0.574744517,3.23852613 0.676777814,3.19371959 0.750396774,3.11489044 C0.822724174,3.03606129 0.858887874,2.93019633 0.849846949,2.82250873 C0.805933885,2.27921035 0.723273999,1.27265784 0.638030992,0.217653501 Z" id="路径" fill="#9B92F9"></path>
                    </g>
                    <g transform="translate(71.277789, 36.234484) rotate(70.415715) translate(-71.277789, -36.234484) translate(70.777789, 34.234484)">
                        <path d="M0.527537169,0.147702298 C0.521056369,0.0895130799 0.454952202,0.0442420969 0.377182595,0.0443562016 C0.299412988,0.0445850589 0.235901142,0.0900846832 0.233308822,0.148388222 C0.171093136,1.25101103 0.0985081692,2.56329793 0.064808006,3.15262095 C0.0609195257,3.23413158 0.101100489,3.31392741 0.176277776,3.37337415 C0.252751224,3.43270658 0.357740193,3.46643117 0.466617644,3.46631714 C0.466617644,3.46631714 0.467913804,3.46631714 0.469209964,3.46631714 C0.576791254,3.46643117 0.679187903,3.43270658 0.75306903,3.37348847 C0.825653997,3.31415605 0.86194648,3.23447455 0.85287336,3.15342119 C0.789361514,2.56432681 0.6467839,1.25101103 0.527537169,0.147702298 Z" id="路径" fill="#9B92F9"></path>
                    </g>
                    <g transform="translate(61.400236, 37.005186) scale(-1, 1) rotate(67.650361) translate(-61.400236, -37.005186) translate(60.900236, 34.505186)">
                        <path d="M0.504446633,0.123648182 C0.500195678,0.0816378971 0.452018191,0.0502869381 0.395338794,0.051917188 C0.340076382,0.0536728417 0.293315879,0.0879080889 0.291898894,0.130043778 C0.219632663,1.42195409 0.113358794,3.31668065 0.0708492462,4.08590778 C0.0665982914,4.17632394 0.109107839,4.26373042 0.19270995,4.32843879 C0.274895075,4.39302177 0.389670854,4.42938888 0.510114572,4.42938888 C0.510114572,4.42938888 0.511531557,4.42938888 0.512948542,4.42938888 C0.629141306,4.42938888 0.741083115,4.39239475 0.821851255,4.32731016 C0.901202411,4.26235097 0.942294974,4.17544611 0.932376079,4.08829045 C0.848773969,3.31943953 0.643311155,1.41706334 0.504446633,0.123648182 Z" id="路径" fill="#9B92F9"></path>
                    </g>
                    <g transform="translate(40.771586, 74.860059) rotate(-29.924498) translate(-40.771586, -74.860059) translate(40.271586, 73.360059)">
                        <path d="M0.765141612,0.305930189 C0.752643836,0.182922084 0.61377966,0.0865000119 0.449919932,0.0857322231 C0.286060204,0.0849735411 0.152750594,0.18025076 0.145807385,0.303004453 C0.113868625,0.894257476 0.0860957894,1.41325755 0.0694320882,1.73457965 C0.0638775212,1.82298775 0.108314058,1.90999659 0.191632564,1.97474439 C0.274951069,2.03949219 0.388819694,2.07612749 0.506854244,2.07612749 C0.508242886,2.07612749 0.508242886,2.07612749 0.509631528,2.07612749 C0.623500152,2.07612749 0.733202852,2.04089146 0.809578149,1.97843336 C0.885953446,1.91597526 0.924835415,1.83201937 0.915114923,1.74615539 C0.881787521,1.42635975 0.827630492,0.903034683 0.765141612,0.305930189 Z" id="路径" fill="#9B92F9"></path>
                    </g>
                    <g transform="translate(4.594829, 41.064325) rotate(-29.924473) translate(-4.594829, -41.064325) translate(4.094829, 39.564325)">
                        <path d="M0.418564889,0.0871757107 C0.413497518,0.0396422028 0.35978338,0.00232097206 0.295934498,0.00203967388 C0.233099091,0.00167109989 0.181411901,0.0385281362 0.179384953,0.0859688052 C0.13175166,0.971094711 0.0760105731,2.0042058 0.0506737154,2.47081402 C0.0466198182,2.53589408 0.0800644704,2.59986007 0.140872929,2.64748641 C0.201681387,2.69511276 0.285799755,2.72212887 0.372958546,2.72212887 C0.37397202,2.72212887 0.37397202,2.72212887 0.374985494,2.72212887 C0.458090387,2.72212887 0.536127909,2.69669102 0.591868996,2.65157132 C0.647610083,2.60654447 0.674973889,2.54592068 0.668893044,2.4839043 C0.620246277,2.02398048 0.511804526,0.980378599 0.418564889,0.0871757107 Z" id="路径" fill="#9B92F9"></path>
                    </g>
                    <g transform="translate(21.425028, 37.036383) rotate(-77.681131) translate(-21.425028, -37.036383) translate(20.925028, 34.036383)">
                        <path d="M0.403455465,0.0550646141 C0.400869212,0.0268496878 0.376299808,0.00485418085 0.347851026,0.0051544663 C0.319402243,0.00530926031 0.297419092,0.0276081536 0.296125966,0.0558230798 C0.234055895,1.53179745 0.109915752,4.47767845 0.0646563244,5.55667184 C0.0594838185,5.66285705 0.0995707397,5.76661516 0.17327895,5.84382697 C0.246987159,5.92103879 0.349144152,5.96472642 0.456473651,5.96472642 C0.456473651,5.96472642 0.456473651,5.96472642 0.456473651,5.96472642 C0.567682529,5.96472642 0.672425774,5.91891509 0.747427111,5.83791094 C0.821135321,5.75705849 0.858635989,5.6484462 0.849584103,5.53801358 C0.760358376,4.44385088 0.522423102,1.52224078 0.403455465,0.0550646141 Z" id="路径" fill="#9B92F9"></path>
                    </g>
                    <g transform="translate(15.006319, 55.728642) rotate(-53.990232) translate(-15.006319, -55.728642) translate(14.506319, 53.228642)">
                        <path d="M0.491144901,0.0767011747 C0.486959007,0.0367266211 0.44230947,0.00537158064 0.389288146,0.0049953127 C0.334871523,0.00474697824 0.291617285,0.0356023368 0.290221987,0.0754519699 C0.219061788,1.36700481 0.111623841,3.30514606 0.0697649007,4.07740446 C0.0641837086,4.16409928 0.108833245,4.24929505 0.18976053,4.31275465 C0.270687815,4.37633917 0.382311656,4.41231627 0.498121391,4.41231627 C0.498121391,4.41231627 0.499516689,4.41231627 0.499516689,4.41231627 C0.61811702,4.41231627 0.729740861,4.37583949 0.809272848,4.3112556 C0.887409537,4.24679664 0.927873179,4.15985198 0.918106093,4.07103352 C0.83578351,3.29477766 0.629279404,1.36463132 0.491144901,0.0767011747 Z" id="路径" fill="#9B92F9"></path>
                    </g>
                    <g transform="translate(4.753928, 54.657481) rotate(-77.681131) translate(-4.753928, -54.657481) translate(4.253928, 52.657481)">
                        <path d="M0.438998112,0.175422117 C0.434401273,0.132249066 0.386134465,0.0988834756 0.32752477,0.0991847475 C0.270064284,0.0994901227 0.222946685,0.13346236 0.220648266,0.176635411 C0.16318778,1.19711692 0.089638358,2.52658402 0.0574604859,3.09359683 C0.0540128567,3.16518119 0.0884891483,3.23535004 0.155143312,3.28742058 C0.221797476,3.33959223 0.313734253,3.36901461 0.410267869,3.36901461 C0.410267869,3.36901461 0.410267869,3.36901461 0.411417079,3.36901461 C0.507950695,3.36901461 0.599887473,3.33888447 0.665392427,3.28570175 C0.730897381,3.23241791 0.763075253,3.16103577 0.756179994,3.08844033 C0.69412267,2.51839429 0.549322245,1.19307261 0.438998112,0.175422117 Z" id="路径" fill="#9B92F9"></path>
                    </g>
                    <g transform="translate(21.526081, 48.342696) rotate(-77.681131) translate(-21.526081, -48.342696) translate(21.026081, 46.342696)">
                        <path d="M0.443594951,0.120924987 C0.438998112,0.0762353176 0.388432885,0.0416564335 0.328673979,0.0419577768 C0.268915074,0.0423641884 0.220648266,0.0774486118 0.218349846,0.122239389 C0.16203857,1.13614889 0.0884891483,2.43407034 0.0574604859,2.99248899 C0.0540128567,3.06407334 0.0884891483,3.13424219 0.155143312,3.18631273 C0.221797476,3.23848438 0.313734253,3.26790676 0.410267869,3.26790676 C0.410267869,3.26790676 0.410267869,3.26790676 0.411417079,3.26790676 C0.507950695,3.26790676 0.599887473,3.23777663 0.665392427,3.1845939 C0.730897381,3.13131006 0.763075253,3.05992792 0.756179994,2.98733249 C0.69412267,2.42598171 0.553919084,1.13200347 0.443594951,0.120924987 Z" id="路径" fill="#9B92F9"></path>
                    </g>
                </g>
            </g>
        </g>
    </g>
</svg>