<?xml version="1.0" encoding="UTF-8"?>
<svg width="250px" height="140px" viewBox="0 0 250 140" version="1.1" xmlns="http://www.w3.org/2000/svg" xmlns:xlink="http://www.w3.org/1999/xlink">
    <title>5</title>
    <defs>
        <path d="M4,0 L246,0 C248.209139,-4.05812251e-16 250,1.790861 250,4 L250,140 L250,140 L9.09494702e-13,140 L9.09494702e-13,4 C9.0922416e-13,1.790861 1.790861,4.05812251e-16 4,0 Z" id="path-1"></path>
    </defs>
    <g id="司南首页" stroke="none" stroke-width="1" fill="none" fill-rule="evenodd">
        <g id="5" transform="translate(-0.000000, 0.000000)">
            <mask id="mask-2" fill="white">
                <use xlink:href="#path-1"></use>
            </mask>
            <use id="蒙版" fill="#C7DCF6" xlink:href="#path-1"></use>
            <path d="M225.100557,46.3435176 C225.26588,46.3520688 225.389873,46.4404314 225.426928,46.60718 C225.463984,46.7753539 225.391298,46.8637164 225.2274,46.9634805 C223.022608,48.298895 219.974096,49.1668431 218.49901,51.5512063 C215.593018,56.2486726 215.573065,60.4287905 222.150383,62.6877359 C232.487391,66.2350641 231.237487,54.841998 228.635064,47.4494745 C228.543851,47.1929381 228.68067,47.0318902 228.804663,46.8637164 C228.927231,46.6955425 229.176641,46.621432 229.387572,46.6385345 C234.561064,47.0717959 239.707477,47.7259637 244.832512,48.5155257 C245.057695,48.5511557 245.177412,48.715054 245.255798,48.8718262 C245.335609,49.0314489 245.181687,49.3492689 245.084774,49.3891746 C243.546978,50.0005863 241.858111,53.1203538 242.488051,54.1935311 C244.01587,56.7973754 246.538482,58.0686557 249.119527,56.7759974 C250.554708,56.0576955 248.704793,51.5084502 248.47391,50.1545082 C248.448256,50.0077123 248.612155,49.5430964 248.825935,49.4105526 C249.038291,49.2780088 249.424521,49.1739691 249.658255,49.2210008 C255.146717,50.3454853 260.858936,51.5355291 266.14502,52.8894711 C266.876625,53.0756975 266.983749,53.2097805 267.125719,53.7053911 L267.156915,53.8172777 C267.317963,54.4058862 267.498964,54.4386658 266.910355,55.2025742 C262.221432,61.2810614 256.858388,67.4764151 251.499619,73.2385074 C251.358524,73.3895789 250.977994,73.6104852 250.734284,73.5135715 C250.489149,73.4180829 250.132848,73.4209333 249.993178,73.0831604 C246.889082,65.5167622 239.3412,64.6758929 234.459874,68.3244104 C225.881569,74.7363949 230.366687,79.3283962 235.3378,79.5079717 C240.307488,79.6875472 237.286055,79.5721058 240.431481,79.7246024 C240.891822,79.7445553 240.695144,79.862847 240.884696,80.0937298 C241.074248,80.3231873 240.940279,80.5512197 240.77068,80.7336456 C238.010059,83.6994912 235.131146,86.6183052 232.253658,89.4886624 C232.109712,89.634033 231.864577,89.6938915 231.697828,89.6696631 C231.531079,89.648285 231.240337,89.4872372 231.183329,89.3176381 C228.806088,82.3626516 221.463435,73.7872103 215.551687,80.8761658 C209.177175,88.5226604 214.354982,92.9049788 220.837638,95.6038268 L221.29727,95.7915582 C221.604959,95.9148759 221.915004,96.0345479 222.226336,96.1507388 L222.694167,96.3224351 C223.240784,96.5197496 223.789711,96.7066557 224.335222,96.8840364 C224.754232,97.0194306 224.923831,97.1961556 225.015044,97.5139757 C225.106257,97.8317958 225.01647,98.1339386 224.795563,98.3576954 C220.425886,102.777247 215.85098,106.931712 211.020962,110.83534 C210.847087,110.97501 210.596251,110.987837 210.416675,110.932254 C210.238525,110.875246 209.994815,110.605883 209.986263,110.500418 C209.463213,103.861826 202.469735,82.217281 197.957538,96.7415161 C195.623807,104.249733 198.83996,108.920548 202.525692,113.7616 L202.936892,114.300348 C203.005661,114.390307 203.074527,114.480362 203.143457,114.570534 L203.557551,115.113103 L203.557551,115.113103 L203.971638,115.659364 C204.454133,116.299181 204.933452,116.94841 205.39853,117.613602 C205.645091,117.965627 205.63939,117.790327 205.63939,118.035462 C205.637965,118.280596 205.551027,118.353282 205.422759,118.444495 C202.560948,120.444053 199.627877,122.25406 196.582215,123.938649 C196.40834,124.035563 196.205961,124.031287 196.034937,123.938649 C195.863912,123.846011 195.732794,123.690664 195.714266,123.481159 C195.611651,122.251209 194.856293,120.847385 193.563632,121.521506 C191.582598,122.554778 192.070018,123.786152 193.518026,124.959094 C193.626341,125.047456 193.667672,125.135819 193.661971,125.255536 C193.656271,125.375253 193.586436,125.472166 193.483821,125.520623 C188.220541,127.964845 182.925906,129.733521 177.209411,130.701233 C176.670684,130.793871 176.153335,130.457523 175.83979,130.212389 C175.52482,129.967254 175.258306,128.933982 175.363771,128.77436 C178.530576,123.940074 181.222787,96.0089622 172.975129,99.0702965 C157.43088,104.840626 159.940176,116.889391 162.906529,129.385356 L163.182549,130.545886 L163.182549,130.545886 C163.289439,130.989124 163.305116,131.412409 163.001548,131.697449 C162.697979,131.979639 162.288946,132.177742 161.921243,132.028096 C152.802126,128.299613 146.640917,122.750812 142.802557,115.977313 C153.277389,97.2688609 166.172909,90.060944 178.687491,85.6711159 C191.709584,81.096217 204.322643,79.5427466 213.439676,71.3905903 C213.496684,71.3335822 213.502385,71.2480701 213.452503,71.191062 C213.401196,71.1340539 213.314258,71.1340539 213.25725,71.17681 C204.081784,79.2006981 191.490102,80.6116483 178.463734,85.0155229 C165.830721,89.3053814 152.795801,96.3886361 142.018405,114.902012 L142.123793,114.720082 C137.057476,104.860501 136.626172,92.5895467 138.993979,79.6291139 C139.10372,79.030529 139.528431,78.8295755 139.991622,78.6457244 C140.454813,78.4632985 141.024895,78.7511894 141.287133,79.0832615 C141.94995,79.9223978 142.552176,81.0652235 143.159077,82.2973724 L143.350962,82.6891913 C143.47909,82.9520499 143.60773,83.2178674 143.737491,83.4846435 L143.933049,83.8852765 C145.931316,87.9606048 148.261047,92.0262834 153.082125,88.9884164 C158.245641,85.7361051 150.405591,78.1611557 146.353735,76.0760849 C146.101473,75.9463915 145.582699,75.1582547 145.608353,74.6708356 C145.632581,74.1834165 145.688164,73.5848316 146.139954,73.1458693 C151.247887,68.1690634 157.028516,64.0445283 163.047154,60.2321126 C163.543126,59.9171429 164.036246,59.9556234 164.530792,60.100994 C165.026763,60.2463646 165.388765,60.799343 165.481404,61.2554077 C166.491874,66.1894576 167.163145,77.1891678 174.296293,76.3098181 C187.128834,74.7292689 175.988011,60.8549259 171.595531,54.6780998 C171.391727,54.390209 171.148017,53.4581268 171.383175,52.9607312 C171.618334,52.4661861 171.960383,51.9573889 172.56467,51.7621362 C176.683511,50.4153202 180.818029,49.1639927 185.056587,48.1663512 C185.887481,47.9696733 186.718375,48.2475877 187.289882,48.9502123 C187.861389,49.6542622 188.008185,50.3383592 187.667562,51.3488276 C185.126422,58.8624933 185.357305,65.4911085 195.382193,66.5258053 C205.405656,67.5590769 206.847963,56.5223114 205.15197,48.0922406 C205.069308,47.6874832 205.247458,47.2000641 205.508271,46.8865196 C205.769083,46.57155 206.185243,46.3406672 206.61993,46.317864 C212.788215,45.9957683 218.936547,45.9957683 225.100557,46.3435176 Z" id="形状结合" fill="#A7C7EF" mask="url(#mask-2)" transform="translate(202.461583, 89.079407) scale(-1, 1) rotate(-39.000000) translate(-202.461583, -89.079407) "></path>
            <path d="M153.832326,65.7410225 C159.429605,73.4524041 165.152851,81.1354674 169.847847,89.4141926 C167.322627,89.947359 158.695279,90.6777773 159.454017,94.5583687 C160.213731,98.4379836 169.176018,92.3339129 170.796026,91.1904372 C172.982402,95.3297998 174.833839,99.7845704 176.331785,104.031347 C172.758784,106.654213 162.780941,102.070545 161.979237,108.945071 C161.34842,114.345088 175.361147,108.533966 176.738008,105.253919 C177.802389,108.453894 178.482031,111.20761 179.148002,114.335323 C177.515299,114.566753 175.155107,116.455294 176.072037,118.193456 C176.988967,119.932593 178.549409,119.697258 180.263161,119.859356 C180.744574,123.156004 181.223057,126.343283 181.195715,129.780546 C178.85017,129.098953 165.349127,130.695522 166.559007,133.775387 C169.453343,141.137184 176.342527,132.765692 181.543348,132.674878 C181.705446,136.968526 181.521865,141.247528 180.342257,145.451339 C177.731105,143.878206 167.181035,138.899057 165.310067,141.622502 C163.352307,144.473994 167.635942,145.540284 172.134806,146.004121 L172.644707,146.054121 C175.875801,146.355291 179.100636,146.369706 180.098133,146.533296 C179.024963,150.371898 177.510417,153.732017 174.921724,156.786494 C174.36559,156.49085 172.951926,155.457019 171.388179,154.485477 L171.038496,154.270929 C168.343067,152.638914 165.364113,151.359811 165.600087,154.392128 C165.722149,155.969168 172.378927,157.74053 174.093655,157.62335 C170.366367,161.630886 164.619684,164.514476 159.490147,165.099397 C157.329054,165.345182 155.201178,165.445828 153.127772,165.385853 L153.579784,165.391369 C156.849095,152.648108 158.727875,142.424204 159.703395,134.260706 C162.679756,109.369846 157.270941,103.5597 157.270941,103.5597 C157.235788,103.520641 157.176221,103.510876 157.137161,103.549935 C157.099078,103.57923 157.096149,103.647585 157.131302,103.686645 C157.131302,103.686645 162.400478,109.526085 159.168274,134.202116 C158.097058,142.365615 156.094263,152.599283 152.658948,165.371839 C144.042496,165.017858 136.40154,161.848941 131.281112,154.737807 C129.930617,152.860007 130.52628,152.86489 129.859333,151.096457 C130.693261,152.258486 145.907079,157.627256 144.17868,154.211476 C142.35572,150.608742 138.130762,149.528265 134.034212,148.837706 L133.388825,148.7316 C131.779868,148.472881 130.211671,148.257431 128.83987,147.954096 C128.222724,144.951374 128.201241,142.401745 128.964862,139.340433 C129.390453,139.764453 132.709199,140.959433 136.360451,142.009097 L136.92446,142.169314 C142.206583,143.651664 147.903521,144.737521 146.434387,142.714223 C143.160194,138.203793 134.732051,137.665744 129.572243,136.336734 C130.121034,133.730469 131.336772,131.554838 132.413848,128.950525 C133.738954,131.107603 147.051533,136.414854 145.108305,130.994329 C143.942953,127.740843 141.305006,127.236034 138.613977,126.85792 L137.87981,126.755969 C136.331627,126.539053 134.808626,126.28512 133.581738,125.493733 C134.310205,123.447976 135.54059,121.352417 136.500487,119.274436 C138.46745,120.175626 140.809395,121.867358 143.26991,123.487827 L143.78059,123.821797 L143.78059,123.821797 L144.294149,124.152037 C148.756009,126.993054 153.485382,129.222749 157.003987,125.872613 C158.632627,119.333689 152.963759,118.460375 146.909685,118.043428 L146.341198,118.005518 L146.341198,118.005518 L145.77172,117.969327 C145.486944,117.951503 145.202271,117.933966 144.918412,117.91618 L144.351993,117.880117 C141.809892,117.714908 139.372236,117.500544 137.558032,116.845892 C138.817713,113.995503 139.929943,111.101172 141.111504,108.17364 C141.977656,110.097335 147.017356,113.509209 148.416675,112.963348 C156.169082,109.93719 145.146388,106.010703 142.178815,104.740283 C142.772525,102.676949 143.573252,100.732747 144.184539,98.6137528 C145.6112,99.2191797 158.135746,97.9048173 153.762018,94.8249519 C151.260234,93.0633547 147.005638,97.6392107 144.509712,97.4204758 C145.856301,91.9999516 146.775184,86.3313977 147.730198,80.7722112 C148.038771,81.600279 148.94496,83.101152 149.815995,83.1665771 C152.050219,83.3345343 151.830508,80.9235679 151.053216,79.519368 C150.578639,78.6610289 148.976208,78.5584969 148.138374,78.2723838 C148.975231,74.0197478 150.693865,69.9126095 152.33438,66.0105351 C152.558974,65.4763923 152.708378,65.5525589 153.045269,65.440262 C153.382161,65.3279651 153.642885,65.4793218 153.832326,65.7410225 Z" id="形状结合" fill="#A7C7EF" mask="url(#mask-2)" transform="translate(154.988890, 115.402751) rotate(-17.000000) translate(-154.988890, -115.402751) "></path>
            <path d="M27.1896134,73.6365896 C31.3942666,73.6720585 35.5258888,73.970626 39.6789907,74.6654934 C39.8497544,74.694491 40.0280359,74.8094073 40.095697,74.9662089 C40.1622841,75.1230105 40.2095395,75.3077357 40.099993,75.4795731 C39.452723,76.4897822 38.7607996,77.6865943 38.1458139,78.9461877 L37.9637479,79.3258254 C35.7198143,84.0917433 34.7288033,89.566398 41.4027374,89.2201213 C46.8972471,88.9344416 47.9035715,85.402109 46.9316147,81.0514008 C46.4375814,78.8432902 44.2520209,77.3622666 42.8429519,75.8092861 C42.7377013,75.6932959 42.7065558,75.5934154 42.7699209,75.4720552 C42.833286,75.3496211 42.9439066,75.2969959 43.0760068,75.3270674 C48.0335238,76.4730081 52.8771983,77.9014065 57.6832834,79.5811171 C58.0226628,79.7003293 58.305121,79.9967488 58.4329253,80.3028342 C58.5618035,80.6089195 58.5607296,81.1029521 58.4050017,81.370374 C55.1433077,86.9379058 51.9342391,97.0011336 60.15882,98.2619905 C68.3834009,99.5239214 68.8355487,93.0381335 68.2502267,87.0130847 C68.1718257,86.2033009 68.373735,85.5900562 68.9783888,85.1604627 C69.5819687,84.7308692 70.2789852,84.6986497 70.9072668,85.0455464 C74.1206313,86.8197676 77.2244494,88.7658261 80.2197949,90.8762042 C80.659055,91.1855115 80.8384106,91.7235774 80.9350693,92.1767985 C81.031728,92.6300197 80.6311314,93.3796603 80.4238522,93.5611636 C75.9485546,97.4855002 64.4633538,107.236199 74.8155,110.214356 C80.5699142,111.869365 83.1603672,101.769621 84.6650209,97.7378864 C84.803565,97.367362 85.2106055,96.9399165 85.6552355,96.9195108 C86.0998655,96.9001791 86.5133499,96.9818018 86.8656171,97.3587701 C91.1433014,101.921053 95.2706276,106.675579 98.7084551,111.904806 C99.0113191,112.365545 98.9479539,112.874613 98.8867367,113.294541 C98.8255196,113.714469 98.2520113,114.284754 98.0178825,114.353489 C94.2503414,115.442509 86.3823237,120.53534 90.1047574,124.216956 C93.2394525,127.316741 95.7343712,125.113313 97.9508297,122.364082 L98.2154912,122.031859 C98.2593864,121.976153 98.303176,121.920306 98.3468629,121.864354 L98.6077748,121.527696 C99.6899646,120.122288 100.711572,118.699364 101.717762,117.853602 C101.991629,117.622696 102.5254,117.479856 102.875519,117.732242 C103.224564,117.986776 103.551056,118.194055 103.529576,118.754674 C103.089048,130.010106 100.991549,139.451718 95.7047967,146.196205 C96.0607465,145.73835 96.4021953,145.271006 96.7307968,144.794485 C95.0704152,142.131005 93.383184,139.596403 91.6776951,137.19068 C66.5808021,101.802915 37.7281819,94.2098498 37.7281819,94.2098498 C37.6175614,94.1776303 37.502645,94.2420693 37.4725734,94.3602075 C37.4425018,94.4676059 37.5080149,94.5857441 37.6186354,94.6179636 C37.6186354,94.6179636 66.0932127,102.608403 90.3824686,138.092826 C92.1545446,140.681127 93.904067,143.419785 95.6170738,146.308802 C90.9647717,152.17723 83.8691321,155.982155 73.3065503,157.13241 C72.9381733,157.173221 72.6943786,156.906873 72.5096531,156.613676 C72.3238536,156.319404 72.4312522,155.957472 72.6213476,155.634203 C72.7316029,155.446234 72.8418643,155.258222 72.9519936,155.070181 L73.2818468,154.505989 L73.2818468,154.505989 L73.6100786,153.941714 C73.7191268,153.753619 73.8277667,153.565524 73.9358601,153.377446 L74.2583625,152.813274 C74.3117936,152.719258 74.3650535,152.62525 74.418125,152.531251 L74.7341548,151.96739 C79.2797948,143.793488 82.1378471,135.719988 71.9382928,128.96826 C65.9046423,124.974114 63.6492728,147.695315 64.9530912,151.918219 C64.9960506,152.057837 64.5825662,152.866546 64.2614445,152.990055 C63.9403229,153.113563 63.4495115,153.272512 63.0317312,153.077047 C58.5832833,150.981705 54.678272,148.312855 50.9859099,145.06298 C50.9214708,145.006059 50.8935471,144.920141 50.9128789,144.832074 C50.9322106,144.744007 50.981614,144.687086 51.0782727,144.645201 C52.5378189,144.01692 53.2219477,143.11907 51.8440243,141.80344 C50.9332846,140.934587 50.0085831,141.989239 49.6713517,142.978378 C49.6208743,143.12981 49.495218,143.220024 49.353452,143.254392 C49.2106119,143.287685 49.0656238,143.25117 48.9582253,143.143772 C46.8499918,141.019432 44.8233812,138.855354 42.9030951,136.547363 C42.8182502,136.444261 42.7666989,136.359416 42.8128803,136.166099 C42.8590617,135.973856 42.8440259,136.084476 43.1007084,135.872902 C43.4749839,135.563833 43.8554423,135.263403 44.2382515,134.968273 L44.6985057,134.616448 C45.005767,134.383309 45.3135516,134.152708 45.6198976,133.922935 L46.0780921,133.578683 C49.8832997,130.711533 53.3104066,127.84027 52.5270791,121.626507 C51.0116856,109.597889 41.1406849,125.316715 39.1806614,130.527684 C39.1495158,130.609307 38.8799455,130.783292 38.7199216,130.78544 C38.5598978,130.787588 38.3536926,130.719927 38.2430721,130.565274 C35.1714736,126.259673 32.3372259,121.838082 29.7167013,117.241431 C29.5835271,117.010525 29.5781571,116.738807 29.734959,116.502531 C29.8917609,116.266254 30.0507107,116.155634 30.4319756,116.145968 C37.4998741,115.970909 44.9683692,114.318048 41.3984414,105.42224 C38.5845994,98.4080523 31.4103764,102.344203 27.1058425,106.641212 C27.0016659,106.746462 26.7331696,106.804457 26.5849596,106.762572 C26.4378236,106.720687 26.2627639,106.602548 26.1951028,106.441451 C24.8612129,103.250645 23.5445066,100.035138 22.3641966,96.7970766 C22.2911656,96.5983896 22.2772038,96.3696311 22.4909269,96.2547148 C22.705724,96.1419465 22.6670605,95.9754791 22.999996,96.1161709 C23.900872,96.4985657 24.1844109,96.571874 24.4091278,96.6198119 L24.4972013,96.6383065 C24.8037457,96.7030093 25.1409578,96.7921307 27.0414034,97.6841872 C30.479231,99.2994588 36.102619,98.2222531 31.1612117,90.886944 C28.3495177,86.7134432 22.2278004,88.2524619 19.3602592,93.4301376 C19.2313809,93.6621181 18.9145552,93.664266 18.7147939,93.7072254 C18.5128846,93.7501847 18.2368704,93.5418319 18.1477296,93.3979181 C14.7303077,87.9227489 11.1227905,82.2757423 8.17684827,76.7006927 C7.80632328,75.9993813 7.95023733,75.9736057 8.16610842,75.5096447 C8.38305348,75.0456837 8.45823247,74.9307674 9.13162137,74.8684764 C13.6692101,74.4517707 18.5139586,74.0253991 23.1772036,73.6538007 C23.3758909,73.637691 23.6712369,73.771939 23.8269648,73.9094089 C23.9837667,74.0468788 24.0439099,74.4603625 24.0030985,74.5742048 C23.6229076,75.6245609 21.4781586,79.2352943 22.5306643,79.9892309 C24.4241008,81.3445984 26.5806636,80.4510439 28.110019,78.5909041 C28.7404484,77.8251536 28.0294701,75.0789772 26.848086,74.3218186 C26.775055,74.2756373 26.7106159,73.9931796 26.7943867,73.8761154 C26.8770836,73.7590512 27.0048879,73.634469 27.1896134,73.6365896 Z" id="形状结合" fill="#A7C7EF" mask="url(#mask-2)" transform="translate(55.739700, 115.386563) scale(-1, 1) rotate(20.000000) translate(-55.739700, -115.386563) "></path>
        </g>
    </g>
</svg>