<?xml version="1.0" encoding="UTF-8"?>
<svg width="251px" height="141px" viewBox="0 0 251 141" version="1.1" xmlns="http://www.w3.org/2000/svg" xmlns:xlink="http://www.w3.org/1999/xlink">
    <title>1</title>
    <defs>
        <path d="M4,0.489051095 L246,0.489051095 C248.209139,0.489051095 250,2.2799121 250,4.48905109 L250,140.489051 L250,140.489051 L0,140.489051 L0,4.48905109 C-2.705415e-16,2.2799121 1.790861,0.489051095 4,0.489051095 Z" id="path-1"></path>
    </defs>
    <g id="司南首页" stroke="none" stroke-width="1" fill="none" fill-rule="evenodd">
        <g id="1" transform="translate(0.500000, 0.000000)">
            <mask id="mask-2" fill="white">
                <use xlink:href="#path-1"></use>
            </mask>
            <use id="蒙版" fill="#C7ECF6" xlink:href="#path-1"></use>
            <path d="M203.9277,143.536686 L194.41618,143.534791 C181.579354,120.628475 168.520275,123.968783 172.838402,125.193503 C178.795199,126.730352 184.919056,132.844552 191.209972,143.536102 L178.71783,143.536686 L178.71783,143.536686 C169.025496,126.719629 160.461036,117.228524 153.024453,115.063373 C141.869578,111.815646 200.167807,115.710514 203.9277,143.536686 Z" id="形状结合" fill="#A7E0EA" mask="url(#mask-2)"></path>
            <path d="M235.366207,143.536686 C235.366207,143.536686 233.404114,143.729518 229.479928,144.115182 L229.465169,144.025057 C227.468282,132.754645 220.26179,118.739535 207.86653,101.941544 L207.86653,101.941544 L206.609709,100.252468 L205.318301,98.5448297 C201.828434,93.9663734 198.105027,88.8008737 193.742453,84.2145123 C192.491008,82.8988716 188.840974,80.6625386 188.598417,81.1160443 C188.35586,81.5695501 191.860705,85.0886069 192.218303,85.5094894 C196.388419,90.417595 200.193687,95.1269847 203.634502,99.6369344 L203.634502,99.6369344 L204.907725,101.318815 C217.954838,118.690821 225.473575,133.035743 227.487285,144.310797 L227.239463,144.335372 C224.357639,144.618593 220.709373,144.97714 216.294664,145.411012 C201.671326,104.81057 182.68599,77.6327967 159.338657,63.877691 C139.74248,52.332583 232.48336,79.703261 235.366207,143.536686 Z" id="形状结合" fill="#A7E0EA" mask="url(#mask-2)"></path>
            <path d="M87.7443389,164.235865 C87.7443389,164.235865 85.782246,164.428697 81.8580602,164.814361 L81.8433013,164.724236 C79.8464145,153.453824 72.6399223,139.438714 60.2446626,122.640723 L60.2446626,122.640723 L58.9878415,120.951646 L57.6964333,119.244009 C54.2065659,114.665552 50.4831596,109.500053 46.1205855,104.913691 C44.8691404,103.59805 41.2191062,101.361717 40.9765494,101.815223 C40.7339925,102.268729 44.2388371,105.787786 44.5964352,106.208668 C48.7665515,111.116774 52.5718197,115.826164 56.0126348,120.336113 L56.0126348,120.336113 L57.2858575,122.017994 C70.3329705,139.39 77.851707,153.734922 79.8654171,165.009976 L79.6175954,165.03455 C76.7357714,165.317772 73.087505,165.676319 68.6727959,166.11019 C54.049458,125.509749 35.0641224,98.3319756 11.7167893,84.5768698 C-7.87938741,73.0317619 84.8614926,100.40244 87.7443389,164.235865 Z" id="形状结合备份-2" fill="#A7E0EA" mask="url(#mask-2)"></path>
            <path d="M214.942845,6 C220.871468,25.1971967 230.040646,40.7464959 242.450381,52.6478975 C254.860116,64.5492992 256.333077,94.8455621 246.869266,143.536686 L231.510964,143.536613 C231.54076,143.202666 231.57019,142.869626 231.599254,142.537492 L231.599254,142.537492 L231.783927,140.380404 L231.958171,138.249108 L232.121984,136.1436 L232.275364,134.063878 L232.418308,132.009938 L232.550815,129.981777 L232.672884,127.979392 L232.784511,126.002779 L232.885695,124.051935 C232.901688,123.728942 232.917247,123.407022 232.93237,123.086176 L232.93237,123.086176 L233.017885,121.17398 L233.092953,119.287545 L233.15757,117.426868 L233.211735,115.591946 L233.255446,113.782775 L233.288702,111.999352 L233.311499,110.241674 L233.323836,108.509738 L233.32571,106.80354 C233.325151,106.521318 233.324156,106.240169 233.322724,105.960092 L233.322724,105.960092 L233.308902,104.292496 L233.284613,102.65063 C233.279693,102.379129 233.274336,102.108701 233.268543,101.839344 L233.268543,101.839344 L233.22855,100.236068 C233.221012,99.9709987 233.213037,99.7070012 233.204627,99.4440755 L233.204627,99.4440755 L233.148925,97.879381 L233.082748,96.3404038 C233.070845,96.0860505 233.058506,95.8327687 233.045731,95.5805582 L233.045731,95.5805582 L232.963838,94.0801509 L232.871464,92.6054529 L232.768609,91.1564609 C232.750593,90.9171042 232.73214,90.6788184 232.713251,90.4416036 L232.713251,90.4416036 L232.594669,89.0311645 L232.4656,87.6464233 L232.326043,86.2873767 L232.175994,84.9540216 L232.015453,83.6463547 L231.844417,82.3643726 C230.992375,76.2301929 229.772505,70.9959425 228.183795,66.6599747 L228.183795,66.6599747 L227.699258,65.3235498 C222.586267,51.0701284 220.240475,44.2606317 218.672046,30.1197821 C218.611163,29.5708635 217.122477,21.7881578 216.573558,21.847987 C216.311574,21.8775479 216.311008,23.6883023 216.388621,25.6329635 L216.412766,26.1908017 C216.503608,28.1460275 216.655178,30.0782757 216.684235,30.3402596 C218.319691,45.0854102 220.86443,52.4970351 226.305882,67.3480471 L226.305882,67.3480471 L226.465107,67.7893403 C228.202496,72.6791618 229.475055,78.7436295 230.281293,85.9803168 L230.281293,85.9803168 L230.422743,87.3089946 C230.445462,87.5325936 230.467752,87.7572688 230.489614,87.9830203 L230.489614,87.9830203 L230.615645,89.3504431 C230.655941,89.8105552 230.694524,90.2749716 230.731393,90.7436918 L230.731393,90.7436918 L230.836858,92.1627632 C230.853578,92.4014268 230.86987,92.6411663 230.885733,92.8819814 L230.885733,92.8819814 L230.975768,94.3397808 L231.055514,95.8233948 C231.067947,96.0728149 231.079952,96.3233104 231.091528,96.5748813 L231.091528,96.5748813 L231.155837,98.0972111 L231.209851,99.6453474 L231.25357,101.219287 C231.259998,101.48376 231.265998,101.749309 231.271568,102.015932 L231.271568,102.015932 L231.299839,103.62857 L231.317809,105.267004 L231.325476,106.931229 L231.322839,108.621243 C231.32154,108.905061 231.319812,109.189953 231.317655,109.47592 L231.317655,109.47592 L231.299556,111.204611 C231.295681,111.494875 231.291375,111.786213 231.286641,112.078624 L231.286641,112.078624 L231.253076,113.845985 L231.209199,115.639121 L231.155007,117.45803 L231.090498,119.302708 L231.01567,121.173152 L230.930521,123.069359 C230.915469,123.38754 230.899988,123.706795 230.884076,124.027122 L230.884076,124.027122 L230.783442,125.961967 L230.672482,127.922566 L230.551195,129.908917 L230.419578,131.921016 L230.277628,133.95886 L230.125346,136.022446 L229.962727,138.11177 L229.78977,140.226829 L229.606474,142.36762 L229.510948,143.447664 C229.508277,143.477553 229.506949,143.507252 229.506916,143.536702 L222.831847,143.536686 C226.776768,118.148194 224.95977,95.8514953 217.380851,76.6465912 C209.801932,57.4416872 208.989263,33.8928234 214.942845,6 Z" id="形状结合" fill="#A7E0EA" mask="url(#mask-2)"></path>
        </g>
    </g>
</svg>