<?xml version="1.0" encoding="UTF-8"?>
<svg width="251px" height="141px" viewBox="0 0 251 141" version="1.1" xmlns="http://www.w3.org/2000/svg" xmlns:xlink="http://www.w3.org/1999/xlink">
    <title>2</title>
    <defs>
        <path d="M4,0.489051095 L246,0.489051095 C248.209139,0.489051095 250,2.2799121 250,4.48905109 L250,140.489051 L250,140.489051 L0,140.489051 L0,4.48905109 C-2.705415e-16,2.2799121 1.790861,0.489051095 4,0.489051095 Z" id="path-1"></path>
    </defs>
    <g id="司南首页" stroke="none" stroke-width="1" fill="none" fill-rule="evenodd">
        <g id="2" transform="translate(0.500000, 0.000000)">
            <mask id="mask-2" fill="white">
                <use xlink:href="#path-1"></use>
            </mask>
            <use id="蒙版" fill="#F6C7C7" xlink:href="#path-1"></use>
            <g id="编组" mask="url(#mask-2)">
                <g transform="translate(150.000000, -25.500000)">
                    <g transform="translate(-0.001367, 0.326978)">
                        <g transform="translate(98.331614, 66.098038)" fill="#66A5FF" fill-opacity="0.75" id="路径">
                            <g transform="translate(31.240831, 43.990281) rotate(8.926408) translate(-31.240831, -43.990281) translate(2.740831, 24.490281)">
                                <path d="M5.06774722,30.8470113 C4.28578713,31.8204234 2.93177365,32.1225963 1.80842686,31.5736104 C1.77613353,31.555157 1.74384019,31.5390104 1.70924019,31.5228638 C0.931893435,31.1422643 0.387520042,30.4064386 0.249120027,29.5506664 C0.110720012,28.6925876 0.394440043,27.8229755 1.01493344,27.216323 C7.42516081,20.9191315 23.5972026,5.03313982 28.0352297,0.67354575 C28.3374031,0.375986155 28.7456831,0.212213044 29.1678032,0.216731488 C29.5922299,0.221439699 29.9958966,0.394439463 30.29115,0.698919049 C34.6369104,5.1669263 50.4444988,21.4242908 55.7359928,26.8680168 C56.1857928,27.3316561 56.4187662,27.9636819 56.3749395,28.6072411 C56.3311128,29.2508002 56.0150995,29.8459194 55.5076327,30.2426655 C55.5053261,30.2426655 55.5053261,30.2426655 55.5053261,30.2426655 C54.550366,30.9900245 53.1709791,30.828558 52.4143924,29.8805193 C47.4942719,23.7171144 30.8355234,2.84411613 30.8355234,2.84411613 C30.8355234,2.84411613 47.6303652,25.8899914 51.6116723,31.3521707 C51.828499,31.6497303 51.911539,32.0257164 51.8400323,32.3855559 C51.766219,32.7477021 51.544779,33.0614083 51.2310723,33.2528614 C51.2310723,33.2505547 51.2310723,33.2505547 51.2310723,33.2528614 C50.6151922,33.6242342 49.8124721,33.4350878 49.4295654,32.8284353 C45.9464984,27.3201228 30.47107,2.84411613 30.47107,2.84411613 C30.47107,2.84411613 44.5117515,26.3651641 48.3338986,32.7707687 C48.5784053,33.1790482 48.6383786,33.6749808 48.4953653,34.1293935 C48.3546586,34.5838063 48.0248052,34.9574858 47.5911519,35.1558588 C47.5911519,35.1558588 47.5911519,35.1558588 47.5911519,35.1558588 C46.9268318,35.4603384 46.142565,35.1812321 45.8196317,34.5284463 C42.9178447,28.6741343 30.1089233,2.84411613 30.1089233,2.84411613 C30.1089233,2.84411613 41.4761779,27.6153757 44.5832582,34.3877399 C44.7816316,34.8236993 44.7862449,35.3242453 44.5947915,35.7625113 C44.4033382,36.2030841 44.0319648,36.5375503 43.5752448,36.6874834 C43.5752448,36.6851767 43.5752448,36.6851767 43.5752448,36.6851767 C42.8763247,36.9135364 42.1220446,36.5467769 41.8683112,35.8570845 C39.619311,29.7328929 29.7467766,2.84411613 29.7467766,2.84411613 C29.7467766,2.84411613 38.0023375,28.1782016 40.3782044,35.4672584 C40.5396711,35.963191 40.4820044,36.505257 40.2167377,36.9550564 C39.951471,37.4048558 39.5062843,37.7208687 38.9942043,37.8200552 C38.9942043,37.8200552 38.9942043,37.8200552 38.9942043,37.8200552 C38.1476575,37.9838283 37.3218707,37.4486824 37.1281107,36.6067502 C35.5849506,29.8782127 29.3846299,2.84411613 29.3846299,2.84411613 C29.3846299,2.84411613 34.1386704,28.2450949 35.6010972,36.0646842 C35.7072039,36.6321235 35.5641906,37.218016 35.2066572,37.6701221 C34.8491238,38.1222281 34.3139771,38.3990277 33.7373104,38.4290144 C33.7350037,38.4290144 33.7350037,38.4290144 33.7350037,38.4290144 C32.6877769,38.479761 31.7927901,37.690882 31.7097501,36.6482701 C31.1284701,29.3522934 29.0201765,2.84411613 29.0201765,2.84411613 C29.0201765,2.84411613 29.8090566,28.2658549 30.0535633,36.2123107 C30.0743233,36.8189632 29.8367366,37.4048558 29.4030832,37.8315885 C28.9694298,38.2560146 28.3789231,38.479761 27.7722697,38.4497743 C27.7722697,38.4497743 27.7722697,38.4497743 27.769963,38.4497743 C27.188683,38.4197877 26.6420029,38.1545214 26.2590962,37.7162553 C25.8761895,37.2756826 25.6893495,36.6990167 25.7400961,36.1177375 C26.4205629,28.3627347 28.6580298,2.84411613 28.6580298,2.84411613 C28.6580298,2.84411613 25.2580028,27.880642 24.1877093,35.7625113 C24.1023626,36.3830038 23.7725093,36.9412164 23.2673492,37.3148959 C22.7644958,37.6862687 22.1324691,37.8385085 21.5142823,37.7370153 C21.5142823,37.7370153 21.5142823,37.7370153 21.5142823,37.7370153 C20.8591889,37.6286021 20.2802155,37.2503093 19.9203755,36.6897901 C19.5605355,36.1315775 19.4544288,35.4464984 19.6297355,34.8075526 C21.7749357,26.8933901 28.2958831,2.84411613 28.2958831,2.84411613 C28.2958831,2.84411613 20.1095222,27.4239227 17.6575353,34.7890993 C17.2700152,35.9493511 16.0451751,36.6067502 14.8641616,36.2884306 C14.8641616,36.2861239 14.8641616,36.2861239 14.8641616,36.2861239 C14.1744682,36.1015909 13.6024148,35.6171915 13.3071615,34.9667124 C13.0096014,34.3162333 13.0188281,33.5665676 13.3325348,32.9253152 C17.0831752,25.1979924 27.9337364,2.84411613 27.9337364,2.84411613 C27.9337364,2.84411613 14.1537082,27.3731761 10.7306145,33.4696878 C10.2900411,34.2539534 9.34430769,34.6022596 8.5000676,34.29086 C8.5000676,34.29086 8.5000676,34.29086 8.5000676,34.29086 C7.86573419,34.0555803 7.37672081,33.5388877 7.17834745,32.8930219 C6.97766743,32.2471561 7.09300077,31.5459304 7.48513415,30.9946378 C12.541348,23.9062608 27.569283,2.84411613 27.569283,2.84411613 C27.569283,2.84411613 10.0870544,24.6005665 5.06774722,30.8470113 Z"></path>
                            </g>
                        </g>
                        <g transform="translate(19.884068, 44.935847)" id="路径">
                            <g transform="translate(46.266838, 20.005159)" fill="#C93F48" opacity="0.124558222">
                                <path d="M37.3336391,104.535698 C37.3336391,104.535698 37.5225558,35.8109561 27.0525933,9.98670109 C24.9512194,4.81031677 22.3977388,1.33763436 19.3852314,0.346230242 C14.4697235,-1.27120244 8.0387353,3.75917006 0.0553600135,19.5789627 L0.288333404,19.7012158 C8.36166871,4.59902636 14.3705368,-0.44334079 19.0807513,1.23083582 C21.862592,2.21901061 24.0746859,5.57220783 25.9130997,10.4330405 C35.7002887,36.2976622 33.8734083,104.484952 33.8734083,104.484952 L37.3336391,104.535698 Z"></path>
                            </g>
                            <g transform="translate(16.885425, 32.186035)" fill="#D95C5C" opacity="0.146228609">
                                <path d="M2.74724067,8.95216236 C2.19825387,9.10670883 1.60774706,9.0259756 1.12104027,8.7261093 C0.634333488,8.426243 0.295253405,7.93723027 0.186840046,7.37671095 C0.186840046,7.37671095 0.186840046,7.37671095 0.186840046,7.37671095 C0.080733353,6.83464495 0.200680049,6.27412564 0.51669346,5.82201953 C0.835013537,5.37222008 1.32172032,5.07004712 1.86609379,4.98470055 C8.64538878,3.93055518 30.0535673,0.599732598 33.5251015,0.0599732598 C33.8388083,0.0115333192 34.1617417,0.0299866299 34.4685284,0.113026528 C37.9377559,1.04953205 59.7219213,6.93844483 65.8230561,8.58770947 C66.2451762,8.700736 66.6027096,8.98214899 66.8126163,9.36505518 C67.022523,9.74565472 67.0686564,10.1977608 66.939483,10.615267 C66.939483,10.615267 66.939483,10.615267 66.9371763,10.615267 C66.8056963,11.0396931 66.5058296,11.3926127 66.1067761,11.5886791 C65.705416,11.7847455 65.2440826,11.8078122 64.8265758,11.6532657 C58.510921,9.30277526 35.4119553,0.703532471 35.4119553,0.703532471 C35.4119553,0.703532471 57.7404941,9.99708108 64.1414957,12.6612778 C64.5843758,12.8458109 64.9303759,13.2056505 65.0987626,13.6554499 C65.2648426,14.1052494 65.2394693,14.6034888 65.0249492,15.0325282 C65.0226425,15.0325282 65.0226425,15.0348349 65.0226425,15.0348349 C64.8173492,15.4454211 64.4552024,15.7568207 64.0169356,15.8952205 C63.5786689,16.0336203 63.1034954,15.9897937 62.697522,15.7729673 C56.7048005,12.5690113 35.1628353,1.04030539 35.1628353,1.04030539 C35.1628353,1.04030539 56.049707,13.1941172 62.1277752,16.7325395 C62.5591219,16.9816592 62.8659087,17.3991653 62.9766287,17.8858714 C63.0873487,18.3702708 62.9927754,18.8823502 62.711362,19.2929363 C62.711362,19.2929363 62.711362,19.2929363 62.711362,19.2929363 C62.4414819,19.6919892 62.0216685,19.9641755 61.546495,20.0472154 C61.0736282,20.1302553 60.5869215,20.0172288 60.1970947,19.7335091 C54.6034267,15.6691675 34.9229419,1.37015832 34.9229419,1.37015832 C34.9229419,1.37015832 53.4662397,16.3058067 59.0737478,20.8222545 C59.4889479,21.1567207 59.7449879,21.6480401 59.7795879,22.1808795 C59.8164946,22.7114122 59.6273479,23.2350248 59.2605878,23.6202377 C59.2582811,23.6202377 59.2582811,23.6202377 59.2582811,23.6202377 C58.9053611,23.9916106 58.4163476,24.2038237 57.9065741,24.208437 C57.394494,24.2130503 56.9031739,24.0123706 56.5433338,23.6479177 C51.5839993,18.6286172 34.6576751,1.4924115 34.6576751,1.4924115 C34.6576751,1.4924115 49.7317455,18.8938835 54.72568,24.6582364 C55.1431868,25.1380225 55.3392535,25.7700484 55.2700535,26.4020743 C55.1985468,27.0317935 54.8686934,27.6061528 54.3589199,27.982139 C54.2758799,28.0421123 54.1928399,28.1043922 54.1121065,28.1643655 C53.6023331,28.5357383 52.9610796,28.6810582 52.3405861,28.5634183 C51.7200926,28.4434718 51.1780258,28.0744056 50.8412524,27.5392596 C46.7745981,21.0829075 34.4777551,1.56161142 34.4777551,1.56161142 C34.4777551,1.56161142 45.4667178,21.7195467 49.1297053,28.4411651 C49.4364921,28.9993778 49.4918521,29.6613903 49.2865587,30.2657362 C49.0812653,30.8700821 48.6314652,31.3590949 48.0478784,31.6151346 C47.7756917,31.7327744 47.4965849,31.8527209 47.2243982,31.9703608 C46.6431181,32.2148672 45.9857179,32.2079472 45.4090511,31.9496008 C44.8323843,31.6935611 44.3895042,31.2068551 44.1842108,30.6094291 C41.7160769,23.4149446 34.270155,1.6838646 34.270155,1.6838646 C34.270155,1.6838646 40.1083298,23.8647441 42.1012903,31.4467481 C42.269677,32.078774 42.1566503,32.7523198 41.7921969,33.2943858 C41.4277435,33.8364518 40.84877,34.1985981 40.2005965,34.2839446 C39.711583,34.3254646 39.2087296,34.3646779 38.7243295,34.4015845 C38.110756,34.4684777 37.4994892,34.281638 37.0266224,33.8871984 C36.5537556,33.4927589 36.2608089,32.9253196 36.2123688,32.311747 C35.6472354,24.8796762 33.8964749,1.81534444 33.8964749,1.81534444 C33.8964749,1.81534444 34.069475,24.5913432 34.1271417,32.2240938 C34.131755,32.8630397 33.8687949,33.471999 33.4028482,33.9079584 C32.9369014,34.3416112 32.3094879,34.563051 31.6728477,34.5123043 C31.4790877,34.4961577 31.2807143,34.4800111 31.0869543,34.4638644 C30.4595408,34.4108111 29.882874,34.1017182 29.4930472,33.6057855 C29.1032204,33.1121594 28.9348337,32.4801335 29.0271004,31.8573343 C30.152754,24.3629835 33.5435549,1.75998451 33.5435549,1.75998451 C33.5435549,1.75998451 28.9602071,24.1922903 27.4470334,31.6036012 C27.3224733,32.2171738 26.9464866,32.7477065 26.4113398,33.0706394 C25.876193,33.3935724 25.2303262,33.4766123 24.6305927,33.3036125 C24.6305927,33.3013058 24.6305927,33.3013058 24.628286,33.3013058 C24.0400859,33.128306 23.5487658,32.7223332 23.269659,32.1779605 C22.9905523,31.6335879 22.9467256,30.9969487 23.1497123,30.4202827 C25.6339929,23.3388247 33.2782881,1.56161142 33.2782881,1.56161142 C33.2782881,1.56161142 24.386086,22.6698922 21.4312452,29.6775369 C21.1844318,30.2634296 20.7046451,30.720149 20.1049116,30.9369754 C19.5051781,31.1538018 18.8454713,31.1076685 18.2803378,30.8147222 C18.2388178,30.7916556 18.1972978,30.7685889 18.1557778,30.747829 C17.599871,30.4548827 17.1892842,29.9474166 17.0208975,29.3453774 C16.8525108,28.7410314 16.9378575,28.0951656 17.2630975,27.5577129 C21.1498318,21.0875208 33.0037947,1.37015832 33.0037947,1.37015832 C33.0037947,1.37015832 19.5351648,19.9042023 15.0302437,26.102208 C14.6542569,26.6189007 14.0775901,26.9556736 13.4432566,27.0271802 C12.8089231,27.0986868 12.172283,26.9003137 11.6901895,26.4828075 C11.6578962,26.4505142 11.6256028,26.4205276 11.5933095,26.3928476 C11.1227494,25.9799548 10.841336,25.3963689 10.8159626,24.771263 C10.7905893,24.1484637 11.021256,23.5418111 11.4549095,23.0943183 C16.7048841,17.6713517 32.8031147,1.04030539 32.8031147,1.04030539 C32.8031147,1.04030539 15.5746171,16.2642867 9.8402424,21.3320272 C9.36506895,21.75184 8.73304213,21.9548264 8.10101531,21.8902398 C7.46898849,21.8256532 6.89232168,21.5004136 6.51172159,20.9929476 C6.43560157,20.8891477 6.35717489,20.7853478 6.28105487,20.681548 C5.90506811,20.1763886 5.75513474,19.5374427 5.86816143,18.9169501 C5.98118813,18.2964576 6.34564155,17.7497782 6.87386835,17.408392 C13.2702566,13.2886904 32.579368,0.851158956 32.579368,0.851158956 C32.579368,0.851158956 12.2437897,11.6278924 5.53369468,15.184768 C4.98009455,15.4777144 4.32961439,15.528461 3.73910758,15.3231679 C3.1462941,15.1201815 2.66650732,14.6796087 2.41046726,14.1098627 C2.41046726,14.107556 2.41046726,14.107556 2.41046726,14.107556 C2.15442719,13.5355034 2.14750719,12.8827175 2.39201392,12.3060516 C2.63652064,11.727079 3.10938743,11.2772795 3.69758757,11.0627598 C10.8228826,8.45392297 32.3579279,0.572052632 32.3579279,0.572052632 C32.3579279,0.572052632 9.8333224,6.94767148 2.74724067,8.95216236 Z"></path>
                            </g>
                            <g transform="translate(34.310749, 41.418996) rotate(61.408008) translate(-34.310749, -41.418996) translate(-2.189251, 22.418996)" fill="#D95C5C" opacity="0.146228609">
                                <path d="M2.96248755,9.66980426 C2.36949172,9.83923139 1.73413905,9.74953468 1.21090744,9.42812145 C0.685184252,9.10670821 0.318922125,8.57849422 0.201817907,7.97304139 C0.204309486,7.97304139 0.201817907,7.97304139 0.201817907,7.97304139 C0.0896968475,7.38502959 0.219258961,6.77957676 0.560605297,6.29122797 C0.904443213,5.80287919 1.4301664,5.47399123 2.02067065,5.38429451 C9.37332057,4.23816981 32.6222451,0.622893859 36.2499843,0.0597978104 C36.5664148,0.00996630174 36.8878286,0.0274073298 37.1942928,0.112120895 C40.8170488,1.09131004 64.4845586,7.48718418 71.0997012,9.27613534 C71.5556601,9.39822254 71.9418549,9.70219474 72.1685886,10.1157963 C72.3953223,10.5293978 72.4451539,11.0177466 72.3056254,11.4687217 C72.3031339,11.4687217 72.3031339,11.4687217 72.3031339,11.4687217 C72.1611138,11.9271716 71.8372086,12.3058911 71.4061654,12.517675 C70.9751222,12.7294589 70.4743148,12.7543747 70.0258306,12.5874391 C63.203887,10.0485237 38.2507223,0.759930508 38.2507223,0.759930508 C38.2507223,0.759930508 62.3791743,10.8034711 69.2883231,13.6787491 C69.7642148,13.8780752 70.1379516,14.2642694 70.3173453,14.7501266 C70.4992306,15.2334922 70.4693316,15.7716725 70.2401064,16.232614 C70.2376148,16.232614 70.2376148,16.2351055 70.2376148,16.2351055 C70.0158642,16.6810975 69.6221947,17.0174602 69.1463031,17.1669547 C68.6729031,17.3189408 68.1571462,17.2716009 67.7186283,17.0349012 C61.2405227,13.5691198 37.9816318,1.12370052 37.9816318,1.12370052 C37.9816318,1.12370052 60.5503552,14.2567946 67.1131746,18.0763798 C67.5766083,18.3454699 67.9079883,18.7964451 68.0275841,19.3196759 C68.1471799,19.8429068 68.0425336,20.3910534 67.7410525,20.8370454 C67.7410525,20.8370454 67.7410525,20.8370454 67.7410525,20.8370454 C67.4470462,21.2680879 66.9935788,21.5620938 66.4803135,21.6517905 C65.9670482,21.7414872 65.441325,21.6194 65.0202482,21.3154278 C58.9731857,16.9202888 37.7225075,1.47999581 37.7225075,1.47999581 C37.7225075,1.47999581 57.7622782,17.6204215 63.8118323,22.493943 C64.2603165,22.8552215 64.5368818,23.385927 64.5742555,23.9589894 C64.6141208,24.5320517 64.4098113,25.0926562 64.0136502,25.5112409 C64.0111586,25.5087493 64.0111586,25.5112409 64.0111586,25.5112409 C63.629947,25.9123845 63.1017322,26.1416095 62.5486017,26.1465926 C61.9929795,26.1515758 61.4622732,25.9323171 61.0710953,25.5386482 C55.7092171,20.1119969 37.435976,1.61204931 37.435976,1.61204931 C37.435976,1.61204931 53.9825527,20.7124666 59.2422762,26.7819443 C59.6558784,27.2628184 59.8527131,27.893187 59.7854405,28.5235556 C59.7156763,29.1539242 59.3867878,29.7244949 58.8785057,30.1032144 C58.6816709,30.2502174 58.4823446,30.3972203 58.2855098,30.5442233 C57.7772277,30.9129764 57.1368919,31.0549962 56.5189803,30.9354006 C55.8985771,30.815805 55.3579044,30.4470518 55.0240328,29.9138547 C50.7385168,23.1168369 37.2416328,1.68679657 37.2416328,1.68679657 C37.2416328,1.68679657 49.3058588,23.8169696 53.1628232,30.8955354 C53.4692875,31.4536483 53.5265938,32.1139158 53.3222843,32.716877 C53.1179748,33.3198383 52.6694906,33.8081871 52.0889526,34.0673109 C51.6703673,34.2491959 51.2393242,34.4335725 50.8232304,34.6129659 C50.2402009,34.8546488 49.5849156,34.847174 49.0093609,34.5880502 C48.4362977,34.3314179 47.9927966,33.8455607 47.7884871,33.2500742 C45.1922617,25.6731933 37.0173907,1.81885007 37.0173907,1.81885007 C37.0173907,1.81885007 43.4332068,26.1939325 45.5311164,34.1769402 C45.6980522,34.8073088 45.5859312,35.4775426 45.2246522,36.0207061 C44.8633732,36.5613779 44.2853269,36.9226564 43.6400079,37.0123531 C42.982231,37.0696593 42.2870805,37.124474 41.6367783,37.1743055 C41.0238499,37.2390864 40.413413,37.0522183 39.9400129,36.6585494 C39.4691045,36.2648805 39.1775897,35.6968013 39.1302497,35.0838737 C38.5347623,27.2578353 36.6137549,1.96086987 36.6137549,1.96086987 C36.6137549,1.96086987 36.8031149,26.9663209 36.8629128,35.0066349 C36.8678959,35.6444782 36.6062801,36.2524226 36.1428464,36.6884483 C35.6769211,37.124474 35.0515348,37.3437326 34.4161821,37.2963927 C34.0723442,37.2689854 33.7210315,37.2390864 33.3796852,37.2116791 C32.7518072,37.1568645 32.1762525,36.8454175 31.7900577,36.3520856 C31.4013714,35.8587537 31.231944,35.2258935 31.326624,34.6054912 C32.5101241,26.7096887 36.2325432,1.90107206 36.2325432,1.90107206 C36.2325432,1.90107206 31.2219777,26.4256491 29.6174007,34.2815864 C29.4903302,34.9044803 29.1091186,35.4476437 28.5634628,35.7765317 C28.0202985,36.1054196 27.3625217,36.1926248 26.7520848,36.0157229 C26.6549132,35.985824 26.5602332,35.9584167 26.4630616,35.9285178 C25.8650826,35.7541075 25.3642752,35.3380144 25.0802352,34.7823931 C24.7961952,34.2267717 24.7513468,33.5789621 24.9581478,32.9909503 C27.5917469,25.4888167 35.9460117,1.68679657 35.9460117,1.68679657 C35.9460117,1.68679657 26.1815132,24.8609397 23.074514,32.2384946 C22.8278477,32.8240148 22.3469729,33.2799731 21.7514855,33.4967401 C21.1535065,33.7135072 20.4932381,33.6711504 19.9301412,33.3796361 C19.7632054,33.292431 19.5962696,33.2052258 19.4318254,33.1180207 C18.8786948,32.8240148 18.4700759,32.318225 18.3031401,31.7152637 C18.1362043,31.1123025 18.2234095,30.469476 18.5448232,29.9312957 C22.6384877,23.12182 35.6495137,1.47999581 35.6495137,1.47999581 C35.6495137,1.47999581 20.8595002,21.831184 16.1155336,28.3591116 C15.7417967,28.8748677 15.1687336,29.2087388 14.5333809,29.2809945 C13.9005198,29.3557418 13.2651671,29.1589073 12.7842924,28.7428142 C12.6472555,28.620727 12.5102187,28.4961482 12.3731818,28.3740611 C11.9047649,27.9629511 11.6257081,27.3774309 11.6032839,26.7570286 C11.5783681,26.1341347 11.8075933,25.5286819 12.2411281,25.0826899 C17.7674506,19.371999 35.4327464,1.12370052 35.4327464,1.12370052 C35.4327464,1.12370052 16.5191694,17.834697 10.4820733,23.1716515 C10.0061817,23.5927278 9.37581215,23.7945454 8.74544264,23.732256 C8.11507312,23.6674751 7.53702677,23.3435702 7.15581517,22.8377804 C6.99137095,22.6185218 6.82692673,22.3967716 6.66248251,22.1800045 C6.28874564,21.6742147 6.14174248,21.0338798 6.25386354,20.4159691 C6.36847618,19.7955668 6.73224672,19.2524034 7.26046149,18.9110575 C13.9976914,14.5707331 35.1910632,0.919391335 35.1910632,0.919391335 C35.1910632,0.919391335 12.9063797,12.7294589 5.82282035,16.4842631 C5.26470663,16.778269 4.61191291,16.8305921 4.01642551,16.6262829 C3.41844652,16.4219737 2.93508018,15.9784733 2.67595595,15.4054109 C2.62861595,15.29329 2.57878437,15.1836607 2.53144436,15.0740314 C2.27481172,14.4984775 2.26733698,13.8407015 2.51400331,13.2601645 C2.76066964,12.6796274 3.23656125,12.2261607 3.82955707,12.0093936 C11.3516344,9.25620274 34.9518716,0.617910708 34.9518716,0.617910708 C34.9518716,0.617910708 10.6091438,7.50711678 2.96248755,9.66980426 Z"></path>
                            </g>
                        </g>
                        <g transform="translate(99.852467, 124.862722)" fill="#66A5FF" id="路径">
                            <g transform="translate(0.269295, 2.745326)">
                                <path d="M4.61794779,41.4968825 C4.61794779,41.4968825 -1.06798693,16.9701259 7.71810855,6.15648578 C12.8250698,-0.129173175 22.7298989,-1.50163816 41.3631568,8.87142912 L41.4969435,8.64537607 C22.4392588,-3.05402292 11.9300829,-1.40475828 6.29720154,4.95240726 C-3.48768085,15.9990204 1.22714697,42.1911883 1.22714697,42.1911883 L4.61794779,41.4968825 Z"></path>
                            </g>
                        </g>
                        <g transform="translate(0.260002, 91.144248)" id="路径">
                            <g transform="translate(35.249871, 16.244537)" fill="#C93F48" opacity="0.124558222">
                                <path d="M64.9649759,62.2868436 C64.9649759,62.2868436 69.1054435,26.3144211 52.4513061,9.12977547 C43.1139172,-0.505159381 27.20022,-4.4080346 0.223746721,7.62813731 L0.325240079,7.87033702 C26.9003532,-3.07247623 42.2881303,0.772732386 51.0972925,10.4076672 C66.6142429,27.3777931 61.532655,61.8370442 61.532655,61.8370442 L64.9649759,62.2868436 Z"></path>
                            </g>
                            <g transform="translate(34.239486, 39.165541) rotate(22.727633) translate(-34.239486, -39.165541) translate(5.739486, 19.665541)" fill="#D95C5C" opacity="0.146228609">
                                <path d="M5.0677438,30.8469905 C4.28578424,31.8204019 2.93177167,32.1225746 1.80842564,31.573589 C1.77613233,31.5551357 1.74383901,31.5389891 1.70923903,31.5228425 C0.931892806,31.1422432 0.387519781,30.4064181 0.249119859,29.5506465 C0.110719937,28.6925682 0.394439777,27.8229567 1.01493276,27.2163046 C7.42515579,20.9191174 23.5971866,5.03313642 28.0352108,0.673545295 C28.337384,0.375985901 28.7456637,0.212212901 29.1677835,0.216731342 C29.5922099,0.221439549 29.9958763,0.394439197 30.2911295,0.698918577 C34.6368871,5.16692281 50.4444648,21.4242764 55.7359551,26.8679986 C56.1857548,27.3316377 56.418728,27.963663 56.3749014,28.6072217 C56.3310748,29.2507804 56.0150616,29.8458992 55.5075952,30.2426451 C55.5052886,30.2426451 55.5052886,30.2426451 55.5052886,30.2426451 C54.5503291,30.9900035 53.1709432,30.8285372 52.414357,29.8804991 C47.4942398,23.7170984 30.8355025,2.84411421 30.8355025,2.84411421 C30.8355025,2.84411421 47.630333,25.8899739 51.6116374,31.3521495 C51.828464,31.6497089 51.9115039,32.0256948 51.8399973,32.385534 C51.766184,32.74768 51.5447441,33.061386 51.2310377,33.2528389 C51.2310377,33.2505323 51.2310377,33.2505323 51.2310377,33.2528389 C50.615158,33.6242115 49.8124385,33.4350652 49.429532,32.8284131 C45.9464673,27.3201044 30.4710494,2.84411421 30.4710494,2.84411421 C30.4710494,2.84411421 44.5117215,26.3651463 48.333866,32.7707466 C48.5783725,33.1790258 48.6383458,33.6749581 48.4953325,34.1293705 C48.3546259,34.5837829 48.0247728,34.9574621 47.5911197,35.1558351 C47.5911197,35.1558351 47.5911197,35.1558351 47.5911197,35.1558351 C46.9268001,35.4603144 46.1425339,35.1812083 45.8196007,34.528423 C42.9178157,28.6741149 30.1089029,2.84411421 30.1089029,2.84411421 C30.1089029,2.84411421 41.4761498,27.6153571 44.5832281,34.3877166 C44.7816013,34.8236757 44.7862146,35.3242214 44.5947614,35.7624872 C44.4033082,36.2007529 44.0319351,36.5375256 43.5752153,36.6874586 C43.5752153,36.6851519 43.5752153,36.6851519 43.5752153,36.6851519 C42.8762957,36.9135115 42.1220161,36.5467522 41.868283,35.8570603 C39.6192842,29.7328728 29.7467565,2.84411421 29.7467565,2.84411421 C29.7467565,2.84411421 38.0023118,28.1781826 40.3781771,35.4672344 C40.5396437,35.9631668 40.4819771,36.5052323 40.2167106,36.9550314 C39.951444,37.4048305 39.5062576,37.7208432 38.9941779,37.8200296 C38.9941779,37.8200296 38.9941779,37.8200296 38.9941779,37.8200296 C38.1476317,37.9838026 37.3218455,37.4486571 37.1280856,36.6067254 C35.5849265,29.8781925 29.38461,2.84411421 29.38461,2.84411421 C29.38461,2.84411421 34.1386473,28.2450758 35.6010732,36.0646599 C35.7094864,36.6320987 35.5641665,37.2179909 35.2066334,37.6700966 C34.8491003,38.124509 34.3139539,38.4013085 33.7372876,38.4289884 C33.7349809,38.4289884 33.7349809,38.4289884 33.7349809,38.4289884 C32.6877548,38.479735 31.7927687,37.6908566 31.7097287,36.6482454 C31.128449,29.3522736 29.0201569,2.84411421 29.0201569,2.84411421 C29.0201569,2.84411421 29.8090365,28.2658358 30.053543,36.2122862 C30.074303,36.8189383 29.8367164,37.4048305 29.4030633,37.8315629 C28.9694103,38.2559888 28.3789039,38.479735 27.7722509,38.4497484 C27.7722509,38.4497484 27.7722509,38.4497484 27.7699443,38.4497484 C27.1886646,38.4197618 26.6419849,38.1544956 26.2590785,37.7162298 C25.876172,37.2756574 25.6893321,36.6989919 25.7400788,36.1177131 C26.420545,28.3627156 28.6580104,2.84411421 28.6580104,2.84411421 C28.6580104,2.84411421 25.2579857,27.8806232 24.187693,35.7624872 C24.1023464,36.3829792 23.7724932,36.9411914 23.2673335,37.3148707 C22.7644804,37.6862432 22.1324541,37.8384829 21.5142678,37.7369898 C21.5142678,37.7369898 21.5142678,37.7369898 21.5142678,37.7369898 C20.8591749,37.6285767 20.2802018,37.2502841 19.9203621,36.6897653 C19.5605223,36.1315531 19.4544156,35.4464745 19.6297222,34.8075291 C21.774921,26.8933719 28.295864,2.84411421 28.295864,2.84411421 C28.295864,2.84411421 20.1095086,27.4239041 17.6575233,34.7890758 C17.2700036,35.9493268 16.0451642,36.6067254 14.8641516,36.2884061 C14.8641516,36.2860994 14.8641516,36.2860994 14.8641516,36.2860994 C14.1744586,36.1015665 13.6024056,35.6171675 13.3071525,34.9666888 C13.0095926,34.3162101 13.0188193,33.566545 13.3325258,32.9252929 C17.0831637,25.1979753 27.9337175,2.84411421 27.9337175,2.84411421 C27.9337175,2.84411421 14.1536987,27.3731576 10.7306073,33.4696652 C10.2900342,34.2539302 9.34430137,34.6022362 8.50006185,34.2908368 C8.50006185,34.2908368 8.50006185,34.2908368 8.50006185,34.2908368 C7.86572888,34.0555573 7.37671582,33.538865 7.1783426,32.8929997 C6.97766272,32.2471343 7.09299598,31.5459091 7.48512909,30.9946169 C12.5413396,23.9062446 27.5692644,2.84411421 27.5692644,2.84411421 C27.5692644,2.84411421 10.0870476,24.6005499 5.0677438,30.8469905 Z"></path>
                            </g>
                            <g transform="translate(53.186488, 37.224132) rotate(-35.910731) translate(-53.186488, -37.224132) translate(16.686488, 18.224132)" fill="#D95C5C" opacity="0.146228609">
                                <path d="M2.96248767,9.66980464 C2.36949182,9.83923178 1.73413912,9.74953506 1.21090749,9.42812182 C0.685184279,9.10670857 0.318922137,8.57849456 0.201817915,7.97304171 C0.204309494,7.97304171 0.201817915,7.97304171 0.201817915,7.97304171 C0.0896968511,7.38502988 0.219258969,6.77957703 0.560605319,6.29122822 C0.904443248,5.80287942 1.43016646,5.47399145 2.02067073,5.38429473 C9.37332094,4.23816998 32.6222464,0.622893883 36.2499857,0.0597978128 C36.5664163,0.00996630213 36.88783,0.0274073309 37.1942943,0.112120899 C40.8170504,1.09131008 64.4845612,7.48718448 71.099704,9.27613571 C71.555663,9.39822291 71.9418577,9.70219513 72.1685914,10.1157967 C72.3953251,10.5293982 72.4451567,11.017747 72.3056283,11.4687222 C72.3031367,11.4687222 72.3031367,11.4687222 72.3031367,11.4687222 C72.1611167,11.9271721 71.8372114,12.3058916 71.4061682,12.5176755 C70.975125,12.7294594 70.4743176,12.7543752 70.0258333,12.5874396 C63.2038895,10.0485241 38.2507238,0.759930538 38.2507238,0.759930538 C38.2507238,0.759930538 62.3791768,10.8034715 69.2883259,13.6787497 C69.7642175,13.8780757 70.1379544,14.2642699 70.3173481,14.7501272 C70.4992334,15.2334928 70.4693344,15.7716731 70.2401091,16.2326146 C70.2376176,16.2326146 70.2376176,16.2351062 70.2376176,16.2351062 C70.015867,16.6810982 69.6221975,17.0174609 69.1463059,17.1669554 C68.6729058,17.3189415 68.1571489,17.2716016 67.718631,17.0349019 C61.2405251,13.5691204 37.9816333,1.12370057 37.9816333,1.12370057 C37.9816333,1.12370057 60.5503576,14.2567952 67.1131772,18.0763805 C67.576611,18.3454707 67.907991,18.7964458 68.0275868,19.3196767 C68.1471826,19.8429075 68.0425363,20.3910542 67.7410552,20.8370462 C67.7410552,20.8370462 67.7410552,20.8370462 67.7410552,20.8370462 C67.4495404,21.2680888 66.9935814,21.5620947 66.4803161,21.6517914 C65.9670508,21.7414881 65.4413276,21.6194009 65.0202507,21.3154287 C58.973188,16.9202894 37.722509,1.47999587 37.722509,1.47999587 C37.722509,1.47999587 57.7622805,17.6204222 63.8118348,22.4939439 C64.2603191,22.8552224 64.5368844,23.385928 64.574258,23.9589903 C64.6141233,24.5320527 64.4098138,25.0926572 64.0136527,25.5112419 C64.0111611,25.5087503 64.0111611,25.5112419 64.0111611,25.5112419 C63.6299495,25.9123855 63.1017347,26.1416105 62.5486042,26.1465936 C61.992982,26.1515768 61.4622756,25.9323182 61.0710977,25.5386492 C55.7092193,20.1119977 37.4359774,1.61204937 37.4359774,1.61204937 C37.4359774,1.61204937 53.9825549,20.7124674 59.2422786,26.7819454 C59.6558807,27.2628195 59.8527155,27.8931881 59.7854428,28.5235567 C59.7156786,29.1539253 59.3867902,29.7244961 58.878508,30.1032156 C58.6816732,30.2502185 58.4823469,30.3972215 58.2855122,30.5442245 C57.77723,30.9129776 57.1368941,31.0549974 56.5189825,30.9354018 C55.8985793,30.8158062 55.3579066,30.447053 55.024035,29.9138559 C50.7385188,23.1168378 37.2416343,1.68679664 37.2416343,1.68679664 C37.2416343,1.68679664 49.3058607,23.8169705 53.1628253,30.8955366 C53.4692896,31.4536495 53.5265959,32.113917 53.3222864,32.7168783 C53.1179769,33.3198396 52.6694926,33.8081884 52.0889547,34.0673123 C51.6703694,34.2491973 51.2393262,34.4335739 50.8232325,34.6129673 C50.2402029,34.8546501 49.5849176,34.8471754 49.0093628,34.5880516 C48.4362996,34.3314193 47.9927985,33.845562 47.788489,33.2500755 C45.1922635,25.6731943 37.0173921,1.81885014 37.0173921,1.81885014 C37.0173921,1.81885014 43.4332086,26.1939336 45.5311182,34.1769416 C45.698054,34.8073102 45.585933,35.477544 45.224654,36.0207075 C44.863375,36.5613794 44.2853286,36.9226578 43.6400096,37.0123545 C42.9822327,37.0696608 42.2870821,37.1244754 41.63678,37.174307 C41.0238515,37.2390879 40.4134146,37.0522198 39.9400145,36.6585508 C39.4691061,36.2648819 39.1775913,35.6968027 39.1302513,35.0838751 C38.5347639,27.2578363 36.6137563,1.96086994 36.6137563,1.96086994 C36.6137563,1.96086994 36.8031163,26.966322 36.8629142,35.0066362 C36.8678974,35.6444796 36.6062816,36.252424 36.1428478,36.6884497 C35.6769225,37.1244754 35.0515361,37.3437341 34.4161834,37.2963942 C34.0723455,37.2689868 33.7210329,37.2390879 33.3796865,37.2116806 C32.7518085,37.1568659 32.1762537,36.845419 31.790059,36.352087 C31.4013726,35.8587551 31.2319452,35.2258949 31.3266252,34.6054926 C32.5101254,26.7096897 36.2325447,1.90107213 36.2325447,1.90107213 C36.2325447,1.90107213 31.2219789,26.4256501 29.6174019,34.2815878 C29.4903314,34.9044816 29.1091198,35.4476451 28.5634639,35.7765331 C28.0202996,36.1054211 27.3625227,36.1926262 26.7520858,36.0157243 C26.6549142,35.9858254 26.5602342,35.9584181 26.4630626,35.9285192 C25.8650836,35.7541089 25.3642762,35.3380158 25.0802362,34.7823944 C24.7961962,34.2267731 24.7513477,33.5789635 24.9581488,32.9909516 C27.591748,25.4888177 35.9460131,1.68679664 35.9460131,1.68679664 C35.9460131,1.68679664 26.1815142,24.8609407 23.0745149,32.2384958 C22.8278486,32.8240161 22.3469738,33.2799744 21.7514864,33.4967415 C21.1535074,33.7135085 20.4932389,33.6711518 19.930142,33.3796374 C19.7632062,33.2924323 19.5962704,33.2052271 19.4318262,33.118022 C18.8786956,32.8240161 18.4700766,32.3182262 18.3031408,31.715265 C18.136205,31.1123037 18.2234102,30.4694772 18.544824,29.9312969 C22.6384886,23.1218209 35.6495151,1.47999587 35.6495151,1.47999587 C35.6495151,1.47999587 20.859501,21.8311848 16.1155342,28.3591127 C15.7417974,28.8748689 15.1687342,29.20874 14.5333815,29.2809957 C13.9005203,29.3557429 13.2651676,29.1589085 12.7842929,28.7428154 C12.647256,28.6207282 12.5102191,28.4961494 12.3731823,28.3740622 C11.9047654,27.9629522 11.6257085,27.377432 11.6032843,26.7570297 C11.5783685,26.1341358 11.8075938,25.5286829 12.2411286,25.0826909 C17.7674513,19.3719998 35.4327478,1.12370057 35.4327478,1.12370057 C35.4327478,1.12370057 16.5191701,17.8346977 10.4820737,23.1716525 C10.0061821,23.5927287 9.37581252,23.7945463 8.74544298,23.732257 C8.11507344,23.667476 7.53702707,23.3435712 7.15581545,22.8377813 C6.99137123,22.6185227 6.826927,22.3967725 6.66248277,22.1800054 C6.28874589,21.6742156 6.14174272,21.0338807 6.25386378,20.4159699 C6.36847643,19.7955676 6.73224699,19.2524041 7.26046178,18.9110583 C13.9976919,14.5707337 35.1910646,0.919391372 35.1910646,0.919391372 C35.1910646,0.919391372 12.9063802,12.7294594 5.82282058,16.4842637 C5.26470684,16.7782696 4.61191309,16.8305927 4.01642567,16.6262835 C3.41844666,16.4219743 2.93508029,15.9784739 2.67595606,15.4054115 C2.62861605,15.2932906 2.57878447,15.1836613 2.53144446,15.074032 C2.27481181,14.498478 2.26733707,13.8407021 2.51400341,13.260165 C2.76066975,12.6796279 3.23656138,12.2261611 3.82955723,12.0093941 C11.3516348,9.25620311 34.951873,0.617910732 34.951873,0.617910732 C34.951873,0.617910732 10.6091442,7.50711708 2.96248767,9.66980464 Z"></path>
                            </g>
                        </g>
                    </g>
                </g>
            </g>
            <g id="编组备份-4" mask="url(#mask-2)">
                <g transform="translate(-89.000000, -23.500000)" id="编组">
                    <g transform="translate(0.000000, 0.500000)">
                        <g transform="translate(98.331614, 66.098038)" id="路径">
                            <g transform="translate(51.543197, 34.892901) rotate(-59.867279) translate(-51.543197, -34.892901) translate(23.043197, 15.392901)" fill="#E44852" opacity="0.148042225">
                                <path d="M5.06774835,30.8470182 C4.28578809,31.8204305 2.93177431,32.1226035 1.80842727,31.5736174 C1.77613392,31.5551641 1.74384058,31.5390175 1.70924057,31.5228708 C0.931893644,31.1422712 0.387520129,30.4064454 0.249120083,29.5506731 C0.110720037,28.692594 0.394440131,27.8229817 1.01493367,27.216329 C7.42516247,20.9191362 23.5972079,5.03314094 28.035236,0.6735459 C28.3374094,0.375986239 28.7456896,0.212213092 29.1678097,0.216731536 C29.5922365,0.221439748 29.9959033,0.394439551 30.2911567,0.698919205 C34.6369182,5.16692746 50.4445101,21.4242956 55.7360052,26.8680228 C56.1858054,27.3316622 56.4187788,27.9636882 56.3749521,28.6072475 C56.3311254,29.2508067 56.015112,29.845926 55.5076451,30.2426723 C55.5053385,30.2426723 55.5053385,30.2426723 55.5053385,30.2426723 C54.5503782,30.9900314 53.170991,30.8285649 52.4144041,29.880526 C47.4942825,23.7171197 30.8355303,2.84411676 30.8355303,2.84411676 C30.8355303,2.84411676 47.6303759,25.8899972 51.6116838,31.3521777 C51.8285106,31.6497373 51.9115506,32.0257236 51.8377373,32.3855632 C51.7662306,32.7477094 51.5447905,33.0614157 51.2310837,33.2505622 C51.2310837,33.2505622 51.2310837,33.2505622 51.2310837,33.2528688 C50.6152035,33.6242418 49.8124832,33.4350953 49.4295765,32.8284427 C45.9465086,27.3201289 30.4710768,2.84411676 30.4710768,2.84411676 C30.4710768,2.84411676 44.5117615,26.36517 48.3339094,32.7707761 C48.5784162,33.1790556 48.6383895,33.6749884 48.4953761,34.1294012 C48.3546694,34.583814 48.024816,34.9574936 47.5911625,35.1558667 C47.5911625,35.1558667 47.5911625,35.1558667 47.5911625,35.1558667 C46.9268423,35.4603463 46.1425754,35.18124 45.8196419,34.5284541 C42.9178543,28.6741407 30.10893,2.84411676 30.10893,2.84411676 C30.10893,2.84411676 41.4761871,27.6153819 44.5832682,34.3877476 C44.7816416,34.8237071 44.7862549,35.3242532 44.5948015,35.7625193 C44.4033481,36.2030922 44.0319747,36.5375584 43.5752545,36.6874916 C43.5752545,36.6851849 43.5752545,36.6851849 43.5752545,36.6851849 C42.8763343,36.9135447 42.122054,36.5467851 41.8683206,35.8570925 C39.6193199,29.7328995 29.7467832,2.84411676 29.7467832,2.84411676 C29.7467832,2.84411676 38.002346,28.1782079 40.3782134,35.4672663 C40.5396802,35.9631991 40.4820135,36.5052651 40.2167467,36.9550646 C39.95148,37.4048641 39.5062932,37.7208771 38.994213,37.8200636 C38.994213,37.8200636 38.994213,37.8200636 38.994213,37.8200636 C38.147666,37.9838368 37.3218791,37.4486907 37.128119,36.6067584 C35.5849585,29.8782193 29.3846364,2.84411676 29.3846364,2.84411676 C29.3846364,2.84411676 34.138678,28.2451012 35.6011052,36.0646923 C35.7095186,36.6321317 35.5641985,37.2180243 35.2066651,37.6701305 C34.8491316,38.1245433 34.3139848,38.401343 33.7373179,38.429023 C33.7350112,38.429023 33.7350112,38.429023 33.7350112,38.429023 C32.6877842,38.4797696 31.7927972,37.6908905 31.7097572,36.6482783 C31.128477,29.3522999 29.020183,2.84411676 29.020183,2.84411676 C29.020183,2.84411676 29.8090633,28.2658612 30.05357,36.2123188 C30.07433,36.8189715 29.8367433,37.4048641 29.4030898,37.831597 C28.9694363,38.2560231 28.3789294,38.4797696 27.7722759,38.4497829 C27.7722759,38.4497829 27.7722759,38.4497829 27.7699692,38.4497829 C27.1886891,38.4197963 26.6420089,38.1545299 26.2591021,37.7162638 C25.8761953,37.2756909 25.6893552,36.6990249 25.7401019,36.1177456 C26.4205688,28.3627411 28.6580362,2.84411676 28.6580362,2.84411676 C28.6580362,2.84411676 25.2580084,27.8806483 24.1877147,35.7625193 C24.102368,36.3830119 23.7725146,36.9412246 23.2673544,37.3149042 C22.7645009,37.6862771 22.132474,37.838517 21.5142872,37.7370237 C21.5142872,37.7370237 21.5142872,37.7370237 21.5142872,37.7370237 C20.8591936,37.6286105 20.2802201,37.2503176 19.92038,36.6897983 C19.5605398,36.1315856 19.4544331,35.4465063 19.6297399,34.8075604 C21.7749406,26.8933961 28.2958894,2.84411676 28.2958894,2.84411676 C28.2958894,2.84411676 20.1095267,27.4239288 17.6575392,34.7891071 C17.2700191,35.9493591 16.0451787,36.6067584 14.8641649,36.2884387 C14.8641649,36.2861321 14.8641649,36.2861321 14.8641649,36.2861321 C14.1744714,36.1015989 13.6024179,35.6171995 13.3071644,34.9667202 C13.0096043,34.316241 13.018831,33.5665752 13.3325378,32.9253225 C17.083179,25.197998 27.9337426,2.84411676 27.9337426,2.84411676 C27.9337426,2.84411676 14.1537114,27.3731822 10.7306169,33.4696953 C10.2900434,34.253961 9.34430978,34.6022673 8.5000695,34.2908677 C8.5000695,34.2908677 8.5000695,34.2908677 8.5000695,34.2908677 C7.86573595,34.0555879 7.37672246,33.5388952 7.17834906,32.8930293 C6.97766899,32.2471633 7.09300236,31.5459374 7.48513582,30.9946447 C12.5413508,23.9062661 27.5692892,2.84411676 27.5692892,2.84411676 C27.5692892,2.84411676 10.0870567,24.600572 5.06774835,30.8470182 Z"></path>
                            </g>
                            <g transform="translate(6.062214, 23.990768)" fill="#D14343" opacity="0.187104725">
                                <path d="M3.81753427,79.2523562 C3.81753427,79.2523562 0.865000211,42.5625611 9.09288222,19.2721764 C14.0545234,5.22459359 23.138179,-3.84751528 39.4601563,3.16243612 L39.566263,2.92254308 C26.8449932,-3.02172963 18.2180578,0.980332131 12.345283,9.55881495 C-1.99526715,30.5033226 0.362146755,79.4737959 0.362146755,79.4737959 L3.81753427,79.2523562 Z"></path>
                            </g>
                            <g transform="translate(31.240831, 43.990281) rotate(8.926408) translate(-31.240831, -43.990281) translate(2.740831, 24.490281)" fill="#E44852" opacity="0.148042225">
                                <path d="M5.06774722,30.8470113 C4.28578713,31.8204234 2.93177365,32.1225963 1.80842686,31.5736104 C1.77613353,31.555157 1.74384019,31.5390104 1.70924019,31.5228638 C0.931893435,31.1422643 0.387520042,30.4064386 0.249120027,29.5506664 C0.110720012,28.6925876 0.394440043,27.8229755 1.01493344,27.216323 C7.42516081,20.9191315 23.5972026,5.03313982 28.0352297,0.67354575 C28.3374031,0.375986155 28.7456831,0.212213044 29.1678032,0.216731488 C29.5922299,0.221439699 29.9958966,0.394439463 30.29115,0.698919049 C34.6369104,5.1669263 50.4444988,21.4242908 55.7359928,26.8680168 C56.1857928,27.3316561 56.4187662,27.9636819 56.3749395,28.6072411 C56.3311128,29.2508002 56.0150995,29.8459194 55.5076327,30.2426655 C55.5053261,30.2426655 55.5053261,30.2426655 55.5053261,30.2426655 C54.550366,30.9900245 53.1709791,30.828558 52.4143924,29.8805193 C47.4942719,23.7171144 30.8355234,2.84411613 30.8355234,2.84411613 C30.8355234,2.84411613 47.6303652,25.8899914 51.6116723,31.3521707 C51.828499,31.6497303 51.911539,32.0257164 51.8400323,32.3855559 C51.766219,32.7477021 51.544779,33.0614083 51.2310723,33.2528614 C51.2310723,33.2505547 51.2310723,33.2505547 51.2310723,33.2528614 C50.6151922,33.6242342 49.8124721,33.4350878 49.4295654,32.8284353 C45.9464984,27.3201228 30.47107,2.84411613 30.47107,2.84411613 C30.47107,2.84411613 44.5117515,26.3651641 48.3338986,32.7707687 C48.5784053,33.1790482 48.6383786,33.6749808 48.4953653,34.1293935 C48.3546586,34.5838063 48.0248052,34.9574858 47.5911519,35.1558588 C47.5911519,35.1558588 47.5911519,35.1558588 47.5911519,35.1558588 C46.9268318,35.4603384 46.142565,35.1812321 45.8196317,34.5284463 C42.9178447,28.6741343 30.1089233,2.84411613 30.1089233,2.84411613 C30.1089233,2.84411613 41.4761779,27.6153757 44.5832582,34.3877399 C44.7816316,34.8236993 44.7862449,35.3242453 44.5947915,35.7625113 C44.4033382,36.2030841 44.0319648,36.5375503 43.5752448,36.6874834 C43.5752448,36.6851767 43.5752448,36.6851767 43.5752448,36.6851767 C42.8763247,36.9135364 42.1220446,36.5467769 41.8683112,35.8570845 C39.619311,29.7328929 29.7467766,2.84411613 29.7467766,2.84411613 C29.7467766,2.84411613 38.0023375,28.1782016 40.3782044,35.4672584 C40.5396711,35.963191 40.4820044,36.505257 40.2167377,36.9550564 C39.951471,37.4048558 39.5062843,37.7208687 38.9942043,37.8200552 C38.9942043,37.8200552 38.9942043,37.8200552 38.9942043,37.8200552 C38.1476575,37.9838283 37.3218707,37.4486824 37.1281107,36.6067502 C35.5849506,29.8782127 29.3846299,2.84411613 29.3846299,2.84411613 C29.3846299,2.84411613 34.1386704,28.2450949 35.6010972,36.0646842 C35.7072039,36.6321235 35.5641906,37.218016 35.2066572,37.6701221 C34.8491238,38.1222281 34.3139771,38.3990277 33.7373104,38.4290144 C33.7350037,38.4290144 33.7350037,38.4290144 33.7350037,38.4290144 C32.6877769,38.479761 31.7927901,37.690882 31.7097501,36.6482701 C31.1284701,29.3522934 29.0201765,2.84411613 29.0201765,2.84411613 C29.0201765,2.84411613 29.8090566,28.2658549 30.0535633,36.2123107 C30.0743233,36.8189632 29.8367366,37.4048558 29.4030832,37.8315885 C28.9694298,38.2560146 28.3789231,38.479761 27.7722697,38.4497743 C27.7722697,38.4497743 27.7722697,38.4497743 27.769963,38.4497743 C27.188683,38.4197877 26.6420029,38.1545214 26.2590962,37.7162553 C25.8761895,37.2756826 25.6893495,36.6990167 25.7400961,36.1177375 C26.4205629,28.3627347 28.6580298,2.84411613 28.6580298,2.84411613 C28.6580298,2.84411613 25.2580028,27.880642 24.1877093,35.7625113 C24.1023626,36.3830038 23.7725093,36.9412164 23.2673492,37.3148959 C22.7644958,37.6862687 22.1324691,37.8385085 21.5142823,37.7370153 C21.5142823,37.7370153 21.5142823,37.7370153 21.5142823,37.7370153 C20.8591889,37.6286021 20.2802155,37.2503093 19.9203755,36.6897901 C19.5605355,36.1315775 19.4544288,35.4464984 19.6297355,34.8075526 C21.7749357,26.8933901 28.2958831,2.84411613 28.2958831,2.84411613 C28.2958831,2.84411613 20.1095222,27.4239227 17.6575353,34.7890993 C17.2700152,35.9493511 16.0451751,36.6067502 14.8641616,36.2884306 C14.8641616,36.2861239 14.8641616,36.2861239 14.8641616,36.2861239 C14.1744682,36.1015909 13.6024148,35.6171915 13.3071615,34.9667124 C13.0096014,34.3162333 13.0188281,33.5665676 13.3325348,32.9253152 C17.0831752,25.1979924 27.9337364,2.84411613 27.9337364,2.84411613 C27.9337364,2.84411613 14.1537082,27.3731761 10.7306145,33.4696878 C10.2900411,34.2539534 9.34430769,34.6022596 8.5000676,34.29086 C8.5000676,34.29086 8.5000676,34.29086 8.5000676,34.29086 C7.86573419,34.0555803 7.37672081,33.5388877 7.17834745,32.8930219 C6.97766743,32.2471561 7.09300077,31.5459304 7.48513415,30.9946378 C12.541348,23.9062608 27.569283,2.84411613 27.569283,2.84411613 C27.569283,2.84411613 10.0870544,24.6005665 5.06774722,30.8470113 Z"></path>
                            </g>
                        </g>
                        <g transform="translate(91.227374, 0.000000)" id="路径">
                            <g transform="translate(0.265684, 41.879532)" fill="#D14343" opacity="0.187104725">
                                <path d="M4.81566979,128.300957 C4.81566979,128.300957 1.0350422,87.5514337 6.0820301,50.077373 C8.66319073,30.9000005 13.5556319,12.5853203 22.4501408,1.03147177 L22.2425407,0.868159971 C13.0020318,12.2838393 7.62749714,30.6054395 4.55501639,49.8536266 C-1.44693174,87.4568605 1.36489561,128.580063 1.36489561,128.580063 L4.81566979,128.300957 Z"></path>
                            </g>
                            <g transform="translate(26.957406, 67.163668) rotate(-74.115753) translate(-26.957406, -67.163668) translate(-3.542594, 51.163668)" fill="#E44852" opacity="0.148042225">
                                <path d="M2.80512525,8.32669648 C2.31306347,8.46669711 1.78600147,8.39257913 1.34952826,8.12493085 C0.913055043,7.85728258 0.610406162,7.41875117 0.511582038,6.91639595 C0.511582038,6.91433711 0.511582038,6.91433711 0.511582038,6.91433711 C0.418934422,6.43462905 0.52599389,5.93433265 0.805995575,5.53491907 C1.0880561,5.13344666 1.52041164,4.86373955 2.00423808,4.78756273 C8.01603897,3.8528526 26.9655648,0.906662727 30.2185256,0.400189835 C30.5335274,0.350777845 30.8547059,0.369307341 31.1635312,0.451660657 C34.4123743,1.3307823 53.6913139,6.54168836 59.1019347,8.00345971 C59.4766428,8.10640136 59.7957624,8.35552014 59.9831165,8.69522757 C60.1704705,9.03493499 60.2095884,9.43846624 60.0942936,9.80905616 C60.0942936,9.80905616 60.0942936,9.80905616 60.0942936,9.81111499 C59.97694,10.1899402 59.7072325,10.5049417 59.348995,10.6799425 C58.9928164,10.8570021 58.5789904,10.8775904 58.2063411,10.7375898 C52.5630718,8.63758024 31.9541242,0.966368881 31.9541242,0.966368881 C31.9541242,0.966368881 51.8630676,9.25317128 57.5886903,11.6372998 C57.9860456,11.8020064 58.2969298,12.1252432 58.4472249,12.5287744 C58.5975199,12.9323057 58.5728139,13.3790724 58.3813421,13.7640742 C58.3792833,13.7640742 58.3792833,13.766133 58.3792833,13.766133 C58.1960469,14.1305464 57.8748685,14.40643 57.4857485,14.52996 C57.0966285,14.65349 56.6745671,14.6143721 56.3163297,14.4208418 C50.9777681,11.5652406 31.73177,1.26695848 31.73177,1.26695848 C31.73177,1.26695848 50.3601174,12.1067137 55.7933854,15.269081 C56.1804465,15.4934938 56.4542717,15.8682014 56.5551547,16.3026151 C56.6539788,16.7390877 56.5675077,17.1961486 56.3183885,17.5646797 C56.3163297,17.5646797 56.3163297,17.5646797 56.3163297,17.5646797 C56.0754459,17.9187989 55.7027966,18.1596824 55.2827941,18.2338004 C54.8607327,18.3079183 54.4283772,18.2070355 54.0804339,17.9558579 C49.0959921,14.3343709 31.517651,1.56137159 31.517651,1.56137159 C31.517651,1.56137159 48.05628,14.8820204 53.0674866,18.9173329 C53.4401359,19.2179225 53.6686667,19.6585127 53.7016081,20.136162 C53.7324906,20.6138112 53.5636661,21.0811663 53.2342523,21.4270502 C53.2321935,21.4270502 53.2321935,21.4270502 53.2321935,21.4270502 C52.9192504,21.7564634 52.484836,21.9458761 52.0298333,21.9499937 C51.5768894,21.9541114 51.1404162,21.7749929 50.8212966,21.4517562 C46.4009759,16.9779123 31.2808849,1.67048973 31.2808849,1.67048973 C31.2808849,1.67048973 44.5459647,16.9840888 49.098051,22.2361715 C49.4954063,22.6952912 49.6807015,23.2985293 49.6148188,23.8997085 C49.5468772,24.5029465 49.2298165,25.0485372 48.7418723,25.4067742 C48.7398135,25.4067742 48.7398135,25.4067742 48.7398135,25.4067742 C48.2601047,25.7567758 47.6589246,25.8947176 47.0762741,25.7835406 C46.4915647,25.6723636 45.9809734,25.3244209 45.6659715,24.8220656 C41.9744787,18.964686 31.1202957,1.73225472 31.1202957,1.73225472 C31.1202957,1.73225472 40.6794709,19.2693933 44.0703736,25.4870687 C44.3771402,26.04913 44.4327288,26.7141331 44.2247863,27.3194299 C44.0168439,27.9247268 43.5639,28.414729 42.9771318,28.6679655 C42.9009548,28.698848 42.8247779,28.7317893 42.748601,28.7647306 C42.1659504,29.0138494 41.5071229,29.0097317 40.92859,28.7523776 C40.3500571,28.4950235 39.9032897,28.0091389 39.699465,27.4100186 C37.4141571,20.7496942 30.9350005,1.84137286 30.9350005,1.84137286 C30.9350005,1.84137286 36.0059133,21.1079311 37.8506303,28.1244336 C38.0194549,28.760613 37.90416,29.4359101 37.5356284,29.979442 C37.1691556,30.5229739 36.5844462,30.8832697 35.9338541,30.965623 C35.6785584,30.9841525 35.4232628,31.0047408 35.1720848,31.0253291 C34.5585517,31.0912118 33.9429597,30.9079757 33.4673686,30.5147386 C32.9938364,30.1194427 32.697364,29.549146 32.6520696,28.9335549 C32.1270665,22.0549942 30.601469,1.95872634 30.601469,1.95872634 C30.601469,1.95872634 30.7517641,21.7914636 30.8052938,28.8429663 C30.8094115,29.4791456 30.5458805,30.090619 30.0805835,30.5229739 C29.6132278,30.9573877 28.9873417,31.1735651 28.3511614,31.1220943 C28.3511614,31.1220943 28.3511614,31.1220943 28.3511614,31.1220943 C27.7252752,31.0706235 27.1488012,30.7617985 26.7576224,30.2697375 C26.3685024,29.7776764 26.1996778,29.1476735 26.2923254,28.525906 C27.3320376,21.5999921 30.2864671,1.90931435 30.2864671,1.90931435 C30.2864671,1.90931435 26.197619,21.9232289 24.8449638,28.5444355 C24.7337867,29.0900262 24.3981964,29.5656166 23.9184876,29.8559121 C23.4408377,30.1441487 22.8643636,30.2182666 22.3270075,30.0617953 C22.3270075,30.0597365 22.3270075,30.0597365 22.3249486,30.0597365 C21.8020043,29.9073829 21.3634723,29.5450283 21.1143531,29.0612026 C20.865234,28.575318 20.8261161,28.0091389 21.0072936,27.4923719 C23.2226011,21.1779314 30.049701,1.73225472 30.049701,1.73225472 C30.049701,1.73225472 22.1602418,20.4552811 19.5002257,26.7697215 C19.2737538,27.3091358 18.8311041,27.7270788 18.2813949,27.9267856 C17.7296269,28.1244336 17.1222703,28.0811981 16.6034436,27.811491 C16.6034436,27.8094322 16.6034436,27.8094322 16.6034436,27.8094322 C16.0949111,27.5417839 15.7181442,27.0785465 15.5637315,26.5247204 C15.4072599,25.9729532 15.4875545,25.3800093 15.7840269,24.8879483 C19.2819891,19.06351 29.8046995,1.56137159 29.8046995,1.56137159 C29.8046995,1.56137159 17.8305098,18.0361524 13.7869561,23.6032366 C13.4451893,24.0726505 12.9201861,24.3773577 12.3437121,24.4432404 C11.7651792,24.509123 11.1887051,24.3279457 10.7501731,23.9470616 C10.7501731,23.9450028 10.7501731,23.9450028 10.7501731,23.9450028 C10.3157587,23.5661776 10.0563454,23.0267633 10.0316393,22.4502901 C10.0069333,21.8738169 10.2210522,21.3138144 10.6204664,20.899989 C15.3578479,16.0061432 29.6255808,1.26695848 29.6255808,1.26695848 C29.6255808,1.26695848 14.4951956,14.6370193 9.2554582,19.2652756 C8.79839662,19.6708657 8.19104003,19.8664549 7.58368343,19.802631 C6.974268,19.740866 6.42044113,19.4258646 6.05396834,18.9358624 C6.05396834,18.9358624 6.05396834,18.9358624 6.05396834,18.9338035 C5.69161322,18.447919 5.54543587,17.8343868 5.65455417,17.2393841 C5.76161364,16.6423225 6.11161574,16.1173201 6.62014822,15.7879069 C12.4631246,12.0243604 29.4258737,1.09813419 29.4258737,1.09813419 C29.4258737,1.09813419 11.2751762,10.7170015 5.2839637,13.8917218 C4.79190192,14.1531936 4.21131019,14.1984879 3.68424819,14.0173106 C3.15512736,13.8340745 2.72688949,13.4428962 2.4983587,12.9323057 C2.4983587,12.9323057 2.4983587,12.9302468 2.4983587,12.9302468 C2.26982792,12.4196563 2.26365141,11.8370066 2.48188802,11.3222983 C2.70012462,10.8055313 3.12218599,10.4040589 3.64718915,10.2125874 C10.0069333,7.88404741 29.2282255,0.849015406 29.2282255,0.849015406 C29.2282255,0.849015406 9.13604571,6.53551186 2.80512525,8.32669648 Z"></path>
                            </g>
                            <g transform="translate(34.736663, 35.106399) scale(-1, 1) rotate(66.803183) translate(-34.736663, -35.106399) translate(2.236663, 24.106399)" fill="#E44852" opacity="0.148042225">
                                <path d="M1.36787178,4.35989321 C0.870675978,4.38754631 0.442856339,4.01742026 0.39082422,3.51966455 C0.379261527,3.30482127 0.361917488,3.06657922 0.350354795,2.82621 C0.309885369,2.3497259 0.471763071,1.87749612 0.795518474,1.52651452 C1.11349253,1.17340577 1.5702189,0.973452618 2.05007066,0.973452618 C11.1094406,0.971325457 51.5037085,0.971325457 63.910478,0.971325457 C64.3325163,0.971325457 64.7083039,1.26061938 64.8123681,1.67328865 C64.9164323,2.08595791 64.7314292,2.51777163 64.3556417,2.72410627 C55.9090945,7.36982628 33.3734059,19.7541587 30.4249192,21.3750555 C30.2167907,21.487795 29.9797555,21.5197024 29.754283,21.4622691 C28.1644127,21.0708714 26.967674,20.7773232 25.7246845,20.4220873 C25.3431156,20.313602 25.0713924,19.9796377 25.048267,19.5839858 C25.0193602,19.1904609 25.2506141,18.8224621 25.6090576,18.6671793 C33.9052898,15.112693 61.540126,3.26865953 61.540126,3.26865953 C61.540126,3.26865953 25.0077976,17.2228369 21.1342954,18.7012139 C20.9203856,18.7841732 20.6833504,18.7841732 20.4694406,18.703341 C19.8681805,18.4714805 19.0067599,18.1311347 18.1626833,17.792916 C17.7926771,17.6440148 17.5614233,17.2823974 17.5787673,16.8888725 C17.5961114,16.4932206 17.856272,16.1507476 18.2378408,16.0358809 C27.7712812,13.0833812 61.540126,2.62625685 61.540126,2.62625685 C61.540126,2.62625685 18.5731589,14.6468447 14.2718371,15.8486907 C14.0463646,15.9125056 13.8093294,15.8891068 13.6012009,15.7870031 C13.3757284,15.6721364 13.1271305,15.5423795 12.8611886,15.4062412 C12.5143078,15.2275597 12.3119607,14.8510521 12.3582114,14.4639088 C12.4044622,14.0746383 12.6877482,13.7576913 13.0693171,13.6662234 C23.1577667,11.2774214 61.540126,2.17955301 61.540126,2.17955301 C61.540126,2.17955301 14.2429304,12.1814649 9.47331955,13.1897393 C9.22472165,13.2429183 8.9703424,13.1918664 8.76221393,13.0514738 C8.62924296,12.962133 8.4847093,12.8642836 8.34017564,12.7621799 C8.02798293,12.5473366 7.87766792,12.1644476 7.95860677,11.7943215 C8.03954562,11.4241955 8.33439429,11.1391559 8.71018181,11.0732139 C19.0298853,9.26512689 62.6270191,1.6264911 62.6270191,1.6264911 C62.6270191,1.6264911 11.0978779,9.5054961 5.66341221,10.3372161 C5.37434489,10.3818865 5.07371487,10.2840371 4.8655864,10.0734481 C4.76152216,9.96709008 4.65167658,9.85860486 4.54761234,9.75011964 C4.30479579,9.49486029 4.22385694,9.12260709 4.34526522,8.78864278 C4.46667349,8.45680564 4.76152216,8.22069075 5.1141843,8.17814753 C14.7285635,7.04224346 60.5572971,1.6264911 60.5572971,1.6264911 C60.5572971,1.6264911 8.86627817,6.81251005 2.85367782,7.41662382 C2.50679703,7.4506584 2.17726028,7.26772254 2.02694528,6.95502985 C2.02694528,6.95502985 2.02694528,6.95502985 2.02694528,6.95502985 C1.89397431,6.6891347 1.905537,6.37431485 2.05585201,6.11692835 C2.20038567,5.861669 2.46632761,5.69362327 2.76117628,5.6702245 C11.2019421,5.02782182 59.1755553,1.3797404 59.1755553,1.3797404 C59.1755553,1.3797404 8.78533932,3.97913136 1.36787178,4.35989321 Z"></path>
                            </g>
                        </g>
                        <g transform="translate(113.852467, 123.862722)" id="路径">
                            <g transform="translate(0.269295, 3.745326)" fill="#D14343" opacity="0.187104725">
                                <path d="M4.6045664,41.4968825 C4.6045664,41.4968825 -1.08136832,16.9701259 7.70472716,6.15648578 C12.8116884,-0.129173175 22.7165175,-1.50163816 41.3497754,8.87142912 L41.4835621,8.64537607 C22.4258774,-3.05402292 11.9167015,-1.40475828 6.28382015,4.95240726 C-3.50106224,15.9990204 1.21376558,42.1911883 1.21376558,42.1911883 L4.6045664,41.4968825 Z"></path>
                            </g>
                            <g transform="translate(29.699172, 22.528608) rotate(22.727544) translate(-29.699172, -22.528608) translate(8.699172, 7.528608)" fill="#E44852" opacity="0.148042225">
                                <path d="M3.40982805,23.6714995 C2.8914771,24.3177094 1.99300211,24.5181381 1.24830458,24.155293 C1.24830458,24.155293 1.24830458,24.155293 1.24830458,24.155293 C0.609005073,23.8442829 0.161495418,23.2412688 0.0474582089,22.5397682 C-0.0665790005,21.8382677 0.166678928,21.1246722 0.674662861,20.6270561 C5.46249782,15.9221642 16.8074723,4.77936292 20.4411125,1.20965795 C20.7434839,0.912470504 21.1512533,0.748326278 21.5745732,0.75339064 C21.9978932,0.758693281 22.4022069,0.931476678 22.697667,1.23557546 C26.2846556,4.92450097 37.5207764,16.4785267 41.4256869,20.4957407 C41.7764377,20.856858 41.9578605,21.3492906 41.9233038,21.8503625 C41.888747,22.3531622 41.6433943,22.8162217 41.2459919,23.125504 C41.2459919,23.1237761 41.2459919,23.1237761 41.2459919,23.1237761 C40.5617686,23.6576768 39.5769018,23.5419119 39.036089,22.8628732 C35.4076323,18.3203977 22.8255269,2.55391277 22.8255269,2.55391277 C22.8255269,2.55391277 35.4888406,19.930739 38.4175235,23.9479529 C38.5730288,24.1604765 38.6317752,24.4282908 38.5799401,24.6874659 C38.528105,24.9449131 38.3708719,25.1695315 38.1462532,25.3060304 C38.1445253,25.3060304 38.1445253,25.3060304 38.1445253,25.3060304 C37.6607311,25.5997622 37.0300708,25.4511685 36.7276994,24.9725585 C34.0702868,20.7704663 22.5525287,2.55391277 22.5525287,2.55391277 C22.5525287,2.55391277 33.3376842,20.6201447 36.0382926,25.1470697 C36.1937979,25.4079726 36.2318103,25.7224384 36.1419628,26.0127145 C36.0521153,26.3047185 35.8430471,26.5431595 35.5665933,26.6710193 C35.5665933,26.6710193 35.5648654,26.6710193 35.5648654,26.6710193 C34.9635783,26.9474727 34.2517097,26.6969368 33.9579775,26.1042897 C31.6219425,21.3924865 22.2812584,2.55391277 22.2812584,2.55391277 C22.2812584,2.55391277 31.0120162,21.5825482 33.2080964,26.3686483 C33.3359563,26.6468296 33.339412,26.9664789 33.2167356,27.246388 C33.0957871,27.5262971 32.8590735,27.7422763 32.5687969,27.8373072 C32.5687969,27.8373072 32.5687969,27.8373072 32.5687969,27.8373072 C31.9346809,28.0481029 31.2487298,27.7163588 31.0189276,27.0891551 C29.2081549,22.1596448 22.009988,2.55391277 22.009988,2.55391277 C22.009988,2.55391277 28.2958572,21.8434512 30.0167824,27.1237118 C30.1273639,27.4606394 30.0876237,27.8303959 29.9079287,28.1362225 C29.7282337,28.4420491 29.4258623,28.6563005 29.0768393,28.7254138 C29.0768393,28.7254138 29.0768393,28.7254138 29.0768393,28.7254138 C28.3649707,28.8653684 27.6703804,28.4144037 27.5079638,27.7077196 C26.3019339,22.4516487 21.7387177,2.55391277 21.7387177,2.55391277 C21.7387177,2.55391277 25.2479536,21.3078226 26.3710474,27.30859 C26.4574392,27.766466 26.3416742,28.2381647 26.0531255,28.6027376 C25.7645768,28.9690384 25.3326176,29.1902012 24.8678296,29.212663 C24.8643739,29.212663 24.8626461,29.212663 24.8591904,29.212663 C24.1525053,29.2472197 23.5460347,28.713319 23.4907439,28.0066349 C23.0708797,22.7367413 21.4657195,2.55391277 21.4657195,2.55391277 C21.4657195,2.55391277 22.0531839,21.5307132 22.2397903,27.5176579 C22.253613,27.9807174 22.073918,28.4282264 21.7439012,28.7513314 C21.4121566,29.0761641 20.9611913,29.2472197 20.4998589,29.22303 C20.4981311,29.22303 20.4981311,29.22303 20.4981311,29.22303 C20.0696276,29.2005682 19.6687696,29.0053229 19.3871322,28.6839458 C19.1054949,28.359113 18.9689958,27.9357937 19.0052804,27.5090187 C19.5115364,21.7380533 21.1944492,2.55391277 21.1944492,2.55391277 C21.1944492,2.55391277 18.6355233,21.3924865 17.8389907,27.2515715 C17.7785164,27.7059918 17.5366193,28.1154885 17.1668623,28.3867584 C16.7988331,28.6597562 16.3375008,28.7720654 15.8848076,28.6977685 C15.8848076,28.6977685 15.8848076,28.6977685 15.8848076,28.6977685 C15.3820072,28.6148325 14.9396811,28.3245564 14.664955,27.8977814 C14.390229,27.4710064 14.3090207,26.9474727 14.4420641,26.4567678 C16.0593191,20.4888293 20.9231789,2.55391277 20.9231789,2.55391277 C20.9231789,2.55391277 14.6943283,21.2577154 12.911201,26.6105451 C12.6451142,27.4070765 11.8053856,27.859769 10.9950303,27.6420619 C10.9950303,27.6403341 10.9933025,27.6403341 10.9933025,27.6403341 C10.4438505,27.4917404 9.98942946,27.1081613 9.75271586,26.5898111 C9.5177301,26.0731887 9.52464144,25.477086 9.7734499,24.9656471 C12.6347472,19.0685498 20.6519085,2.55391277 20.6519085,2.55391277 C20.6519085,2.55391277 10.0844605,21.3648412 7.67758422,25.6515972 C7.39767471,26.1474856 6.79984327,26.3686483 6.26421396,26.1734031 C6.26421396,26.1716752 6.26421396,26.1716752 6.26421396,26.1716752 C5.74931868,25.9833413 5.35191628,25.5634777 5.18949965,25.0382162 C5.02708302,24.5129546 5.11865835,23.9427694 5.43830811,23.4952604 C9.32421241,18.0491278 20.3789104,2.55391277 20.3789104,2.55391277 C20.3789104,2.55391277 7.01063933,19.1894982 3.40982805,23.6714995 Z"></path>
                            </g>
                            <g transform="translate(45.281096, 23.693931) scale(-1, 1) rotate(-18.557850) translate(-45.281096, -23.693931) translate(31.781096, 12.193931)" fill="#E44852" opacity="0.148042225">
                                <path d="M2.01623236,4.22540999 C1.75557918,4.26462324 1.49031267,4.18850339 1.28732612,4.01781041 C1.08433957,3.84711743 0.964392973,3.6003046 0.952859646,3.33503848 C0.94593965,3.04439908 0.939019654,2.72377307 0.932099658,2.40776039 C0.918259666,1.946428 1.09356623,1.49662892 1.41419271,1.16446961 C1.73712585,0.834616951 2.1800056,0.645470673 2.64133866,0.645470673 C7.50378915,0.645470673 21.1384879,0.645470673 26.0009384,0.645470673 C26.3446315,0.645470673 26.6606446,0.836923613 26.8244179,1.13909633 C26.9858844,1.4435757 26.9674311,1.81264161 26.7759779,2.09866769 C23.9018729,6.3936722 15.5079178,18.9326864 13.3304258,22.1827731 C13.1920258,22.3903727 12.977506,22.5333857 12.7329994,22.5818256 C12.4884929,22.6279588 12.2347597,22.5749056 12.0271598,22.4341992 C11.5981201,22.1412532 11.2221336,21.8736804 10.8207739,21.5461344 C10.6224007,21.3892814 10.4978407,21.1563085 10.4747741,20.9048824 C10.4517074,20.6534562 10.5301341,20.4043367 10.696214,20.2128838 C13.528799,16.9097439 25.3527654,3.13666556 25.3527654,3.13666556 C25.3527654,3.13666556 12.852946,16.1116389 9.77816116,19.3063657 C9.60054793,19.4908986 9.35373474,19.5946984 9.09769489,19.5923918 C8.84396171,19.5900851 8.59945518,19.4839786 8.42414862,19.297139 C8.19578875,19.0503262 7.94897556,18.7804468 7.72292236,18.5313273 C7.55453579,18.3444876 7.47149584,18.0953682 7.4876425,17.843942 C7.50609582,17.5925159 7.62604242,17.359543 7.81749564,17.19577 C11.2244403,14.3285892 25.3527654,2.44005365 25.3527654,2.44005365 C25.3527654,2.44005365 10.6593073,13.6112174 7.11626938,16.3053985 C6.9155895,16.4576382 6.65954965,16.5222247 6.41042979,16.4853181 C6.15900327,16.4461049 5.93525674,16.3077052 5.78993682,16.1001056 C5.72765686,16.0101458 5.66307023,15.920186 5.5984836,15.8279195 C5.45547035,15.6203199 5.40011038,15.3642804 5.45085702,15.1151609 C5.49929699,14.8660415 5.64692357,14.6492152 5.86144345,14.5108155 C9.63053458,12.0842072 25.3527654,1.95565465 25.3527654,1.95565465 C25.3527654,1.95565465 9.15536152,11.2653422 5.2594038,13.5028043 C5.04027059,13.6296707 4.77731075,13.6619639 4.53280422,13.5904574 C4.2882977,13.5189509 4.08531115,13.3505646 3.96767122,13.1268184 C3.92384458,13.0414719 3.88001794,12.9561254 3.8361913,12.8730856 C3.72085803,12.6470327 3.70240471,12.3863799 3.78313799,12.1487937 C3.86387128,11.9089009 4.03917784,11.7128346 4.26523105,11.6044215 C8.36878865,9.65067884 25.7864185,1.35592255 25.7864185,1.35592255 C25.7864185,1.35592255 8.02509552,8.73724072 3.77852466,10.5018371 C3.54093813,10.6010236 3.27105829,10.5987169 3.03577843,10.4926104 C2.80049857,10.386504 2.62057867,10.1881311 2.53753872,9.9436249 C2.49601874,9.82367848 2.45680543,9.7014254 2.41528546,9.58147898 C2.3391655,9.34619947 2.35992549,9.08785333 2.47295209,8.86641378 C2.58597869,8.6472809 2.78204524,8.47889458 3.01732511,8.40277474 C7.21084266,7.05568417 24.9606323,1.35592255 24.9606323,1.35592255 C24.9606323,1.35592255 7.05398942,6.23912585 2.67132531,7.43397673 C2.42220545,7.50086992 2.15693894,7.46165667 1.9401124,7.32325695 C1.72328586,7.18485724 1.57565928,6.96111103 1.53413931,6.70737822 C1.53413931,6.70507156 1.53413931,6.70507156 1.53413931,6.70507156 C1.45340602,6.22528588 1.7671125,5.76856681 2.24228556,5.66938035 C6.39197647,4.81360878 24.4093393,1.08834976 24.4093393,1.08834976 C24.4093393,1.08834976 6.54421638,3.59107795 2.01623236,4.22540999 Z"></path>
                            </g>
                        </g>
                    </g>
                </g>
            </g>
        </g>
    </g>
</svg>