<?xml version="1.0" encoding="UTF-8"?>
<svg width="251px" height="141px" viewBox="0 0 251 141" version="1.1" xmlns="http://www.w3.org/2000/svg" xmlns:xlink="http://www.w3.org/1999/xlink">
    <title>3</title>
    <defs>
        <path d="M4,0.489051095 L246,0.489051095 C248.209139,0.489051095 250,2.2799121 250,4.48905109 L250,140.489051 L250,140.489051 L0,140.489051 L0,4.48905109 C-2.705415e-16,2.2799121 1.790861,0.489051095 4,0.489051095 Z" id="path-1"></path>
        <linearGradient x1="54.675426%" y1="66.8157116%" x2="52.3377652%" y2="31.4879362%" id="linearGradient-3">
            <stop stop-color="#F5CDA0" stop-opacity="0.1" offset="0%"></stop>
            <stop stop-color="#FE7442" stop-opacity="0.1" offset="100%"></stop>
        </linearGradient>
        <linearGradient x1="54.675426%" y1="66.8157116%" x2="52.3377652%" y2="31.4879362%" id="linearGradient-4">
            <stop stop-color="#F5CDA0" stop-opacity="0.1" offset="0%"></stop>
            <stop stop-color="#FE7442" stop-opacity="0.1" offset="100%"></stop>
        </linearGradient>
    </defs>
    <g id="司南首页" stroke="none" stroke-width="1" fill="none" fill-rule="evenodd">
        <g id="3" transform="translate(0.666667, 0.000000)">
            <mask id="mask-2" fill="white">
                <use xlink:href="#path-1"></use>
            </mask>
            <use id="蒙版" fill="#F6E3C7" xlink:href="#path-1"></use>
            <g id="编组" mask="url(#mask-2)">
                <g transform="translate(125.000000, 8.000000)">
                    <g transform="translate(0.254342, 0.839862)">
                        <g transform="translate(57.386104, 0.521810)">
                            <path d="M44.2760083,1.76398154 C44.2760083,1.76398154 26.5434526,-1.50143545 13.5785776,39.1603902 C6.33065284,61.8952407 0.552988597,98.4301701 0.211678127,157.109221 C0.211678127,157.7902 0.763846266,158.339906 1.44236492,158.339906 C2.12170402,158.339906 2.6730517,157.7902 2.6730517,157.109221 C2.33338215,98.6681025 7.65241045,62.2152188 14.6082522,39.4803683 C26.886404,-0.631751529 44.1915012,2.2480509 44.1915012,2.2480509 C44.3235949,2.26446003 44.4499454,2.18241437 44.4729182,2.05114133 C44.495891,1.91986828 44.408102,1.78859524 44.2760083,1.76398154 Z" id="路径" fill="#FAC295"></path>
                            <g transform="translate(24.702493, 0.412148)" fill="#FAD1B0" id="路径">
                                <path d="M20.9107469,1.03856542 C32.4513881,-0.84339876 38.3363693,4.67005925 38.3363693,14.163523 C38.3363693,23.2387725 32.392838,28.3688674 22.3291926,30.6063137 C21.4077256,30.8084506 20.4541956,30.8223911 19.5271525,30.6481351 C9.41610932,28.6825281 -0.172165149,23.2457427 2.16840434e-18,14.163523 C0.244655739,1.24070231 9.37010568,-0.529738064 20.9107469,1.03856542 Z"></path>
                            </g>
                            <g transform="translate(26.804686, 0.843421)" fill="url(#linearGradient-3)" id="路径">
                                <path d="M19.1428407,0.79249237 C29.7077745,-0.643567629 35.095208,3.56355629 35.095208,10.8076812 C35.095208,17.7645941 29.6063174,21.6791872 20.3194873,23.3758655 C19.5518594,23.5141528 18.7670029,23.5247903 17.9968226,23.407778 C8.69659253,21.9238493 -0.158247483,17.7645941 -4.33680869e-19,10.8076812 C0.223971236,0.946735851 8.57790692,-0.404224296 19.1428407,0.79249237 Z"></path>
                            </g>
                            <g transform="translate(43.370033, 3.542104)" fill="#FCA35C" id="椭圆形">
                                <ellipse cx="2.69469825" cy="2.01439869" rx="2.00534063" ry="1.40380587"></ellipse>
                            </g>
                        </g>
                        <g transform="translate(10.848914, 4.766688)" id="路径">
                            <path d="M15.1021678,1.26350306 C15.1021678,1.26350306 28.3213848,-1.67373132 37.2323776,41.2279407 C41.9303193,63.8397227 45.3951128,99.1275581 45.0595456,154.147373 C45.0595456,154.820147 45.6108933,155.378058 46.2902324,155.378058 C46.9695715,155.378058 47.5209192,154.820147 47.5209192,154.147373 C47.1853519,98.9634668 43.2742293,63.6181994 38.286666,40.9982129 C28.6914113,-2.52700612 14.9930469,0.78763827 14.9930469,0.78763827 C14.8625941,0.820456531 14.7805483,0.951729576 14.8109053,1.08300262 C14.8412622,1.2060711 14.971715,1.28811675 15.1021678,1.26350306 Z" fill="#FAC295"></path>
                            <g transform="translate(0.039074, 0.143749)" fill="#FAD1B0">
                                <path d="M12.8188024,1.23522136 C12.8188024,1.23522136 21.7188106,-5.15208907 28.6008607,12.6978195 C35.4822708,30.5541282 15.4108514,41.6199196 6.39564092,36.2758272 C1.92771645,33.6325815 1.57890985,32.3397591 0.431368156,27.5588765 C-0.898576989,22.0163806 6.31307936,-5.84970113 12.8188024,1.23522136 Z"></path>
                            </g>
                            <g transform="translate(10.785190, 2.858149)" fill="#FCA35C">
                                <path d="M1.20322275,0.371206418 C1.63907099,0.371206418 1.63203775,0.601610401 1.63203775,1.10081903 C1.63203775,1.60002766 1.01889926,1.97763419 0.583691035,1.97763419 C0.147842795,1.97763419 0.0537610164,1.60002766 0.0537610164,1.10081903 C0.0537610164,0.601610401 0.767374508,0.371206418 1.20322275,0.371206418 Z"></path>
                            </g>
                        </g>
                        <g transform="translate(81.839512, 96.752421) scale(-1, 1) translate(-81.839512, -96.752421) translate(59.339512, 32.252421)">
                            <path d="M21.486371,8.16467151 C21.486371,8.16467151 32.5522392,0.685062167 39.2786032,38.2750635 C42.4432112,55.961361 44.6857738,83.7087259 44.4117416,127.083841 C44.4018129,127.758992 43.8424961,128.30176 43.163373,128.2952 C42.4842498,128.281902 41.9408189,127.725896 41.9500857,127.044126 C42.8966219,83.821251 41.0955555,56.1334582 38.2155703,38.4537798 C32.2245921,1.68454979 21.7557697,8.56843804 21.7557697,8.56843804 C21.6445683,8.64124839 21.493652,8.6147719 21.4188558,8.5022468 C21.3447215,8.38972171 21.3751695,8.23748187 21.486371,8.16467151 Z" id="路径" fill="#FAC295"></path>
                            <g transform="translate(19.675389, 20.970864) rotate(-19.397263) translate(-19.675389, -20.970864) translate(4.675389, 4.970864)" fill="#FAD1B0" id="路径">
                                <path d="M8.73658526,1.07924863 C21.8142147,-1.89135652 25.4318406,4.84593323 28.0866897,9.38732599 C30.7415388,13.9287188 29.1173204,25.1646588 24.6656797,28.3222624 C20.2145733,31.4745233 4.03490043,32.8636552 1.38005135,28.3222624 C-1.27479773,23.7808697 -0.229741418,3.12020397 8.73658526,1.07924863 Z"></path>
                            </g>
                            <g transform="translate(20.262141, 9.993811) rotate(24.942630) translate(-20.262141, -9.993811) translate(18.262141, 8.493811)" fill="#FCA35C" id="椭圆形">
                                <ellipse cx="2.06553704" cy="1.5440746" rx="1.53713142" ry="1.07604368"></ellipse>
                            </g>
                        </g>
                        <g transform="translate(0.008205, 59.970696)">
                            <path d="M15.5542401,11.872006 C15.5542401,11.872006 18.7458211,7.096949 23.3141305,3.88075939 C26.3137244,1.76398154 29.9122526,0.303568917 33.5862629,1.4193898 C36.8853239,2.42034677 40.2098192,5.49705876 43.2332064,11.929438 C49.1880895,24.6136959 53.8655198,50.1298941 54.4972723,98.2824879 C54.5112201,98.9634668 55.0740542,99.5049681 55.7533933,99.4889223 C56.4327324,99.4721499 56.9725937,98.9142394 56.9581214,98.2332605 C55.5581243,49.7524841 50.4023672,24.1378312 44.205449,11.4699823 C40.9170539,4.74223875 37.3127825,1.6080948 33.8241957,0.607137833 C29.8991253,-0.516887615 26.0815349,1.03377523 22.9268744,3.33925808 C18.3257467,6.6949253 15.1481134,11.6012554 15.1481134,11.6012554 C15.0742722,11.7161193 15.1054496,11.8638014 15.2178524,11.9458471 C15.3294346,12.0114836 15.4803989,11.9868699 15.5542401,11.872006 Z" id="路径" fill="#FAC295"></path>
                            <g transform="translate(0.204302, 8.188238)">
                                <g transform="translate(0.178445, 0.535340)" fill="#FAD1B0" id="路径">
                                    <path d="M1.27991426,9.07424924 C4.63722782,3.33105352 8.68208506,0.959934142 13.4579703,0.500478484 C20.8699865,-0.221523263 29.592274,6.03035551 29.9729665,11.437164 C30.3528385,16.8439726 25.7156107,33.1136256 15.7396636,32.9413297 C4.49036586,31.4973262 -1.47846506,13.7836697 1.27991426,9.07424924 Z"></path>
                                </g>
                                <g transform="translate(12.485313, 5.458079)" fill="#FCA35C" id="椭圆形">
                                    <ellipse cx="1.66142716" cy="1.31273045" rx="1.41282843" ry="1"></ellipse>
                                </g>
                            </g>
                        </g>
                        <g transform="translate(87.922173, 102.124138) scale(-1, 1) translate(-87.922173, -102.124138) translate(58.422173, 44.624138)">
                            <path d="M20.1427794,13.3651025 C20.1427794,13.3651025 23.2698337,7.26179988 27.7293886,3.42839839 C30.049341,1.43163889 32.7322283,0.0659307382 35.5179597,0.386165752 C39.5899865,0.866518274 43.9832145,5.0107361 47.7772644,16.5297779 C52.885929,32.0329201 57.0362067,61.0707009 58.2645426,112.779237 C58.2755516,113.457382 57.7330122,114.022502 57.0540926,114.032043 C56.3751731,114.04134 55.8147477,113.504475 55.8028238,112.816912 C55.3154326,61.3344239 51.6152838,32.3719925 46.75106,16.8594316 C43.2841733,5.81132364 39.3030666,1.67652449 35.4210776,1.16791593 C32.2187535,0.744075474 29.1572809,2.79734704 26.6525075,5.31213376 C23.029119,8.94774304 20.5735319,13.5911507 20.5735319,13.5911507 C20.5116764,13.7041749 20.3648629,13.7512683 20.2463687,13.6947562 C20.1271292,13.6288255 20.0809239,13.4875453 20.1427794,13.3651025 Z" id="路径" fill="#FAC295"></path>
                            <g transform="translate(19.542028, 24.915986) rotate(15.637973) translate(-19.542028, -24.915986) translate(5.542028, 4.915986)">
                                <g transform="translate(0.160598, 0.623472)" fill="#FAD1B0" id="路径">
                                    <path d="M1.15190348,10.5681327 C4.1734349,3.87944111 7.81374525,1.11796702 12.1119697,0.582871693 C18.7826723,-0.257992389 26.6325991,7.02312614 26.9752165,13.3200515 C27.3170956,19.6169768 23.1436607,38.5650845 14.1654592,38.3644237 C4.04126136,36.6826956 -1.3305962,16.0528597 1.15190348,10.5681327 Z"></path>
                                </g>
                                <g transform="translate(11.236593, 6.356636)" fill="#FCA35C" id="椭圆形">
                                    <ellipse cx="1.49525932" cy="1.52884379" rx="1.27152422" ry="1"></ellipse>
                                </g>
                            </g>
                        </g>
                        <g transform="translate(51.871211, 71.438791)">
                            <path d="M15.9054799,16.3910149 C15.9054799,16.3910149 14.1441276,6.21019958 11.8634648,2.44496046 C11.1407333,1.25181976 10.3006435,0.713928455 9.51532094,0.958424502 C8.81606111,1.18336086 8.0336725,2.16134505 7.32658879,4.28357073 C4.8659766,11.6771312 2.49925104,33.7893536 1.42631757,86.6591787 C1.41857677,87.3339878 1.96429283,87.8914387 2.64399294,87.9012186 C3.32271506,87.9012186 3.88016695,87.3633273 3.88701285,86.6787383 C3.94764796,34.0240698 5.8556982,11.9607466 8.16472259,4.5574063 C8.70946067,2.80681461 9.20334348,1.92662885 9.77155321,1.73103201 C10.2840178,1.55499485 10.7250893,2.07332647 11.2150602,2.84593398 C13.5260406,6.50359483 15.4272449,16.4790335 15.4272449,16.4790335 C15.4516945,16.6061715 15.5778547,16.69419 15.7098828,16.6746304 C15.8419109,16.6452908 15.9289516,16.5181529 15.9054799,16.3910149 Z" id="路径" fill="#FAC295"></path>
                            <g transform="translate(0.794109, 3.673527)">
                                <g transform="translate(17.286008, 17.062199) rotate(-151.435940) translate(-17.286008, -17.062199) translate(4.786008, 4.562199)" fill="#FAD1B0" id="路径">
                                    <path d="M6.08770635,2.81634841 C15.5204961,-2.8362754 21.1784429,2.3248159 23.5676933,5.20094529 C25.9562794,8.07707468 23.7815767,17.130572 20.4212159,20.0598401 C17.0615194,22.9957504 5.79610754,25.6858946 3.40685716,22.8097652 C1.01827101,19.9336358 -3.52110544,8.75459246 6.08770635,2.81634841"></path>
                                </g>
                                <g transform="translate(15.987299, 9.617080) rotate(-13.849533) translate(-15.987299, -9.617080) translate(14.487299, 8.617080)" fill="#FCA35C" id="椭圆形">
                                    <ellipse cx="1.35589911" cy="1.03006689" rx="1.25317948" ry="1"></ellipse>
                                </g>
                            </g>
                        </g>
                        <g transform="translate(26.208706, 86.669746)">
                            <path d="M7.45303919,16.7455178 C7.45303919,16.7455178 8.9889363,10.8546399 11.4437462,6.2929016 C12.8073472,3.75769091 14.4228287,1.61629937 16.2639361,1.29632132 C17.8416766,1.02557066 19.4776696,2.19061894 21.2514994,5.50526333 C25.3521478,13.1847365 29.7243678,32.0060093 33.6010311,71.5520141 C33.6740519,72.2247885 34.2820112,72.7170624 34.957248,72.6432213 C35.6324848,72.5693802 36.1214777,71.9622424 36.0476365,71.289468 C31.6220868,34.1802191 27.110389,15.2851052 23.0392771,6.71133443 C20.9832097,2.38752851 18.9706266,0.623546964 17.1820285,0.393819135 C15.3762007,0.164091306 13.6901598,1.45220806 12.2666654,3.48694026 C9.01190912,8.13892879 6.98209637,16.6306539 6.98209637,16.6306539 C6.94927806,16.7619269 7.02886247,16.8932 7.15931527,16.9260182 C7.28894761,16.9588365 7.42104133,16.8767908 7.45303919,16.7455178 Z" id="路径" fill="#FAC295"></path>
                            <g transform="translate(0.573925, 13.945127)">
                                <path d="M5.31656692,0.319978047 C8.7181852,0.319978047 12.7950403,3.30643982 12.7950403,11.0433449 C12.7950403,18.78025 9.85123751,29.0359566 6.63176087,27.9447495 C2.76986573,26.6238144 0.468481437,20.6098681 0.468481437,12.872963 C0.468481437,5.12785332 1.91494864,0.319978047 5.31656692,0.319978047 Z" id="路径" fill="#FAD1B0"></path>
                                <g transform="translate(6.115044, 4.828974) rotate(-28.560933) translate(-6.115044, -4.828974) translate(5.115044, 3.328974)" fill="#FCA35C" id="椭圆形">
                                    <ellipse cx="1.18966367" cy="1.14863892" rx="1" ry="1.15027984"></ellipse>
                                </g>
                            </g>
                        </g>
                    </g>
                </g>
            </g>
            <g id="编组备份-3" mask="url(#mask-2)">
                <g transform="translate(0.000000, 51.489051)" id="编组">
                    <g transform="translate(0.169561, 0.559908)">
                        <g transform="translate(34.257403, 0.347874)">
                            <path d="M29.7825892,1.13121332 C29.7825892,1.13121332 17.9608854,-1.04573135 9.31763536,26.0621524 C4.48568555,41.2187194 0.633909391,65.575339 0.406369078,104.694706 C0.406369078,105.148692 0.774481171,105.515163 1.22682694,105.515163 C1.67971967,105.515163 2.0472848,105.148692 2.0472848,104.694706 C1.82083843,65.7339606 5.36685729,41.4320381 10.0040851,26.2754711 C18.1895197,-0.465942066 29.7262511,1.45392622 29.7262511,1.45392622 C29.8143136,1.46486564 29.8985473,1.41016854 29.9138625,1.32265317 C29.9291777,1.23513781 29.8706517,1.14762245 29.7825892,1.13121332 Z" id="路径" fill="#FAC295"></path>
                            <g transform="translate(16.468329, 0.274765)" fill="#FAD1B0" id="路径">
                                <path d="M14.2057483,0.647602564 C21.8995091,-0.60704022 25.8228299,3.06859845 25.8228299,9.39757428 C25.8228299,15.4477406 21.8604757,18.8678039 15.1513787,20.3594347 C14.5370674,20.4941927 13.9013807,20.5034863 13.283352,20.3873157 C6.54265654,19.076911 0.15047356,15.4523874 0.265250327,9.39757428 C0.428354152,0.782360493 6.51198745,-0.397933089 14.2057483,0.647602564 Z"></path>
                            </g>
                            <g transform="translate(17.869791, 0.562281)" fill="url(#linearGradient-4)" id="路径">
                                <path d="M13.0271441,0.483553867 C20.0704333,-0.473819466 23.6620556,2.33092982 23.6620556,7.16034641 C23.6620556,11.7982883 20.0027953,14.4080171 13.8115752,15.539136 C13.2998233,15.6313275 12.7765856,15.6384191 12.2631321,15.5604109 C6.06297868,14.5711252 0.159752005,11.7982883 0.265250327,7.16034641 C0.414564484,0.586382854 5.98385494,-0.314257244 13.0271441,0.483553867 Z"></path>
                            </g>
                            <g transform="translate(28.913355, 2.361403)" fill="#FCA35C" id="椭圆形">
                                <ellipse cx="2.06171583" cy="1.29815808" rx="1.33689375" ry="1"></ellipse>
                            </g>
                        </g>
                        <g transform="translate(54.559675, 83.501614) scale(-1, 1) translate(-54.559675, -83.501614) translate(39.559675, 40.501614)">
                            <path d="M14.3242473,5.44311434 C14.3242473,5.44311434 21.7014928,0.456708111 26.1857355,25.516709 C28.2954741,37.307574 29.7905159,55.8058173 29.6078278,84.7225607 C29.6012086,85.1726611 29.2283307,85.5345065 28.775582,85.5301337 C28.3228332,85.5212682 27.9605459,85.1505973 27.9667238,84.6960842 C28.5977479,55.880834 27.397037,37.4223055 25.4770469,25.6358532 C21.4830614,1.12303319 14.5038465,5.71229202 14.5038465,5.71229202 C14.4297122,5.76083226 14.3291013,5.74318127 14.2792372,5.66816454 C14.2298143,5.5931478 14.250113,5.49165458 14.3242473,5.44311434 Z" id="路径" fill="#FAC295"></path>
                            <g transform="translate(13.061573, 13.823370) rotate(-19.397263) translate(-13.061573, -13.823370) translate(3.061573, 3.323370)" fill="#FAD1B0" id="路径">
                                <path d="M5.82439017,0.71949909 C14.5428098,-1.26090435 16.9545604,3.23062215 18.7244598,6.25821733 C20.4943592,9.28581251 19.4115469,16.7764392 16.4437865,18.8815083 C13.4763822,20.9830155 2.68993362,21.9091035 0.920034235,18.8815083 C-0.849865151,15.8539131 -0.153160945,2.08013598 5.82439017,0.71949909 Z"></path>
                            </g>
                            <g transform="translate(13.659215, 6.732826) rotate(24.942630) translate(-13.659215, -6.732826) translate(12.159215, 5.732826)" fill="#FCA35C" id="椭圆形">
                                <ellipse cx="1.37702469" cy="1.02938306" rx="1.02475428" ry="1"></ellipse>
                            </g>
                        </g>
                        <g transform="translate(0.005470, 58.980464)">
                            <path d="M10.3694934,7.91467067 C10.3694934,7.91467067 12.4972141,4.73129933 15.5427537,2.58717293 C17.542483,1.17598769 19.9415017,0.202379278 22.3908419,0.946259866 C24.590216,1.61356451 26.8065461,3.66470584 28.8221376,7.95295864 C32.7920597,16.4091306 35.9103465,33.4199294 36.3315149,65.5216586 C36.3408134,65.9756445 36.7160361,66.3366454 37.1689289,66.3259482 C37.6218216,66.3147666 37.9817291,65.9428263 37.9720809,65.4888403 C37.0387496,33.1683227 33.6015781,16.0918874 29.4702993,7.64665487 C27.2780359,3.1614925 24.8751883,1.0720632 22.5494638,0.404758555 C19.9327502,-0.344591743 17.3876899,0.689183486 15.2845829,2.22617205 C12.2171645,4.46328353 10.0987423,7.73417024 10.0987423,7.73417024 C10.0495148,7.81074618 10.0702998,7.90920096 10.1452349,7.96389806 C10.2196231,8.00765575 10.3202659,7.99124662 10.3694934,7.91467067 Z" id="路径" fill="#FAC295"></path>
                            <g transform="translate(0.136201, 5.458825)">
                                <g transform="translate(0.118964, 0.356893)" fill="#FAD1B0" id="路径">
                                    <path d="M0.853276173,6.04949949 C3.09148521,2.22070234 5.7880567,0.639956094 8.97198017,0.333652323 C13.9133244,-0.147682176 19.7281827,4.020237 19.9819777,7.62477603 C20.2352256,11.2293151 17.1437404,22.0757504 10.493109,21.9608865 C2.99357724,20.9982175 -0.985643374,9.18911315 0.853276173,6.04949949 Z"></path>
                                </g>
                                <g transform="translate(8.323542, 3.638719)" fill="#FCA35C" id="椭圆形">
                                    <ellipse cx="1.10761811" cy="0.875153633" rx="1" ry="1"></ellipse>
                                </g>
                            </g>
                        </g>
                        <g transform="translate(20.472471, 76.779831)">
                            <path d="M1.96869279,11.1636785 C1.96869279,11.1636785 2.9926242,7.23642661 4.62916414,4.19526773 C5.53823145,2.50512728 6.61521913,1.07753291 7.84262408,0.864214213 C8.89445106,0.683713776 9.98511304,1.46041263 11.1676663,3.67017555 C13.9014319,8.78982431 16.8162452,21.3373395 19.4006874,47.7013427 C19.4493679,48.149859 19.8546741,48.4780416 20.304832,48.4288142 C20.7549899,48.3795868 21.0809851,47.9748282 21.0317576,47.526312 C18.0813912,22.7868127 15.0735927,10.1900701 12.3595181,4.47422295 C10.9888065,1.59168567 9.6470844,0.415697976 8.45468565,0.26254609 C7.25080048,0.109394204 6.12677322,0.968138707 5.17777696,2.32462684 C3.00793941,5.42595253 1.65473092,11.0871026 1.65473092,11.0871026 C1.63285204,11.174618 1.68590832,11.2621333 1.77287685,11.2840122 C1.85929841,11.305891 1.94736089,11.2511939 1.96869279,11.1636785 Z" id="路径" fill="#FAC295"></path>
                            <g transform="translate(0.382617, 10.296752)" fill="#FCA35C" id="椭圆形">
                                <g transform="translate(1.369465, 2.059952) rotate(-28.560933) translate(-1.369465, -2.059952) translate(0.369465, 1.059952)">
                                    <ellipse cx="0.793109111" cy="0.765759282" rx="1" ry="1"></ellipse>
                                </g>
                            </g>
                        </g>
                    </g>
                </g>
            </g>
        </g>
    </g>
</svg>