<?xml version="1.0" encoding="UTF-8"?>
<svg width="251px" height="140px" viewBox="0 0 251 140" version="1.1" xmlns="http://www.w3.org/2000/svg" xmlns:xlink="http://www.w3.org/1999/xlink">
    <title>4</title>
    <defs>
        <path d="M4,0 L246,0 C248.209139,-4.05812251e-16 250,1.790861 250,4 L250,140 L250,140 L0,140 L0,4 C-2.705415e-16,1.790861 1.790861,4.05812251e-16 4,0 Z" id="path-1"></path>
    </defs>
    <g id="司南首页" stroke="none" stroke-width="1" fill="none" fill-rule="evenodd">
        <g id="4" transform="translate(0.833333, 0.000000)">
            <mask id="mask-2" fill="white">
                <use xlink:href="#path-1"></use>
            </mask>
            <use id="蒙版" fill="#C7F6E7" xlink:href="#path-1"></use>
            <g id="编组" mask="url(#mask-2)">
                <g transform="translate(47.666667, 8.000000)" id="龟背竹1">
                    <g transform="translate(0.539812, 0.252098)">
                        <g id="编组" transform="translate(75.940286, 75.759721)" fill="#75DDD9">
                            <path d="M1.29665074,30.8082481 C4.33395211,20.0891787 8.1884646,12.3665455 12.4379625,7.66758877 C15.3254418,4.46685012 18.3899835,2.69622875 21.4953858,2.38296496 C27.5427482,1.77005756 33.6309711,6.70055709 38.8611224,16.9429207 C47.3056374,33.4914205 53.3257594,63.7962864 52.7264712,107.939239 L55.722912,107.96648 C55.722912,63.3195807 49.1443624,32.7695518 40.3729629,16.1665714 C34.6116245,5.2431995 27.8287721,0.28545964 21.3455638,1.03456868 C17.9677578,1.41593329 14.6444325,3.34999664 11.5526504,6.86399906 C7.28953236,11.7127776 3.43501986,19.6260931 0.493059794,30.5767054 L1.29665074,30.8082481 Z" id="路径"></path>
                        </g>
                        <g id="编组" transform="translate(136.753781, 9.726200)" fill="#75DDD9">
                            <path d="M3.30208934,173.042654 C3.30208934,173.042654 0.809595393,77.2656581 4.6504877,28.7778727 C5.57666032,17.1326321 6.85695776,8.22504457 8.64120206,4.08451458 C9.17238929,2.85869978 9.70357653,2.06873024 10.3301051,1.83718745 C10.8068116,1.67374547 11.2971382,1.90528827 11.8419456,2.47733517 C12.6319164,3.30816521 13.4763679,4.7655228 14.3889203,6.93112895 L15.1516507,6.61786516 C14.1846176,4.23433639 13.2584449,2.65439731 12.4139934,1.78270679 C11.5695419,0.924636429 10.765951,0.706713798 10.0168408,0.965496922 C9.22687003,1.23790021 8.43689927,2.15045123 7.75589,3.68952981 C5.90354477,7.87092029 4.45980511,16.873849 3.38381045,28.6825316 C-1.04274984,77.170317 0.30564853,173.097135 0.30564853,173.097135 L3.30208934,173.042654 Z" id="路径"></path>
                        </g>
                        <path d="M154.78104,200.917372 C154.78104,200.917372 155.50291,138.455298 162.326622,103.01563 C164.573953,91.3703897 167.406952,82.6534845 171.193363,80.215475 C172.500901,79.3710248 173.9174,79.3574047 175.456481,80.297196 C177.55399,81.5911116 179.828561,84.5466873 182.361915,89.4635667 L182.974824,89.1503029 C179.542537,82.1903989 176.396274,79.0305207 173.658617,78.6763964 C172.187637,78.4857141 170.784758,79.0713812 169.49084,80.3244363 C167.720216,82.0405771 166.099414,85.0778737 164.655674,89.0958222 C154.10003,118.338315 151.784599,200.862892 151.784599,200.862892 L154.78104,200.917372 Z" id="路径" fill="#75DDD9"></path>
                        <path d="M136.890202,173.0526 C136.890202,173.0526 143.782016,111.080851 125.326665,71.8411577 C115.547372,51.0295464 98.6719618,36.5376914 69.9061301,40.9914852 L69.9878512,41.5362918 C98.2633563,37.5728239 114.634819,51.9284772 123.937406,72.4813054 C141.616407,111.530317 133.907382,172.698475 133.907382,172.698475 L136.890202,173.0526 Z" id="路径" fill="#75DDD9"></path>
                        <g id="编组" transform="translate(111.243173, 0.614542)" fill="#A7E5E2">
                            <path d="M80.5285411,23.9563345 C83.4977416,33.5994109 83.9472077,44.2776198 81.2776513,53.7572543 C72.2883289,38.7342129 59.3491527,35.015908 59.3491527,35.015908 L59.3491527,37.0589327 C66.6495721,37.6854603 75.4209716,50.2704922 79.9701135,57.6526213 C77.4639994,64.0540986 73.3915639,69.7064668 67.521264,73.8333767 C62.236632,73.1796088 57.1290624,72.0491351 52.2394158,70.5372969 C49.2838356,65.7293788 45.93327,57.0124736 51.1770414,46.5930478 C51.1770414,46.5930478 51.0544597,43.5557511 48.4530043,45.2310313 C48.4530043,45.2310313 41.5884308,55.9092403 44.8300349,67.8677446 C40.1174508,65.9336813 35.6772703,63.6591138 31.5503541,61.1257632 C31.1008879,55.1737514 32.8034111,46.0618614 43.0049301,35.6969162 C43.0049301,35.6969162 44.0673045,32.8366817 40.280893,32.9728834 C37.5159953,33.0682245 27.7639425,45.5442951 25.966078,57.4210785 C22.43845,54.9013481 19.210466,52.1909354 16.2957463,49.3851815 C17.6850052,43.46041 21.8119214,34.8660862 33.4708002,26.8438094 C33.4708002,26.8438094 40.6894985,21.7907283 32.789791,23.4387682 C32.789791,23.4387682 15.8462802,31.120541 13.3265459,46.361505 C10.548028,43.378689 8.13725519,40.3277722 6.14870811,37.2632352 C11.1064556,28.6825316 23.2556611,20.7147354 23.2556611,20.7147354 C26.9467314,18.7261914 25.9796982,17.9907025 25.9796982,17.9907025 C19.6463119,15.5254527 8.43689927,25.6997155 2.82538285,31.3929443 C-5.25138716,14.5039404 3.88775732,0.093806398 36.5762025,5.29670921 C44.6257322,-4.49618902 71.1850939,0.0257055758 79.0575611,19.8021843 C69.1148257,12.9512416 54.0645207,14.4085992 54.0645207,14.4085992 L54.0645207,16.2200811 C66.3771684,14.8716848 77.0145333,21.4774646 80.5285411,23.9563345 Z M71.8933435,30.9298587 L71.8933435,28.2058258 C71.8933435,28.2058258 64.7972269,23.1799851 56.9111395,22.75776 L56.9111395,24.1197765 C56.9111395,24.1197765 67.6847062,26.734848 71.8933435,30.9298587 Z" id="形状"></path>
                        </g>
                        <g id="编组" transform="translate(40.021275, 68.373505)" fill="#A7E5E2">
                            <path d="M51.6719905,7.20450318 C51.6719905,7.20450318 27.5506419,-6.8242662 14.0257977,7.20450318 C-9.4417819,31.5709774 4.61424954,23.4669795 4.61424954,23.4669795 L24.0774946,13.8375233 C24.0774946,13.8375233 33.5707639,10.25542 37.8475022,13.8375233 C42.1242404,17.4196265 32.2359857,12.9249722 28.2452714,13.8375233 C24.2409369,14.7500743 9.1633915,21.5601565 4.61424954,26.735819 C0.0651075846,31.9251016 4.61424954,32.9057535 4.61424954,32.9057535 C4.61424954,32.9057535 17.4444643,20.4024425 30.6288039,23.4669795 C43.7995232,26.5315165 7.06588293,29.9501778 10.9884964,41.0506118 C10.9884964,41.0506118 17.3763634,57.1224058 16.39571,64.8722794 C16.39571,64.8722794 21.9391255,62.2572078 28.2452714,62.6658128 C28.2452714,62.6658128 43.9084847,64.4091938 47.9809202,50.6664479 C47.9809202,50.6664479 48.8798524,43.2434583 43.0776534,36.3380349 C43.0776534,36.3380349 39.6317465,28.0161144 47.9809202,36.3380349 C47.9809202,36.3380349 54.9135946,50.257843 51.6719905,58.9066474 C51.6719905,58.9066474 61.8054085,48.8822064 65.0878732,50.6664479 C65.0878732,50.6664479 72.5381146,46.5259179 65.0878732,36.3380349 C65.0878732,36.3380349 45.1615418,6.36005298 68.4792994,32.9057535 C68.4792994,32.9057535 71.1624759,40.4513246 69.7868372,44.4692731 C69.7868372,44.4692731 87.4522178,30.0999996 78.2722127,25.1967404 C78.2722127,25.1967404 67.9072516,16.3572537 61.9416103,13.8375233 C61.9416103,13.8375233 61.0971588,5.96506821 82.1267252,23.4669795 C82.1267252,23.4669795 89.7676493,10.7457459 78.2722127,7.20450318 C78.2722127,7.20450318 60.3616688,0.857506547 55.1451378,7.20450318 C54.1236238,8.44393814 51.9171538,9.41096981 51.6719905,7.20450318 Z" id="路径"></path>
                        </g>
                        <g id="编组" transform="translate(194.284599, 107.279219) scale(-1, 1) translate(-194.284599, -107.279219) translate(151.784599, 74.779219)" fill="#A7E5E2">
                            <path d="M51.3810222,6.71464 C51.3810222,6.71464 27.2596737,-7.31412937 13.7348295,6.71464 C-9.73275012,31.0811142 4.32328132,22.9771163 4.32328132,22.9771163 L23.7865264,13.3476601 C23.7865264,13.3476601 33.2797957,9.76555683 37.5565339,13.3476601 C41.8332722,16.9297633 31.9450175,12.4351091 27.9543032,13.3476601 C23.9499686,14.2602111 8.87242328,21.0702933 4.32328132,26.2459558 C-0.225860639,31.4352385 4.32328132,32.4158903 4.32328132,32.4158903 C4.32328132,32.4158903 17.1534961,19.9125793 30.3378356,22.9771163 C43.508555,26.0416533 6.77491471,29.4603146 10.6975281,40.5607486 C10.6975281,40.5607486 17.0853951,56.6325427 16.1047418,64.3824162 C16.1047418,64.3824162 21.6481573,61.7673447 27.9543032,62.1759496 C27.9543032,62.1759496 43.6175165,63.9193306 47.689952,50.1765847 C47.689952,50.1765847 48.5888842,42.7535951 42.7866852,35.8481717 C42.7866852,35.8481717 39.3407782,27.5262513 47.689952,35.8481717 C47.689952,35.8481717 54.6226264,49.7679798 51.3810222,58.4167842 C51.3810222,58.4167842 61.5144402,48.3923432 64.7969049,50.1765847 C64.7969049,50.1765847 72.2471464,46.0360547 64.7969049,35.8481717 C64.7969049,35.8481717 44.8705736,5.8701898 68.1883311,32.4158903 C68.1883311,32.4158903 70.8715077,39.9614614 69.4958689,43.9794099 C69.4958689,43.9794099 87.1612495,29.6101364 77.9812445,24.7068772 C77.9812445,24.7068772 67.6162833,15.8673905 61.6506421,13.3476601 C61.6506421,13.3476601 60.8061906,5.47520503 81.835757,22.9771163 C81.835757,22.9771163 89.4766811,10.2558828 77.9812445,6.71464 C77.9812445,6.71464 60.0707006,0.367643369 54.8541695,6.71464 C53.8326556,7.95407496 51.6261856,8.92110664 51.3810222,6.71464 Z" id="路径"></path>
                        </g>
                        <g id="编组" transform="translate(56.756648, 47.370686) rotate(-8.668536) translate(-56.756648, -47.370686) translate(3.756648, 23.870686)" fill="#A7E5E2">
                            <path d="M98.3424205,23.737392 C98.3424205,23.737392 96.1087097,32.7948031 76.2096147,30.6836772 C69.4812417,31.7188099 58.939216,37.1668768 53.7363041,40.8307018 C46.7763879,43.5274949 32.0802048,54.1784656 40.197837,39.1009405 C43.5892638,32.8220435 61.1456865,21.8033282 62.0854795,20.645614 C63.0116523,19.4742797 65.6267284,17.9488209 69.6719243,17.1179907 C70.5299962,16.3416412 65.0819209,15.5789118 64.4009115,17.1179907 C63.9514452,18.1258831 57.8087404,23.1381046 55.0574623,23.1381046 C52.2517036,23.1381046 48.5878729,30.4385142 44.7333597,28.5316908 C40.4293802,28.8585748 40.6473032,41.579811 26.1145623,40.8307018 C14.1151765,40.2177943 16.1990653,35.4507357 19.9718575,35.4915962 C23.7446496,35.5188366 36.5748669,23.8054928 40.197837,23.737392 C43.820807,23.6692911 44.9240423,23.2879265 50.7807232,18.0986428 C52.7556505,16.3416412 45.046624,20.3323502 44.7333597,20.645614 C44.4200953,20.9452577 30.0916573,23.6284306 18.3646752,26.3660842 C7.37318334,28.9402958 3.27350669,30.8607394 10.1517017,25.6033549 C17.2341996,20.2097687 46.6810466,16.9817891 44.7333597,12.8003977 C42.7175718,10.8118533 5.24843398,25.20837 2.30647332,20.645614 C1.08065638,18.7115503 -1.8340639,17.6900378 5.00327059,18.1667436 C10.3968651,17.6355571 40.4566206,11.1795979 28.8930807,10.3896282 C16.5259498,8.89140977 12.7122971,14.366717 2.30647332,14.8842833 C-4.16311609,15.2111673 18.5962184,3.38886223 36.1254007,0.365185123 C43.9978695,-0.983211427 42.7448122,3.52506391 48.4380509,1.90426401 C54.2130107,0.256223785 79.5874213,-1.21475427 78.8655514,4.1515916 C77.3537105,7.76093589 78.7838302,8.78244843 80.1867096,7.89713757 C86.1114915,5.24120497 94.5560082,9.00037111 98.3424205,10.3896282 C113.828575,20.155288 99.3230741,19.0384343 94.6377293,19.5968612 C99.0506703,20.3459704 98.3424205,23.737392 98.3424205,23.737392 Z M63.3793973,10.621171 C64.0467866,11.3975205 66.7435838,11.4792415 67.4926942,10.621171 C68.2418045,9.77672063 68.9364341,8.80968877 68.8274726,7.39319138 C68.7729919,6.72580319 66.4575599,6.58960152 64.7686565,7.39319138 C63.0797532,8.19678124 62.9163109,10.0899845 63.3793973,10.621171 Z M48.4380509,4.1515916 C49.1463006,3.82470758 57.2911732,4.05625042 55.0574623,6.1809965 C52.8101313,8.30574258 50.6309012,6.35805868 50.3857378,6.1809965 C49.8681706,5.78601165 47.1986137,4.72363862 48.4380509,4.1515916 Z M66.1306754,4.98242179 C66.1306754,4.98242179 67.043228,5.25482514 67.9285402,5.17310413 C68.8138524,5.1050033 69.6719243,4.66915795 69.5629628,3.26628073 C66.0625744,-1.02407193 66.1306754,4.98242179 66.1306754,4.98242179 Z" id="形状"></path>
                        </g>
                    </g>
                </g>
            </g>
        </g>
    </g>
</svg>