<?xml version="1.0" encoding="UTF-8"?>
<svg width="251px" height="141px" viewBox="0 0 251 141" version="1.1" xmlns="http://www.w3.org/2000/svg" xmlns:xlink="http://www.w3.org/1999/xlink">
    <title>7</title>
    <defs>
        <path d="M4,0.489051095 L246,0.489051095 C248.209139,0.489051095 250,2.2799121 250,4.48905109 L250,140.489051 L250,140.489051 L0,140.489051 L0,4.48905109 C-2.705415e-16,2.2799121 1.790861,0.489051095 4,0.489051095 Z" id="path-1"></path>
    </defs>
    <g id="司南首页" stroke="none" stroke-width="1" fill="none" fill-rule="evenodd">
        <g id="7" transform="translate(0.500000, 0.000000)">
            <mask id="mask-2" fill="white">
                <use xlink:href="#path-1"></use>
            </mask>
            <use id="蒙版" fill="#BDF0BE" xlink:href="#path-1"></use>
            <path d="M247.317107,33.7402242 L247.719493,34.548313 C248.853468,36.8441509 249.933266,39.188477 250.903518,41.4624354 C248.157697,42.7385776 244.49352,44.6563349 242.755425,46.4985899 C245.528981,45.6871718 249.485922,45.7035049 252.694003,45.9146031 C254.120844,49.7174513 255.079262,53.0398587 255.251839,55.2019967 C255.55693,59.0815799 255.131651,65.2129793 252.925133,71.9089507 C250.937417,71.3588628 248.468952,70.8691768 245.732376,70.7492977 C245.513573,70.7415934 245.319424,70.8950632 245.27628,71.1110921 C245.236217,71.327121 245.356405,71.5416091 245.562881,71.616495 C247.692356,72.4815351 249.92661,73.7512057 251.81571,74.9407514 C251.356532,76.0717443 250.848047,77.2089007 250.281009,78.3491389 C249.732461,77.7759381 249.146932,77.2027373 248.518259,76.6387817 C248.351846,76.4939406 248.108389,76.4908589 247.935812,76.6295365 C247.766317,76.7651324 247.720091,77.0085886 247.831034,77.1965738 C248.351846,78.1549902 248.835677,79.1966132 249.276365,80.2536447 C244.712323,88.4479506 224.693407,97.3109908 212.107623,102.278731 C204.893294,105.126245 200.332334,109.351289 197.432427,114.124881 C194.745159,113.829035 191.305948,113.770482 187.663344,114.531668 C190.159545,114.691918 193.275173,115.736623 195.97785,116.852207 C189.91917,129.829349 194.01787,145.5369 190.535516,149.142518 C188.607505,151.138628 186.624914,152.418929 184.681153,152.932283 C184.200414,139.019682 184.817807,126.433626 186.384426,115.60719 C189.256598,95.785537 195.161192,81.9239395 203.444881,76.959281 C208.539656,73.9076032 212.914288,70.7022287 216.660586,67.5063708 C217.536637,67.751806 218.803419,67.8901088 220.280987,67.8652965 C222.185496,67.8329383 224.447485,67.5598975 226.62935,66.9854641 C228.241094,66.5611106 230.025416,66.6267513 231.729612,66.9182825 C234.907903,67.4621335 237.797398,68.785932 238.782846,69.2705046 L238.782846,69.2705046 L238.998119,69.3780603 C239.054313,69.4066368 239.094573,69.4275674 239.117791,69.4397395 L239.117791,69.4397395 L239.141172,69.4520765 C239.141172,69.4520765 239.046409,69.3948506 238.870337,69.2953565 L238.870337,69.2953565 L238.600214,69.1453224 C237.488009,68.5374297 234.797107,67.180185 231.812819,66.5025578 C230.043906,66.1016254 228.17946,65.9444575 226.4691,66.2982395 C224.33038,66.7395424 222.133106,66.8877734 220.293314,66.8199754 C219.318221,66.7842679 218.451191,66.6923291 217.766469,66.5469746 C219.389672,65.1159645 220.88858,63.6900182 222.268508,62.2847872 C222.480168,62.3623002 222.723405,62.4302133 222.995991,62.4848825 C224.111577,62.7086157 225.772629,62.7699421 227.646321,62.7212508 C228.652388,62.6950942 229.720741,62.6392118 230.796997,62.5650621 L231.443265,62.5184719 C231.550989,62.5103721 231.658683,62.5021125 231.766294,62.4937046 L232.410512,62.4415694 C236.585711,62.0923148 240.467542,61.552355 240.830107,61.5013904 L240.830107,61.5013904 L240.857696,61.497498 C240.857696,61.497498 236.327475,61.8340963 231.684015,61.8814606 L231.050528,61.8860678 C229.889371,61.8910121 228.733685,61.8761013 227.652484,61.8315569 C226.151682,61.7696142 224.801884,61.6491188 223.784913,61.4435678 C223.577966,61.4016505 223.386937,61.3569478 223.215553,61.3081868 L223.215553,61.3081868 L223.331283,61.1863978 C223.804991,60.6866675 224.263973,60.1900908 224.708607,59.6973666 L224.708607,59.6973666 L224.321134,59.644611 C226.108538,59.9133374 228.379772,59.8498539 230.63868,59.626737 C235.27052,59.1687927 239.825316,58.0753968 239.825316,58.0753968 C239.825316,58.0753968 235.221212,58.7891242 230.595536,58.8652428 C228.87265,58.8935508 227.151696,58.8319998 225.675257,58.6067009 C226.070869,58.1521648 226.454204,57.7014426 226.82557,57.2551037 L226.82557,57.2551037 L226.678658,57.2353186 C228.496878,57.5139066 230.487675,57.3958765 232.389103,57.0772262 C236.560294,56.3779128 240.251736,54.7635467 240.417375,54.6905277 L240.417375,54.6905277 L240.39958,54.6958839 C240.071568,54.8052323 236.370837,56.0149977 232.296651,56.3200464 C230.767836,56.4343818 229.188396,56.4168717 227.723565,56.155776 C234.758517,47.3821375 237.107094,40.5503917 237.222494,40.2067508 L237.222494,40.2067508 L237.217784,40.2189182 C237.203875,40.2546529 237.165316,40.3522826 237.099954,40.5073199 L237.000977,40.7379333 C236.861539,41.057593 236.65363,41.5142659 236.368889,42.0905399 L236.205906,42.4166278 C234.897179,45.0059666 232.21825,49.6314792 227.557598,55.0198194 L227.557598,55.0198194 L227.535735,55.0100197 C226.131082,54.3423039 224.995337,53.5453793 224.090313,52.7487901 C222.015613,50.9214543 221.166947,49.1591998 221.166947,49.1591998 L221.174866,49.1824728 C221.252217,49.4052905 221.90758,51.1966663 223.640459,53.1973825 C224.438378,54.1186816 225.458223,55.0678551 226.751357,55.9370533 C226.251637,56.4965503 225.730826,57.0632774 225.187854,57.6356454 C223.840754,56.9533959 222.908754,56.2238711 222.258886,55.5449544 C221.058257,54.2898774 220.831608,53.2752107 220.831608,53.2752107 C220.831608,53.2752107 220.887279,54.6353645 222.273625,56.4390378 C222.775923,57.0920491 223.449113,57.7863052 224.356044,58.5010419 C223.758971,59.1125154 223.137204,59.7297889 222.489971,60.3512505 C222.089711,60.7356213 221.679671,61.1215597 221.256892,61.5104344 C221.065553,61.3266279 220.909653,61.0979959 220.777336,60.8415808 C220.204318,59.7330548 219.968537,58.231369 219.428963,57.213252 C218.967843,56.3408877 218.456487,55.5750843 217.975115,54.9392396 C217.018145,53.6756623 216.197999,52.9398508 216.197999,52.9398508 C216.197999,52.9398508 216.921015,53.7582827 217.717211,55.1122703 C218.108656,55.7796702 218.515884,56.5763197 218.863341,57.4715646 C219.28781,58.5603707 219.347711,60.0962087 219.795105,61.2803823 C219.940649,61.6684157 220.131654,62.0161026 220.375665,62.311874 C215.630784,66.5617108 209.67863,70.9223567 202.276906,74.8976072 C193.247438,79.7451601 186.005373,93.995055 181.974471,114.861413 C179.913753,125.539827 178.68405,137.95688 178.448548,151.713676 C177.563714,151.073068 176.715087,150.217803 175.91579,149.142518 C168.991144,139.835709 161.792223,86.5650168 181.290327,66.8311929 C181.5985,66.5242531 181.977553,66.2977464 182.396668,66.1726284 C184.612431,65.5066677 187.053161,64.931926 189.179555,64.7877013 C189.281252,64.7852359 189.36754,64.708501 189.376785,64.6077286 C189.389112,64.5069562 189.327478,64.4126554 189.228862,64.3867689 C188.393714,64.1710482 187.570892,63.9990879 186.76656,63.8634921 C186.538512,63.8268195 186.359772,63.6496204 186.322791,63.4234218 C186.285811,63.196915 186.393671,62.9713328 186.597065,62.8622397 C187.675671,62.2890389 188.831319,61.7907241 190.064011,61.3728422 C210.878013,54.3138437 221.962995,40.3976996 227.676522,31.2680902 C228.918459,31.6640919 230.151151,32.0819737 231.309881,32.5118743 C230.61341,31.2610023 229.77518,30.1894866 228.862988,29.2732899 C231.383842,24.8269775 232.764457,20.9107218 233.679731,18.2213007 C235.314743,13.4048886 241.856961,22.8634308 247.317107,33.7402242 Z" id="形状结合" fill="#A1E29A" opacity="0.831775484" mask="url(#mask-2)"></path>
            <path d="M157.597666,52.5939352 L157.92311,53.2475073 C157.97706,53.3567335 158.030858,53.4660954 158.084495,53.5755734 L158.404318,54.2336785 C159.145729,55.7717783 159.852064,57.3249698 160.49831,58.8395633 C158.277524,59.8716912 155.313984,61.4227493 153.908234,62.9127422 C156.151452,62.2564773 159.351776,62.2696874 161.946432,62.4404209 C163.100443,65.5161171 163.875599,68.2032387 164.015177,69.951949 C164.261931,73.0897074 163.917971,78.0487067 162.133367,83.4643248 C160.705185,83.0690206 158.970429,82.7121003 157.046247,82.5695315 C156.809463,82.5540783 156.595111,82.713845 156.540276,82.9466408 C156.487935,83.1791873 156.610065,83.4162203 156.831895,83.5059489 C158.349806,84.1841474 159.900119,85.0739558 161.23608,85.9164074 C160.864702,86.8311404 160.453446,87.7508583 159.994832,88.6730687 C159.713184,88.3789583 159.419073,88.084848 159.1125,87.7932301 C158.94052,87.6287277 158.673826,87.613773 158.481906,87.7558432 C158.292479,87.8979135 158.23266,88.1596218 158.342328,88.371481 C158.638932,88.9621941 158.92058,89.5853092 159.182289,90.2134092 C155.490949,96.8408616 139.2999,104.009178 129.120675,108.027024 C123.285815,110.330058 119.596968,113.747221 117.251559,117.608042 C115.07813,117.368766 112.296539,117.321409 109.350446,117.937047 C111.369343,118.066655 113.889224,118.911599 116.075116,119.81387 C111.17493,130.309621 114.489908,143.013691 111.673423,145.92987 C110.107465,147.55114 108.496988,148.588555 106.918507,149.000229 C106.684596,138.433054 107.252325,128.691444 108.500516,120.170291 C110.918207,103.670203 115.698753,91.8110764 122.263905,87.8106774 C126.360135,85.3147972 129.877332,82.7021307 132.887137,80.0998109 C133.605252,80.2748122 134.591729,80.3701714 135.731189,80.3404244 C137.279009,80.2997973 139.118448,80.0627643 140.888098,79.5787285 C142.179195,79.2262946 143.609869,79.2649278 144.978232,79.4862582 C148.156124,79.9997051 150.985072,81.4772356 150.985072,81.4772356 L150.958599,81.4611371 C150.66978,81.2867588 148.057209,79.7407385 145.067961,79.0333782 C143.629809,78.6929081 142.111898,78.5543273 140.713625,78.8299934 C138.991333,79.1692173 137.221683,79.2701619 135.741159,79.2018685 C135.126665,79.1735416 134.566563,79.1183685 134.092826,79.036361 C135.267845,77.9750243 136.360247,76.9182235 137.373148,75.8752146 C137.527815,75.9256088 137.700039,75.9698709 137.889663,76.0055123 C138.801905,76.1777413 140.155313,76.215876 141.685687,76.1583001 C142.490606,76.1279947 143.344271,76.0736738 144.20441,76.004757 L144.20441,76.004757 L144.778331,75.9567536 C148.413366,75.6403465 151.996361,75.1010566 152.345573,75.0479186 L152.345573,75.0479186 L152.366341,75.0441081 C152.198236,75.0544871 149.042194,75.2467584 145.629854,75.2659672 L145.629854,75.2659672 L145.059226,75.2675054 C144.868538,75.2674434 144.677527,75.2667864 144.486662,75.2654735 L144.486662,75.2654735 L143.914972,75.2595064 C143.154551,75.2487645 142.403956,75.2265549 141.693164,75.1889822 C140.489304,75.1251753 139.405082,75.01451 138.592538,74.8400378 C138.526267,74.8258059 138.462154,74.8112372 138.401372,74.7957516 C138.723114,74.4497606 139.036282,74.1057189 139.339419,73.7645223 C140.736346,73.9055159 142.427985,73.828217 144.113347,73.637301 C147.864506,73.212835 151.538399,72.2759191 151.538399,72.2759191 L151.538399,72.2759191 L151.510915,72.2797149 C151.165725,72.3269734 147.624856,72.7997595 144.06599,72.8078102 C142.779865,72.8107457 141.496442,72.7502068 140.369723,72.5826462 C140.59592,72.3165286 140.816993,72.0521026 141.030781,71.7920919 C142.477075,71.9671217 144.041575,71.8499888 145.536544,71.57479 C148.9911,70.9394618 152.021937,69.5362066 152.021937,69.5362066 C152.021937,69.5362066 151.780383,69.6141344 151.357429,69.7310615 L151.357429,69.7310615 L151.08237,69.8055862 C149.898911,70.1199131 147.739883,70.6140295 145.436846,70.7497856 C144.283313,70.8178498 143.099937,70.7901014 141.990843,70.5966028 C146.593732,64.7195897 148.630745,59.9590884 149.232804,58.3805142 L149.295969,58.2126095 C149.390844,57.956695 149.43426,57.8213932 149.43426,57.8213932 L149.427914,57.837434 C149.300405,58.1569972 147.233638,63.2136359 141.630441,69.624963 C140.512287,69.1199714 139.605788,68.5184979 138.875959,67.9054611 C137.163764,66.4668781 136.447742,65.0646102 136.447742,65.0646102 C136.447742,65.0646102 136.916608,66.6160937 138.384453,68.3930071 C138.995623,69.1330117 139.774029,69.8910019 140.759724,70.601109 C140.418771,70.975061 140.065991,71.3528875 139.699604,71.734597 C138.647186,71.2337618 137.910372,70.6986738 137.386301,70.184662 C136.383398,69.2006491 136.176524,68.3935885 136.176524,68.3935885 C136.176524,68.3935885 136.186491,69.4974845 137.277283,71.0128399 C137.650311,71.5315174 138.146271,72.0759397 138.809676,72.6465955 C138.360375,73.0976308 137.894179,73.5524106 137.410612,74.0099238 C137.124161,74.2808517 136.831614,74.5526924 136.531451,74.8261636 C136.432453,74.7171186 136.346335,74.5909984 136.270176,74.4514059 C135.788901,73.5641221 135.575108,72.3578354 135.121557,71.5426253 C134.729964,70.8384088 134.306125,70.2257718 133.902614,69.7151273 C133.10378,68.7041447 132.42892,68.1223536 132.42892,68.1223536 C132.42892,68.1223536 132.998496,68.7940795 133.621388,69.9034767 C133.925897,70.4482288 134.240805,71.0965871 134.50514,71.823549 C134.830216,72.7140689 134.855629,73.9597911 135.198707,74.9282815 C135.296712,75.2044893 135.423807,75.4550006 135.582068,75.6762914 C131.747299,79.0442292 126.957845,82.4864045 121.020165,85.6173122 C113.697304,89.4806259 107.433741,101.743531 103.739909,119.322855 C102.046457,127.374481 100.885736,136.541029 100.378549,146.504737 L100.374992,146.588134 C100.197004,146.381314 100.021668,146.161927 99.8491718,145.92987 C94.2660513,138.425072 88.463594,95.582169 104.051467,79.5053006 C104.392935,79.1610918 104.814161,78.9086056 105.280252,78.7710218 C106.902846,78.2892292 108.657541,77.877724 110.232779,77.7324135 C110.342447,77.7274286 110.432176,77.6421864 110.442146,77.5325182 C110.454608,77.4228499 110.382327,77.3219053 110.275151,77.2954852 C109.863894,77.1955375 109.45513,77.1087999 109.053843,77.0335276 C108.807089,76.9884141 108.615169,76.790762 108.580275,76.5425129 C108.54538,76.2942638 108.670004,76.0507505 108.894325,75.9375927 C109.649542,75.5614805 110.447131,75.228737 111.292076,74.9428518 C128.126181,69.2336219 137.091576,57.9784182 141.712605,50.5945041 C142.717068,50.9147853 143.714054,51.2527629 144.651221,51.6004611 C144.087924,50.5887715 143.409974,49.722143 142.672204,48.9811345 C144.71104,45.3850125 145.827664,42.2175938 146.567926,40.0424235 C147.890303,36.1469696 153.181568,43.7969204 157.597666,52.5939352 Z" id="形状结合" fill="#A1E29A" mask="url(#mask-2)" transform="translate(129.043047, 94.000115) scale(-1, 1) translate(-129.043047, -94.000115) "></path>
            <path d="M67.8295865,103.698289 C81.0487134,100.616718 91.8907384,101.022404 100.7904,103.763484 C104.274335,104.836642 107.45489,106.268695 110.358469,107.987134 C110.623269,108.585842 110.824817,109.219323 110.953286,109.879733 C111.320566,111.762576 111.747109,113.951801 112.179677,116.173125 L112.479455,117.712722 C113.27794,121.814012 114.055084,125.808973 114.475891,127.971758 C114.544702,128.31846 114.422959,128.673102 114.160947,128.908648 C113.896289,129.144194 113.528413,129.223591 113.18965,129.115081 C109.902592,128.069682 102.508033,125.722165 100.041416,124.938777 C99.5703239,124.787922 99.2791995,124.31683 99.3559505,123.82986 C99.4644605,123.136455 99.6273725,122.098996 99.7963618,121.023896 L99.9137315,120.277348 C100.213122,118.373383 100.496629,116.572935 100.496629,116.572935 C100.496629,116.572935 98.7498825,122.122815 98.1491077,124.036293 C98.0273648,124.42534 97.6833088,124.700585 97.2783813,124.73499 C93.97015,125.015528 79.3742337,126.248834 75.5737376,126.571717 C75.0603001,126.614062 74.5971477,126.262067 74.5045173,125.753924 C74.1604612,123.864265 73.3929516,119.640322 73.3929516,119.640322 L73.3929516,119.640322 L73.3929516,125.64806 C73.3929516,125.912719 73.2870882,126.16679 73.0991806,126.354698 C72.9112731,126.542605 72.6572009,126.648468 72.3925424,126.648468 L72.3925424,126.648468 L72.2469802,126.648468 C71.8235266,126.648468 71.445065,126.381163 71.304796,125.98153 C71.0802038,125.349806 70.7237766,124.347425 70.3600157,123.324463 L70.1920586,122.852139 C69.6055598,121.202816 69.0499056,119.640322 69.0499056,119.640322 C69.0499056,119.640322 69.2131994,120.463487 69.4277479,121.54553 L69.5160353,121.990817 C69.7724233,123.284002 70.0754572,124.813064 70.2620415,125.75657 C70.3626117,126.262067 70.0635476,126.762271 69.5686362,126.910479 C66.3450957,127.879128 55.0521174,131.272045 50.7540634,132.563576 C50.32267,132.693258 49.8568711,132.635034 49.4678231,132.404781 C49.0814217,132.174529 48.8061768,131.793421 48.7135464,131.351442 C48.2278622,129.030677 47.4082618,125.130324 47.3210755,124.715446 L47.3135029,124.679412 L47.3135029,124.679412 L47.3135029,132.613861 C47.3135029,133.211988 46.9826798,133.75983 46.4533628,134.037721 C43.6956212,135.495987 35.0439348,140.063986 31.6933582,141.834548 C30.9443746,142.228889 30.0154233,141.956291 29.602556,141.217895 C29.0652992,140.265126 28.3480747,138.986827 27.8240509,138.052584 C27.7393602,137.904376 27.5673321,137.832918 27.4032439,137.875263 C27.2391556,137.917609 27.1227059,138.065817 27.1227059,138.237845 L27.1227059,138.237845 L27.1227059,140.982349 C27.1227059,141.397862 26.9586176,141.79485 26.6674932,142.085973 C26.3737223,142.379744 25.9767345,142.543832 25.5612207,142.543832 L25.5612207,142.543832 L11.9569531,142.543832 L12.0577934,142.036754 C13.5181484,135.012865 17.0290379,128.631935 22.0792336,123.665815 C30.5080465,118.606158 38.3394362,114.528595 45.6163852,111.318435 C45.1634293,112.411803 44.6212368,113.929893 44.3340436,115.498408 C44.0773249,116.914328 44.0138069,118.348775 44.4240275,119.550323 L44.4240275,119.550323 L44.5113648,119.526503 L44.4751956,119.248516 C44.3636415,118.126775 44.6430833,116.891934 45.0803806,115.702194 C46.0702034,113.007975 47.8910539,110.628699 47.8910539,110.628699 L47.8910539,110.628699 L47.6163542,110.454263 C50.5471111,109.20876 53.3861208,108.106423 56.1359,107.139401 C55.4447763,108.390072 54.565183,110.272858 54.0162441,112.535973 C53.4736941,114.769687 53.2434413,117.363337 53.8627421,120.078728 L53.8627421,120.078728 L53.9500794,120.065495 L53.9059058,119.593265 C53.7131322,117.087066 54.1963675,114.781519 54.9187296,112.811218 C56.2976004,109.061013 58.5604305,106.618219 58.5604305,106.618219 L58.5604305,106.618219 L58.2982745,106.40115 C60.9659931,105.517145 63.5479592,104.763045 66.0479314,104.130543 C65.2162084,105.671201 63.8844287,108.506895 63.4036811,111.61761 C63.0913841,113.631658 63.1284363,115.751569 63.9065323,117.702099 L63.9065323,117.702099 L63.9938696,117.672986 L63.9015053,117.304896 C63.4810627,115.460321 63.674129,113.557884 64.1579578,111.776405 C65.1954191,107.965328 67.587932,104.764861 68.1067934,104.100696 L68.1905572,103.994872 C68.2015398,103.981227 68.2072329,103.974285 68.2072329,103.974285 L68.2072329,103.974285 Z M61.2189884,104.354324 C59.9621731,104.757614 58.6862892,105.190879 57.3910518,105.65499 L57.3910518,105.65499 L57.1709734,105.474896 C57.1443354,105.511247 57.0606933,105.626802 56.9323123,105.820363 C53.6829907,106.998777 50.3125145,108.370588 46.8164362,109.949371 L46.8164362,109.949371 L46.3719141,109.670637 C46.364715,109.684415 46.3604559,109.692617 46.3548777,109.703445 L46.2710941,109.869585 C46.2198379,109.972979 46.1510966,110.114475 46.069698,110.288865 C38.8935835,113.573205 31.1923256,117.724746 22.9280451,122.859103 C24.2581383,121.632268 25.6878278,120.500411 27.2073966,119.476234 C38.6301633,111.697828 50.1266745,107.080823 60.763058,104.464272 Z" id="形状结合" fill="#A1E29A" mask="url(#mask-2)"></path>
            <path d="M240.301294,119.800946 C252.198807,127.363512 256.109673,127.460367 256.109673,127.460367 C256.109673,127.460367 252.526022,133.910406 242.581323,138.755788 C241.963543,137.603995 241.149433,136.206138 240.620655,135.711391 C240.950487,136.79774 241.021165,138.195598 240.987135,139.491365 C234.16537,142.486025 224.65783,144.640401 211.723702,143.815822 C212.283893,142.721619 212.836231,141.441559 212.74461,140.779278 C212.01165,141.679771 210.608555,142.745179 209.310169,143.629965 C206.816842,143.406575 204.200082,143.075181 201.457868,142.619604 C204.127945,139.637875 207.453237,136.506912 210.975035,133.700989 C214.622626,130.793338 218.477221,128.233157 222.038134,126.555994 C223.078959,126.571179 224.080351,126.680589 224.98412,126.831213 C226.923981,127.151971 228.415261,127.654477 228.886003,127.823716 L228.886003,127.823716 L228.98528,127.859966 C228.997842,127.864635 229.008381,127.868589 229.01685,127.871786 L229.01685,127.871786 L229.042444,127.881547 C229.042444,127.881547 227.380312,127.109939 225.040033,126.566917 C224.365085,126.409822 223.634416,126.272292 222.870973,126.177824 C224.053084,125.661128 225.197369,125.249352 226.285346,124.962367 C227.16083,124.940767 227.870521,125.043175 228.435981,125.199135 C229.773261,125.570199 230.310561,126.22622 230.310561,126.22622 C230.310561,126.22622 229.830444,125.505361 228.503993,124.993922 C228.202471,124.878312 227.858944,124.774191 227.468598,124.690517 C228.530908,124.476087 229.570265,124.342542 230.581444,124.276641 C231.919381,124.334362 232.97544,124.538989 233.794576,124.791388 C235.508956,125.319035 236.178422,126.044921 236.178422,126.044921 L236.164033,126.02767 C236.062271,125.908987 235.409937,125.199961 233.864287,124.588219 C233.553078,124.464631 233.205789,124.345462 232.818498,124.234931 C234.36521,124.278684 235.827872,124.468648 237.183596,124.748419 C242.844994,125.912889 246.652991,128.626289 246.942951,128.837314 L246.942951,128.837314 L246.96076,128.850371 C246.96076,128.850371 243.157221,125.800739 237.272598,124.35838 C234.178459,123.599244 230.513658,123.287736 226.521643,124.080903 C221.720754,125.031132 215.681686,128.381801 210.071924,132.520401 C207.27785,134.580892 204.592839,136.836583 202.219432,139.085289 C204.561439,134.195223 209.585233,125.203491 216.901542,119.999892 C218.427669,119.518233 220.440692,119.020868 221.987761,119.125577 C221.568927,118.842864 220.681522,118.523503 219.757468,118.238173 C225.477175,115.243512 232.374854,114.761853 240.301294,119.800946 Z" id="形状结合" fill="#A1E29A" opacity="0.464285714" mask="url(#mask-2)" transform="translate(228.783771, 129.993146) rotate(3.000000) translate(-228.783771, -129.993146) "></path>
        </g>
    </g>
</svg>